G04 DipTrace 3.1.0.1*
G04 BottomMask.gbr*
%MOIN*%
G04 #@! TF.FileFunction,Soldermask,Bot*
G04 #@! TF.Part,Single*
%ADD30C,0.066929*%
%ADD32R,0.051181X0.047244*%
%ADD34R,0.047244X0.051181*%
%ADD36C,0.067874*%
%ADD38C,0.067874*%
%ADD40C,0.066929*%
%ADD42R,0.066929X0.066929*%
%ADD44R,0.070866X0.070866*%
%ADD46C,0.070866*%
%FSLAX26Y26*%
G04*
G70*
G90*
G75*
G01*
G04 BotMask*
%LPD*%
D46*
X1943701Y1193701D3*
D44*
X1543701D3*
D46*
X2068701Y868701D3*
D44*
X1668701D3*
D46*
X2393701Y593701D3*
D44*
X2793701D3*
D46*
X2393701Y1493701D3*
D44*
X2793701D3*
D46*
X2943701Y1093701D3*
D44*
Y1493701D3*
D46*
X3868701Y993701D3*
D44*
Y1393701D3*
D46*
X2593701Y1318701D3*
D44*
X2693701D3*
D46*
X3593701D3*
D44*
X3693701D3*
D46*
X2393701Y768701D3*
D44*
X2493701D3*
D46*
X3393701D3*
D44*
X3493701D3*
D46*
X1568701Y1368701D3*
D44*
X1668701D3*
D42*
X2443701Y1693701D3*
D40*
X2543701D3*
D42*
X3143701Y1668701D3*
D40*
X3243701D3*
D42*
X593701Y1293701D3*
D40*
Y1193701D3*
Y1093701D3*
Y993701D3*
D38*
X2068701Y743701D3*
D36*
X1668701D3*
D38*
X2243701Y593701D3*
D36*
Y993701D3*
D34*
X2293701Y1193701D3*
Y1126772D3*
D38*
X2143701Y993701D3*
D36*
Y1393701D3*
D34*
X2293701Y1276772D3*
Y1343701D3*
D32*
X2393701D3*
X2460630D3*
D34*
X2793701Y768701D3*
Y835630D3*
D38*
Y1393701D3*
D36*
Y993701D3*
D38*
X3118701Y1093701D3*
D36*
Y1493701D3*
D38*
X3243701Y993701D3*
D36*
Y593701D3*
D38*
X3118701Y993701D3*
D36*
Y593701D3*
D38*
X3243701Y1493701D3*
D36*
Y1093701D3*
D32*
X3193701Y1393701D3*
X3260630D3*
X3368701Y1518701D3*
X3435630D3*
X3368701Y1393701D3*
X3435630D3*
X3543701Y1518701D3*
X3610630D3*
X3543701Y1393701D3*
X3610630D3*
D38*
X3368701Y1668701D3*
D36*
X3768701D3*
D34*
X1468701Y1493701D3*
Y1560630D3*
Y1643701D3*
Y1710630D3*
D42*
X2393701Y1193701D3*
D40*
Y1093701D3*
Y993701D3*
Y893701D3*
X2693701D3*
Y993701D3*
Y1093701D3*
Y1193701D3*
D42*
X3393701D3*
D40*
Y1093701D3*
Y993701D3*
Y893701D3*
X3693701D3*
Y993701D3*
Y1093701D3*
Y1193701D3*
D42*
X1568701Y1793701D3*
D40*
Y1693701D3*
Y1593701D3*
Y1493701D3*
X1868701D3*
Y1593701D3*
Y1693701D3*
Y1793701D3*
D30*
X843701Y1293701D3*
Y1193701D3*
Y1093701D3*
Y993701D3*
X1243701D3*
Y1093701D3*
Y1193701D3*
Y1293701D3*
D34*
X1393701Y1126772D3*
Y1193701D3*
Y993701D3*
Y1060630D3*
D32*
X968701Y1418701D3*
X901772D3*
X718701D3*
X785630D3*
D46*
X1243701Y1518701D3*
D44*
Y1418701D3*
M02*
