G04 DipTrace 3.1.0.1*
G04 Bottom.gbr*
%MOIN*%
G04 #@! TF.FileFunction,Copper,L2,Bot*
G04 #@! TF.Part,Single*
G04 #@! TA.AperFunction,CopperBalancing*
%ADD14C,0.02*%
%ADD15C,0.025*%
G04 #@! TA.AperFunction,ComponentPad*
%ADD16C,0.062992*%
%ADD17R,0.062992X0.062992*%
%ADD18R,0.059055X0.059055*%
%ADD19C,0.059055*%
%ADD20C,0.06*%
%ADD21C,0.06*%
%ADD22R,0.03937X0.043307*%
%ADD23R,0.043307X0.03937*%
G04 #@! TA.AperFunction,ComponentPad*
%ADD24C,0.059055*%
%FSLAX26Y26*%
G04*
G70*
G90*
G75*
G01*
G04 Bottom*
%LPD*%
X2243701Y593701D2*
D14*
X2393701D1*
X2068701Y743701D2*
Y868701D1*
X2393701Y993701D2*
X2268701Y868701D1*
X2068701D1*
X2143701Y993701D2*
X2018701D1*
X2015894Y996508D1*
X1943701Y1068701D1*
Y1193701D1*
X1668701Y868701D2*
X1888246D1*
X1945105Y925561D1*
X2015894Y996508D1*
X1943701Y1068701D2*
X1945105Y925561D1*
X2393701Y1193701D2*
X2293701D1*
Y1276772D1*
X2210630D1*
X2143701Y1343701D1*
Y1393701D1*
X1543701Y1193701D2*
X1393701D1*
X1243701D1*
X2293701Y1126772D2*
Y1093701D1*
X2393701D1*
X2293701D2*
Y1043701D1*
X2243701Y993701D1*
X2693701Y893701D2*
Y693701D1*
X2793701Y593701D1*
X2460630Y1343701D2*
X2468701D1*
X2493701Y1318701D1*
Y1093701D1*
X2693701Y893701D1*
X2293701Y1343701D2*
X2393701D1*
Y1493701D1*
X2693701Y993701D2*
X2793701D1*
Y835630D1*
X3193701Y1393701D2*
X2793701D1*
Y1493701D2*
Y1393701D1*
Y1193701D1*
X2693701Y1093701D1*
X2943701Y1493701D2*
X3118701D1*
X2793701D2*
X2943701D1*
X3193701Y1393701D2*
Y1418701D1*
X3118701Y1493701D1*
X1243701Y1293701D2*
Y1418701D1*
X1318701Y1493701D1*
Y1643701D1*
X1385630Y1710630D1*
X1468701D1*
X968701Y1418701D2*
X1093701D1*
X1243701D1*
X1668701Y1368701D2*
Y1493701D1*
X1868701Y1693701D1*
X1243701Y1293701D2*
X1643701D1*
X1668701Y1318701D1*
Y1368701D1*
X2693701Y1318701D2*
Y1193701D1*
X3693701D2*
Y1318701D1*
X1868701Y1693701D2*
X2443701D1*
X2693701Y1443701D1*
Y1318701D1*
X1468701Y1493701D2*
X1568701D1*
Y1368701D2*
Y1493701D1*
X2393701Y768701D2*
Y893701D1*
X3393701Y768701D2*
Y893701D1*
X1568701Y1493701D2*
X1793701Y1718701D1*
Y1818701D1*
X1843701Y1868701D1*
X2443701D1*
X2543701Y1768701D1*
Y1693701D1*
X3243701Y993701D2*
X3393701D1*
X3243701D2*
X3118701D1*
Y1093701D1*
X2943701D1*
X593701Y1193701D2*
X843701D1*
X3693701Y1093701D2*
X3868701Y1268701D1*
Y1393701D1*
X3243701Y1093701D2*
X3393701D1*
X3443701D1*
X3543701Y993701D1*
X3693701D1*
X3868701D1*
X3243701Y1668701D2*
Y1493701D1*
X3368701Y1668701D2*
X3243701D1*
X3610630Y1393701D2*
Y1518701D1*
Y1610630D1*
X3668701Y1668701D1*
X3768701D1*
X3435630Y1518701D2*
Y1393701D1*
X3543701D1*
Y1518701D2*
X3435630D1*
X3543701D2*
Y1393701D1*
Y1518701D2*
Y1668701D1*
X3618701Y1743701D1*
X3818701D1*
X3943701Y1618701D1*
Y968701D1*
X3868701Y893701D1*
X3693701D1*
X3260630Y1393701D2*
X3368701D1*
Y1518701D2*
Y1393701D1*
X1468701Y1560630D2*
Y1568701D1*
X1493701Y1593701D1*
X1568701D1*
X1468701Y1643701D2*
Y1623187D1*
X1495944Y1595944D1*
X1493701Y1593701D1*
X593701Y1093701D2*
X843701D1*
X1393701Y1060630D2*
Y1093701D1*
Y1126772D1*
X1243701Y1093701D2*
X1393701D1*
X1243701Y993701D2*
X1393701D1*
X785630Y1418701D2*
X843701D1*
X901772D1*
X843701Y1293701D2*
Y1418701D1*
Y1293701D2*
X593701D1*
X458719Y1956332D2*
D15*
X4053692D1*
X458719Y1931463D2*
X1831564D1*
X2455853D2*
X4053692D1*
X458719Y1906595D2*
X1789292D1*
X2498125D2*
X4053692D1*
X458719Y1881726D2*
X1764425D1*
X2522993D2*
X4053692D1*
X458719Y1856857D2*
X1483164D1*
X1654236D2*
X1740454D1*
X2547860D2*
X4053692D1*
X458719Y1831988D2*
X1483164D1*
X1654236D2*
X1729115D1*
X2572728D2*
X4053692D1*
X458719Y1807120D2*
X1483164D1*
X1654236D2*
X1727715D1*
X2596771D2*
X3612999D1*
X3824404D2*
X4053692D1*
X458719Y1782251D2*
X1393023D1*
X1654236D2*
X1727715D1*
X1953439D2*
X2437863D1*
X2608253D2*
X3564950D1*
X3872453D2*
X4053692D1*
X458719Y1757382D2*
X1340166D1*
X1654236D2*
X1727715D1*
X1945867D2*
X2358164D1*
X2609689D2*
X3540082D1*
X3897321D2*
X4053692D1*
X458719Y1732513D2*
X1315226D1*
X1654236D2*
X1715228D1*
X2619593D2*
X3058157D1*
X3299311D2*
X3312361D1*
X3425049D2*
X3515214D1*
X3922189D2*
X4053692D1*
X458719Y1707645D2*
X1290359D1*
X1653052D2*
X1690360D1*
X2628062D2*
X3058157D1*
X3445073D2*
X3491028D1*
X3947057D2*
X4053692D1*
X458719Y1682776D2*
X1266137D1*
X1653519D2*
X1665501D1*
X2628492D2*
X3058157D1*
X3453505D2*
X3479294D1*
X3971924D2*
X4053692D1*
X458719Y1657907D2*
X1254295D1*
X2621100D2*
X3058157D1*
X3454008D2*
X3477715D1*
X3996146D2*
X4053692D1*
X458719Y1633038D2*
X1252716D1*
X2602907D2*
X3058157D1*
X3446687D2*
X3477715D1*
X4008060D2*
X4053692D1*
X458719Y1608170D2*
X1252716D1*
X1384710D2*
X1393023D1*
X1952972D2*
X2436930D1*
X2621531D2*
X3058157D1*
X3428710D2*
X3477715D1*
X3828711D2*
X3861927D1*
X4009710D2*
X4053692D1*
X458719Y1583301D2*
X1185972D1*
X1384710D2*
X1393023D1*
X1953582D2*
X2461798D1*
X2646398D2*
X3177688D1*
X3688296D2*
X3877716D1*
X4009710D2*
X4053692D1*
X458719Y1558432D2*
X1166056D1*
X1384710D2*
X1393023D1*
X1946370D2*
X2336132D1*
X2451296D2*
X2486666D1*
X2671266D2*
X2706205D1*
X3031184D2*
X3063468D1*
X3688296D2*
X3877716D1*
X4009710D2*
X4053692D1*
X458719Y1533563D2*
X1157515D1*
X1384710D2*
X1393023D1*
X1944037D2*
X2316144D1*
X2471284D2*
X2511533D1*
X2696134D2*
X2706205D1*
X3688296D2*
X3877716D1*
X4009710D2*
X4053692D1*
X458719Y1508694D2*
X1156798D1*
X1384710D2*
X1393023D1*
X1775992D2*
X1784542D1*
X1952865D2*
X2307532D1*
X2479860D2*
X2536401D1*
X3688296D2*
X3877716D1*
X4009710D2*
X4053692D1*
X458719Y1483826D2*
X707994D1*
X1046358D2*
X1156188D1*
X1383921D2*
X1393023D1*
X1751124D2*
X1783766D1*
X1953654D2*
X2306778D1*
X2480613D2*
X2561269D1*
X3688296D2*
X3877716D1*
X4009710D2*
X4053692D1*
X458719Y1458957D2*
X707994D1*
X1374340D2*
X1393023D1*
X1734689D2*
X1790800D1*
X1946621D2*
X2089105D1*
X2198313D2*
X2313632D1*
X2473760D2*
X2586137D1*
X3688296D2*
X3781188D1*
X4009710D2*
X4053692D1*
X458719Y1434088D2*
X707994D1*
X1351374D2*
X1393023D1*
X1756183D2*
X1808419D1*
X1929002D2*
X2068113D1*
X2219269D2*
X2327699D1*
X2459693D2*
X2611004D1*
X3688296D2*
X3781188D1*
X4009710D2*
X4053692D1*
X458719Y1409219D2*
X707994D1*
X1331207D2*
X1491490D1*
X1756183D2*
X2059142D1*
X2538279D2*
X2627691D1*
X3688296D2*
X3781188D1*
X4009710D2*
X4053692D1*
X458719Y1384351D2*
X707994D1*
X1331207D2*
X1482662D1*
X1756183D2*
X2058209D1*
X4009710D2*
X4053692D1*
X458719Y1359482D2*
X508191D1*
X679227D2*
X707994D1*
X1331207D2*
X1481693D1*
X1756183D2*
X2065027D1*
X4009710D2*
X4053692D1*
X458719Y1334613D2*
X508191D1*
X918431D2*
X1156188D1*
X1756183D2*
X2078340D1*
X4009710D2*
X4053692D1*
X458719Y1309744D2*
X508191D1*
X927653D2*
X1159740D1*
X1756183D2*
X2087526D1*
X2859694D2*
X3506674D1*
X4009710D2*
X4053692D1*
X458719Y1284876D2*
X508191D1*
X928766D2*
X1158628D1*
X1756183D2*
X2110241D1*
X2859694D2*
X3513241D1*
X3781200D2*
X3792563D1*
X4009710D2*
X4053692D1*
X458719Y1260007D2*
X508191D1*
X922091D2*
X1165302D1*
X1702321D2*
X1888010D1*
X1999371D2*
X2135108D1*
X2859694D2*
X3308162D1*
X3479234D2*
X3529711D1*
X4009710D2*
X4053692D1*
X458719Y1235138D2*
X508191D1*
X918144D2*
X1169250D1*
X1670743D2*
X1866982D1*
X2020399D2*
X2159976D1*
X2559702D2*
X2575659D1*
X2859694D2*
X3308162D1*
X3479234D2*
X3575643D1*
X4009710D2*
X4053692D1*
X458719Y1210269D2*
X509842D1*
X927546D2*
X1159848D1*
X1631199D2*
X1857831D1*
X2029549D2*
X2218001D1*
X2559702D2*
X2609856D1*
X2859694D2*
X3308162D1*
X3479234D2*
X3609841D1*
X4009710D2*
X4053692D1*
X458719Y1185400D2*
X508586D1*
X928802D2*
X1158592D1*
X1631199D2*
X1856611D1*
X2030805D2*
X2218001D1*
X2559702D2*
X2608600D1*
X2859156D2*
X3308162D1*
X3479234D2*
X3608585D1*
X4009710D2*
X4053692D1*
X458719Y1160532D2*
X515081D1*
X922307D2*
X1165087D1*
X1631199D2*
X1862927D1*
X2024454D2*
X2218001D1*
X2559702D2*
X2615095D1*
X2850364D2*
X2888676D1*
X2998709D2*
X3066159D1*
X3171276D2*
X3191144D1*
X3296261D2*
X3308162D1*
X3479234D2*
X3615080D1*
X3852825D2*
X3877716D1*
X4009710D2*
X4053692D1*
X458719Y1135663D2*
X519566D1*
X917857D2*
X1169573D1*
X1631199D2*
X1877711D1*
X2009705D2*
X2218001D1*
X2559702D2*
X2619545D1*
X2827972D2*
X2867289D1*
X3494055D2*
X3619565D1*
X3827957D2*
X3877716D1*
X4009710D2*
X4053692D1*
X458719Y1110794D2*
X509949D1*
X927438D2*
X1159956D1*
X1631199D2*
X1877711D1*
X2009705D2*
X2218001D1*
X2568924D2*
X2609964D1*
X2803105D2*
X2857924D1*
X3518922D2*
X3609948D1*
X3803089D2*
X3877716D1*
X4009710D2*
X4053692D1*
X458719Y1085925D2*
X508550D1*
X928874D2*
X1158556D1*
X1469397D2*
X1877711D1*
X2018784D2*
X2218001D1*
X2593792D2*
X2608528D1*
X2778847D2*
X2856560D1*
X3543790D2*
X3608549D1*
X3778867D2*
X3877716D1*
X4009710D2*
X4053692D1*
X458719Y1061057D2*
X514866D1*
X922558D2*
X1164872D1*
X1469397D2*
X1877783D1*
X2043652D2*
X2091868D1*
X2845556D2*
X2862732D1*
X3568658D2*
X3614865D1*
X3772552D2*
X3814345D1*
X4009710D2*
X4053692D1*
X458719Y1036188D2*
X519853D1*
X917534D2*
X1169860D1*
X1469397D2*
X1878034D1*
X2868091D2*
X2878620D1*
X4009710D2*
X4053692D1*
X458719Y1011319D2*
X510057D1*
X677325D2*
X760062D1*
X927331D2*
X1160063D1*
X1469397D2*
X1878249D1*
X2877815D2*
X2920290D1*
X2967131D2*
X3034581D1*
X4009710D2*
X4053692D1*
X458719Y986450D2*
X508478D1*
X678904D2*
X758483D1*
X928909D2*
X1158484D1*
X1469397D2*
X1878501D1*
X2478927D2*
X2508663D1*
X2879394D2*
X3033002D1*
X4009710D2*
X4053692D1*
X458719Y961582D2*
X514650D1*
X672768D2*
X764655D1*
X922773D2*
X1164621D1*
X1469397D2*
X1878752D1*
X2472755D2*
X2533530D1*
X2873294D2*
X3039139D1*
X3472775D2*
X3483530D1*
X4009316D2*
X4053692D1*
X458719Y936713D2*
X530834D1*
X656584D2*
X780803D1*
X906589D2*
X1180804D1*
X1469397D2*
X1581200D1*
X1756183D2*
X1863967D1*
X2467229D2*
X2558398D1*
X2859694D2*
X3055179D1*
X3467213D2*
X3513205D1*
X4001062D2*
X4053692D1*
X458719Y911844D2*
X577304D1*
X610078D2*
X827309D1*
X860084D2*
X1227310D1*
X1260085D2*
X1581200D1*
X2477204D2*
X2583266D1*
X2859694D2*
X3099711D1*
X3137689D2*
X3224732D1*
X3262673D2*
X3310172D1*
X3477225D2*
X3610164D1*
X3979137D2*
X4053692D1*
X458719Y886975D2*
X1581200D1*
X2478963D2*
X2608134D1*
X2869383D2*
X3308450D1*
X3478947D2*
X3608441D1*
X3954269D2*
X4053692D1*
X458719Y862107D2*
X1581200D1*
X2472970D2*
X2614413D1*
X2869383D2*
X3314406D1*
X3472991D2*
X3614434D1*
X3929402D2*
X4053692D1*
X458719Y837238D2*
X1581200D1*
X1949097D2*
X1987230D1*
X2581197D2*
X2627691D1*
X2869383D2*
X3327683D1*
X3581181D2*
X3630331D1*
X3900264D2*
X4053692D1*
X458719Y812369D2*
X1581200D1*
X1920067D2*
X2002552D1*
X2300511D2*
X2318297D1*
X2581197D2*
X2627691D1*
X2869383D2*
X3318282D1*
X3581181D2*
X3674504D1*
X3712912D2*
X4053692D1*
X458719Y787500D2*
X1581200D1*
X1756183D2*
X1995124D1*
X2142297D2*
X2308321D1*
X2581197D2*
X2627691D1*
X2869383D2*
X3308306D1*
X3581181D2*
X4053692D1*
X458719Y762631D2*
X1584860D1*
X1752523D2*
X1984861D1*
X2152524D2*
X2306419D1*
X2581197D2*
X2627691D1*
X2869383D2*
X3306404D1*
X3581181D2*
X4053692D1*
X458719Y737763D2*
X1582923D1*
X1754497D2*
X1982924D1*
X2154498D2*
X2312053D1*
X2581197D2*
X2627691D1*
X2759685D2*
X3312038D1*
X3581181D2*
X4053692D1*
X458719Y712894D2*
X1588592D1*
X1748827D2*
X1988593D1*
X2148792D2*
X2327089D1*
X2581197D2*
X2627691D1*
X2766826D2*
X3327109D1*
X3581181D2*
X4053692D1*
X458719Y688025D2*
X1603987D1*
X1733433D2*
X2003988D1*
X2133434D2*
X2364444D1*
X2581197D2*
X2627942D1*
X2791693D2*
X3364465D1*
X3581181D2*
X4053692D1*
X458719Y663156D2*
X1644177D1*
X1693207D2*
X2044178D1*
X2093208D2*
X2194856D1*
X2292544D2*
X2342196D1*
X2445196D2*
X2635513D1*
X2881189D2*
X3069856D1*
X3167544D2*
X3194840D1*
X3292565D2*
X4053692D1*
X458719Y638288D2*
X2170598D1*
X2468556D2*
X2656829D1*
X2881189D2*
X3045598D1*
X3316787D2*
X4053692D1*
X458719Y613419D2*
X2160048D1*
X2478891D2*
X2681696D1*
X2881189D2*
X3035048D1*
X3327337D2*
X4053692D1*
X458719Y588550D2*
X2157859D1*
X2481044D2*
X2706205D1*
X2881189D2*
X3032859D1*
X3329526D2*
X4053692D1*
X458719Y563681D2*
X2163277D1*
X2475733D2*
X2706205D1*
X2881189D2*
X3038277D1*
X3324107D2*
X4053692D1*
X458719Y538813D2*
X2178277D1*
X2309123D2*
X2326299D1*
X2461092D2*
X2706205D1*
X2881189D2*
X3053277D1*
X3309143D2*
X4053692D1*
X458719Y513944D2*
X2216494D1*
X2270906D2*
X2361825D1*
X2425567D2*
X2706205D1*
X2881189D2*
X3091494D1*
X3145906D2*
X3216478D1*
X3270927D2*
X4053692D1*
X458719Y489075D2*
X4053692D1*
X458719Y464206D2*
X4053692D1*
X2028435Y1187032D2*
X2027651Y1180405D1*
X2026349Y1173859D1*
X2024537Y1167436D1*
X2022227Y1161174D1*
X2019433Y1155114D1*
X2016172Y1149291D1*
X2012464Y1143742D1*
X2007218Y1137294D1*
X2007201Y1094984D1*
X2045009Y1057196D1*
X2089500Y1057201D1*
X2094621Y1061254D1*
X2100072Y1064896D1*
X2105793Y1068100D1*
X2111747Y1070845D1*
X2117898Y1073114D1*
X2124208Y1074894D1*
X2130639Y1076173D1*
X2137150Y1076944D1*
X2143701Y1077201D1*
X2150252Y1076944D1*
X2156763Y1076173D1*
X2163194Y1074894D1*
X2169504Y1073114D1*
X2175655Y1070845D1*
X2181609Y1068100D1*
X2187330Y1064896D1*
X2193686Y1060540D1*
X2200072Y1064896D1*
X2205793Y1068100D1*
X2211747Y1070845D1*
X2220536Y1073858D1*
X2220516Y1213246D1*
X2205648Y1213467D1*
X2195806Y1215026D1*
X2186330Y1218105D1*
X2177451Y1222629D1*
X2169390Y1228486D1*
X2152737Y1244862D1*
X2095415Y1302461D1*
X2089558Y1310522D1*
X2085035Y1319401D1*
X2081955Y1328877D1*
X2080396Y1338738D1*
X2080207Y1339472D1*
X2076148Y1344621D1*
X2072506Y1350072D1*
X2069302Y1355793D1*
X2066557Y1361747D1*
X2064288Y1367898D1*
X2062508Y1374208D1*
X2061229Y1380639D1*
X2060458Y1387150D1*
X2060201Y1393701D1*
X2060458Y1400252D1*
X2061229Y1406763D1*
X2062508Y1413194D1*
X2064288Y1419504D1*
X2066557Y1425655D1*
X2069302Y1431609D1*
X2072506Y1437330D1*
X2076148Y1442781D1*
X2080207Y1447930D1*
X2084658Y1452744D1*
X2089472Y1457195D1*
X2094621Y1461254D1*
X2100072Y1464896D1*
X2105793Y1468100D1*
X2111747Y1470845D1*
X2117898Y1473114D1*
X2124208Y1474894D1*
X2130639Y1476173D1*
X2137150Y1476944D1*
X2143701Y1477201D1*
X2150252Y1476944D1*
X2156763Y1476173D1*
X2163194Y1474894D1*
X2169504Y1473114D1*
X2175655Y1470845D1*
X2181609Y1468100D1*
X2187330Y1464896D1*
X2192781Y1461254D1*
X2197930Y1457195D1*
X2202744Y1452744D1*
X2207195Y1447930D1*
X2211254Y1442781D1*
X2214896Y1437330D1*
X2218100Y1431609D1*
X2220845Y1425655D1*
X2223302Y1418838D1*
X2330214Y1418854D1*
X2330201Y1437179D1*
X2324938Y1443742D1*
X2321230Y1449291D1*
X2317969Y1455114D1*
X2315175Y1461174D1*
X2312865Y1467436D1*
X2311053Y1473859D1*
X2309751Y1480405D1*
X2308967Y1487032D1*
X2308705Y1493701D1*
X2308967Y1500370D1*
X2309751Y1506997D1*
X2311053Y1513543D1*
X2312865Y1519966D1*
X2315175Y1526228D1*
X2317969Y1532288D1*
X2321230Y1538111D1*
X2324938Y1543660D1*
X2329069Y1548902D1*
X2333600Y1553802D1*
X2338500Y1558333D1*
X2343742Y1562464D1*
X2349291Y1566172D1*
X2355114Y1569433D1*
X2361174Y1572227D1*
X2367436Y1574537D1*
X2373859Y1576349D1*
X2380405Y1577651D1*
X2387032Y1578435D1*
X2393701Y1578697D1*
X2400370Y1578435D1*
X2406997Y1577651D1*
X2413543Y1576349D1*
X2419966Y1574537D1*
X2426228Y1572227D1*
X2432288Y1569433D1*
X2438111Y1566172D1*
X2443660Y1562464D1*
X2448902Y1558333D1*
X2453802Y1553802D1*
X2458333Y1548902D1*
X2462464Y1543660D1*
X2466172Y1538111D1*
X2469433Y1532288D1*
X2472227Y1526228D1*
X2474537Y1519966D1*
X2476349Y1513543D1*
X2477651Y1506997D1*
X2478435Y1500370D1*
X2478697Y1493701D1*
X2478435Y1487032D1*
X2477651Y1480405D1*
X2476349Y1473859D1*
X2474537Y1467436D1*
X2472227Y1461174D1*
X2469433Y1455114D1*
X2466172Y1449291D1*
X2462464Y1443742D1*
X2457218Y1437294D1*
X2457201Y1416873D1*
X2535784Y1416886D1*
Y1380894D1*
X2542358Y1386437D1*
X2549964Y1391581D1*
X2558081Y1395873D1*
X2566613Y1399265D1*
X2575462Y1401717D1*
X2584523Y1403200D1*
X2593691Y1403697D1*
X2602860Y1403202D1*
X2608705Y1402359D1*
Y1403697D1*
X2630200D1*
X2630201Y1417418D1*
X2436902Y1610697D1*
X2360674Y1610673D1*
Y1630230D1*
X1943296Y1630201D1*
X1946616Y1622386D1*
X1949307Y1613608D1*
X1951012Y1604586D1*
X1951711Y1595431D1*
X1951404Y1586362D1*
X1950087Y1577275D1*
X1947776Y1568389D1*
X1944498Y1559812D1*
X1940292Y1551650D1*
X1934980Y1543700D1*
X1939494Y1537083D1*
X1942679Y1531395D1*
X1945408Y1525474D1*
X1947665Y1519358D1*
X1949435Y1513083D1*
X1950706Y1506689D1*
X1951473Y1500215D1*
X1951729Y1493701D1*
X1951473Y1487187D1*
X1950706Y1480713D1*
X1949435Y1474319D1*
X1947665Y1468044D1*
X1945408Y1461928D1*
X1942679Y1456007D1*
X1939494Y1450319D1*
X1935872Y1444899D1*
X1931836Y1439779D1*
X1927410Y1434992D1*
X1922623Y1430566D1*
X1917503Y1426530D1*
X1912083Y1422908D1*
X1906395Y1419723D1*
X1900474Y1416994D1*
X1894358Y1414737D1*
X1888083Y1412967D1*
X1881689Y1411696D1*
X1875215Y1410929D1*
X1868701Y1410673D1*
X1862187Y1410929D1*
X1855713Y1411696D1*
X1849319Y1412967D1*
X1843044Y1414737D1*
X1836928Y1416994D1*
X1831007Y1419723D1*
X1825319Y1422908D1*
X1819899Y1426530D1*
X1814779Y1430566D1*
X1809992Y1434992D1*
X1805566Y1439779D1*
X1801530Y1444899D1*
X1797908Y1450319D1*
X1794723Y1456007D1*
X1791994Y1461928D1*
X1789737Y1468044D1*
X1787967Y1474319D1*
X1786696Y1480713D1*
X1785929Y1487187D1*
X1785673Y1493701D1*
X1785929Y1500215D1*
X1786696Y1506689D1*
X1787967Y1513083D1*
X1789737Y1519358D1*
X1793454Y1528643D1*
X1732204Y1467401D1*
X1732201Y1453690D1*
X1753697Y1453697D1*
Y1283705D1*
X1721653D1*
X1716987Y1277461D1*
X1700611Y1260808D1*
X1684941Y1245415D1*
X1676880Y1239558D1*
X1668001Y1235035D1*
X1658525Y1231955D1*
X1648683Y1230397D1*
X1628666Y1230201D1*
X1628697Y1108705D1*
X1466895D1*
X1466886Y918547D1*
X1320516D1*
Y930210D1*
X1297208Y930201D1*
X1287083Y922908D1*
X1281395Y919723D1*
X1275474Y916994D1*
X1269358Y914737D1*
X1263083Y912967D1*
X1256689Y911696D1*
X1250215Y910929D1*
X1243701Y910673D1*
X1237187Y910929D1*
X1230713Y911696D1*
X1224319Y912967D1*
X1218044Y914737D1*
X1211928Y916994D1*
X1206007Y919723D1*
X1200319Y922908D1*
X1194899Y926530D1*
X1189779Y930566D1*
X1184992Y934992D1*
X1180566Y939779D1*
X1176530Y944899D1*
X1172908Y950319D1*
X1169723Y956007D1*
X1166994Y961928D1*
X1164737Y968044D1*
X1162967Y974319D1*
X1161696Y980713D1*
X1160929Y987187D1*
X1160673Y993701D1*
X1160929Y1000215D1*
X1161696Y1006689D1*
X1162967Y1013083D1*
X1164737Y1019358D1*
X1166994Y1025474D1*
X1169723Y1031395D1*
X1172908Y1037083D1*
X1177460Y1043683D1*
X1172908Y1050319D1*
X1169723Y1056007D1*
X1166994Y1061928D1*
X1164737Y1068044D1*
X1162967Y1074319D1*
X1161696Y1080713D1*
X1160929Y1087187D1*
X1160673Y1093701D1*
X1160929Y1100215D1*
X1161696Y1106689D1*
X1162967Y1113083D1*
X1164737Y1119358D1*
X1166994Y1125474D1*
X1169723Y1131395D1*
X1172908Y1137083D1*
X1177460Y1143683D1*
X1172908Y1150319D1*
X1169723Y1156007D1*
X1166994Y1161928D1*
X1164737Y1168044D1*
X1162967Y1174319D1*
X1161696Y1180713D1*
X1160929Y1187187D1*
X1160673Y1193701D1*
X1160929Y1200215D1*
X1161696Y1206689D1*
X1162967Y1213083D1*
X1164737Y1219358D1*
X1166994Y1225474D1*
X1169723Y1231395D1*
X1172908Y1237083D1*
X1177460Y1243683D1*
X1172908Y1250319D1*
X1169723Y1256007D1*
X1166994Y1261928D1*
X1164737Y1268044D1*
X1162967Y1274319D1*
X1161696Y1280713D1*
X1160929Y1287187D1*
X1160673Y1293701D1*
X1160929Y1300215D1*
X1161696Y1306689D1*
X1162967Y1313083D1*
X1164737Y1319358D1*
X1166994Y1325474D1*
X1171005Y1333683D1*
X1158705Y1333705D1*
Y1355200D1*
X1043858Y1355201D1*
X1043855Y1345516D1*
X908566D1*
X914494Y1337083D1*
X917679Y1331395D1*
X920408Y1325474D1*
X922665Y1319358D1*
X924435Y1313083D1*
X925706Y1306689D1*
X926473Y1300215D1*
X926729Y1293701D1*
X926473Y1287187D1*
X925706Y1280713D1*
X924435Y1274319D1*
X922665Y1268044D1*
X920408Y1261928D1*
X917679Y1256007D1*
X914494Y1250319D1*
X909942Y1243719D1*
X914494Y1237083D1*
X917679Y1231395D1*
X920408Y1225474D1*
X922665Y1219358D1*
X924435Y1213083D1*
X925706Y1206689D1*
X926473Y1200215D1*
X926729Y1193701D1*
X926473Y1187187D1*
X925706Y1180713D1*
X924435Y1174319D1*
X922665Y1168044D1*
X920408Y1161928D1*
X917679Y1156007D1*
X914494Y1150319D1*
X909942Y1143719D1*
X914494Y1137083D1*
X917679Y1131395D1*
X920408Y1125474D1*
X922665Y1119358D1*
X924435Y1113083D1*
X925706Y1106689D1*
X926473Y1100215D1*
X926729Y1093701D1*
X926473Y1087187D1*
X925706Y1080713D1*
X924435Y1074319D1*
X922665Y1068044D1*
X920408Y1061928D1*
X917679Y1056007D1*
X914494Y1050319D1*
X909942Y1043719D1*
X914401Y1037234D1*
X918775Y1029162D1*
X922231Y1020655D1*
X924728Y1011819D1*
X926233Y1002762D1*
X926729Y993701D1*
X926221Y984533D1*
X924704Y975478D1*
X922197Y966645D1*
X918729Y958143D1*
X914344Y950076D1*
X909095Y942543D1*
X903047Y935635D1*
X896273Y929437D1*
X888855Y924026D1*
X880886Y919466D1*
X872462Y915814D1*
X863686Y913115D1*
X854666Y911401D1*
X845511Y910693D1*
X836335Y911001D1*
X827248Y912320D1*
X818363Y914634D1*
X809788Y917915D1*
X801627Y922123D1*
X793981Y927207D1*
X786943Y933103D1*
X780599Y939741D1*
X775027Y947038D1*
X770294Y954906D1*
X766460Y963249D1*
X763569Y971964D1*
X761659Y980944D1*
X760752Y990081D1*
X760860Y999262D1*
X761980Y1008375D1*
X764100Y1017309D1*
X767194Y1025954D1*
X769133Y1030203D1*
X668263Y1030201D1*
X671616Y1022386D1*
X674307Y1013608D1*
X676012Y1004586D1*
X676711Y995431D1*
X676404Y986362D1*
X675087Y977275D1*
X672776Y968389D1*
X669498Y959812D1*
X665292Y951650D1*
X660211Y944003D1*
X654317Y936963D1*
X647682Y930616D1*
X640386Y925042D1*
X632519Y920307D1*
X624178Y916469D1*
X615464Y913576D1*
X606484Y911663D1*
X597348Y910754D1*
X588166Y910858D1*
X579053Y911976D1*
X570119Y914093D1*
X561473Y917183D1*
X553221Y921210D1*
X545465Y926123D1*
X538298Y931862D1*
X531808Y938358D1*
X526076Y945530D1*
X521171Y953291D1*
X517152Y961547D1*
X514070Y970196D1*
X511962Y979132D1*
X510853Y988247D1*
X510757Y997428D1*
X511676Y1006563D1*
X513598Y1015542D1*
X516499Y1024253D1*
X520344Y1032591D1*
X525087Y1040453D1*
X527419Y1043699D1*
X522908Y1050319D1*
X519723Y1056007D1*
X516994Y1061928D1*
X514737Y1068044D1*
X512967Y1074319D1*
X511696Y1080713D1*
X510929Y1087187D1*
X510673Y1093701D1*
X510929Y1100215D1*
X511696Y1106689D1*
X512967Y1113083D1*
X514737Y1119358D1*
X516994Y1125474D1*
X519723Y1131395D1*
X522908Y1137083D1*
X527460Y1143683D1*
X522908Y1150319D1*
X519723Y1156007D1*
X516994Y1161928D1*
X514737Y1168044D1*
X512967Y1174319D1*
X511696Y1180713D1*
X510929Y1187187D1*
X510673Y1193701D1*
X510929Y1200215D1*
X512486Y1210661D1*
X510674Y1210673D1*
Y1376728D1*
X676729D1*
Y1357171D1*
X710504Y1357201D1*
X710477Y1491886D1*
X1043855D1*
Y1482233D1*
X1158687Y1482201D1*
X1158705Y1503697D1*
X1160033D1*
X1158926Y1512576D1*
X1158760Y1521756D1*
X1159585Y1530901D1*
X1161392Y1539903D1*
X1164159Y1548658D1*
X1167855Y1557063D1*
X1172435Y1565021D1*
X1177848Y1572438D1*
X1184029Y1579228D1*
X1190906Y1585312D1*
X1198399Y1590618D1*
X1206421Y1595085D1*
X1214878Y1598661D1*
X1223672Y1601303D1*
X1232699Y1602982D1*
X1241854Y1603677D1*
X1251031Y1603380D1*
X1255203Y1602911D1*
X1255397Y1648683D1*
X1256955Y1658525D1*
X1260035Y1668001D1*
X1264558Y1676880D1*
X1270415Y1684941D1*
X1286791Y1701594D1*
X1344390Y1758916D1*
X1352451Y1764773D1*
X1361330Y1769297D1*
X1370806Y1772376D1*
X1380648Y1773934D1*
X1395498Y1774130D1*
X1395516Y1785783D1*
X1485693D1*
X1485674Y1876728D1*
X1651729D1*
Y1710673D1*
X1649971D1*
X1651233Y1702762D1*
X1651729Y1693701D1*
X1651221Y1684533D1*
X1649704Y1675478D1*
X1647197Y1666645D1*
X1644062Y1658867D1*
X1730217Y1745019D1*
X1730397Y1823683D1*
X1731955Y1833525D1*
X1735035Y1843001D1*
X1739558Y1851880D1*
X1745415Y1859941D1*
X1761791Y1876594D1*
X1802461Y1916987D1*
X1810522Y1922844D1*
X1819401Y1927367D1*
X1828877Y1930447D1*
X1838719Y1932005D1*
X1862074Y1932201D1*
X2448683Y1932005D1*
X2458525Y1930447D1*
X2468001Y1927367D1*
X2476880Y1922844D1*
X2484941Y1916987D1*
X2501594Y1900611D1*
X2591987Y1809941D1*
X2597844Y1801880D1*
X2602367Y1793001D1*
X2605447Y1783525D1*
X2607005Y1773683D1*
X2607201Y1747206D1*
X2614494Y1737083D1*
X2617679Y1731395D1*
X2620408Y1725474D1*
X2622665Y1719358D1*
X2624435Y1713083D1*
X2625706Y1706689D1*
X2626473Y1700215D1*
X2626729Y1693701D1*
X2626473Y1687187D1*
X2625706Y1680713D1*
X2624435Y1674319D1*
X2622665Y1668044D1*
X2620408Y1661928D1*
X2617679Y1656007D1*
X2614494Y1650319D1*
X2610872Y1644899D1*
X2606836Y1639779D1*
X2602410Y1634992D1*
X2597083Y1630141D1*
X2708721Y1518483D1*
X2708705Y1578697D1*
X3028697D1*
Y1557202D1*
X3064451Y1557201D1*
X3069621Y1561254D1*
X3075072Y1564896D1*
X3080793Y1568100D1*
X3086747Y1570845D1*
X3092898Y1573114D1*
X3099208Y1574894D1*
X3105639Y1576173D1*
X3112150Y1576944D1*
X3118701Y1577201D1*
X3125252Y1576944D1*
X3131763Y1576173D1*
X3138194Y1574894D1*
X3144504Y1573114D1*
X3150655Y1570845D1*
X3156609Y1568100D1*
X3162330Y1564896D1*
X3167781Y1561254D1*
X3172930Y1557195D1*
X3180196Y1550093D1*
X3180201Y1585672D1*
X3060674Y1585673D1*
Y1751728D1*
X3226729D1*
Y1749970D1*
X3237187Y1751473D1*
X3243701Y1751729D1*
X3250215Y1751473D1*
X3256689Y1750706D1*
X3263083Y1749435D1*
X3269358Y1747665D1*
X3275474Y1745408D1*
X3281395Y1742679D1*
X3287083Y1739494D1*
X3292503Y1735872D1*
X3297163Y1732198D1*
X3314500Y1732201D1*
X3319621Y1736254D1*
X3325072Y1739896D1*
X3330793Y1743100D1*
X3336747Y1745845D1*
X3342898Y1748114D1*
X3349208Y1749894D1*
X3355639Y1751173D1*
X3362150Y1751944D1*
X3368701Y1752201D1*
X3375252Y1751944D1*
X3381763Y1751173D1*
X3388194Y1749894D1*
X3394504Y1748114D1*
X3400655Y1745845D1*
X3406609Y1743100D1*
X3412330Y1739896D1*
X3417781Y1736254D1*
X3422930Y1732195D1*
X3427744Y1727744D1*
X3432195Y1722930D1*
X3436254Y1717781D1*
X3439896Y1712330D1*
X3443100Y1706609D1*
X3445845Y1700655D1*
X3448114Y1694504D1*
X3449894Y1688194D1*
X3451173Y1681763D1*
X3451944Y1675252D1*
X3452201Y1668701D1*
X3451944Y1662150D1*
X3451173Y1655639D1*
X3449894Y1649208D1*
X3448114Y1642898D1*
X3445845Y1636747D1*
X3443100Y1630793D1*
X3439896Y1625072D1*
X3436254Y1619621D1*
X3432195Y1614472D1*
X3427744Y1609658D1*
X3422930Y1605207D1*
X3417781Y1601148D1*
X3412330Y1597506D1*
X3406609Y1594302D1*
X3401376Y1591889D1*
X3480222Y1591886D1*
X3480201Y1668701D1*
X3480983Y1678635D1*
X3483309Y1688324D1*
X3487122Y1697529D1*
X3492328Y1706025D1*
X3498800Y1713602D1*
X3577461Y1791987D1*
X3585522Y1797844D1*
X3594401Y1802367D1*
X3603877Y1805447D1*
X3613719Y1807005D1*
X3637074Y1807201D1*
X3823683Y1807005D1*
X3833525Y1805447D1*
X3843001Y1802367D1*
X3851880Y1797844D1*
X3859941Y1791987D1*
X3876594Y1775611D1*
X3991987Y1659941D1*
X3997844Y1651880D1*
X4002367Y1643001D1*
X4005447Y1633525D1*
X4007005Y1623683D1*
X4007201Y1600328D1*
X4007005Y963719D1*
X4005447Y953877D1*
X4002367Y944401D1*
X3997844Y935522D1*
X3991987Y927461D1*
X3975611Y910808D1*
X3909941Y845415D1*
X3901880Y839558D1*
X3893001Y835035D1*
X3883525Y831955D1*
X3873683Y830397D1*
X3850328Y830201D1*
X3747161D1*
X3742503Y826530D1*
X3737083Y822908D1*
X3731395Y819723D1*
X3725474Y816994D1*
X3719358Y814737D1*
X3713083Y812967D1*
X3706689Y811696D1*
X3700215Y810929D1*
X3693701Y810673D1*
X3687187Y810929D1*
X3680713Y811696D1*
X3674319Y812967D1*
X3668044Y814737D1*
X3661928Y816994D1*
X3656007Y819723D1*
X3650319Y822908D1*
X3644899Y826530D1*
X3639779Y830566D1*
X3634992Y834992D1*
X3630566Y839779D1*
X3626530Y844899D1*
X3622908Y850319D1*
X3619723Y856007D1*
X3616994Y861928D1*
X3614737Y868044D1*
X3612967Y874319D1*
X3611696Y880713D1*
X3610929Y887187D1*
X3610673Y893701D1*
X3610929Y900215D1*
X3611696Y906689D1*
X3612967Y913083D1*
X3614737Y919358D1*
X3619179Y930215D1*
X3538719Y930397D1*
X3528877Y931955D1*
X3519401Y935035D1*
X3510522Y939558D1*
X3502461Y945415D1*
X3485808Y961791D1*
X3474212Y973387D1*
X3470408Y961928D1*
X3467679Y956007D1*
X3464494Y950319D1*
X3459942Y943719D1*
X3464494Y937083D1*
X3467679Y931395D1*
X3470408Y925474D1*
X3472665Y919358D1*
X3474435Y913083D1*
X3475706Y906689D1*
X3476473Y900215D1*
X3476729Y893701D1*
X3476473Y887187D1*
X3475706Y880713D1*
X3474435Y874319D1*
X3472665Y868044D1*
X3470408Y861928D1*
X3466397Y853719D1*
X3578697Y853697D1*
Y683705D1*
X3408705D1*
Y685047D1*
X3400370Y683967D1*
X3393701Y683705D1*
X3387032Y683967D1*
X3380405Y684751D1*
X3373859Y686053D1*
X3367436Y687865D1*
X3361174Y690175D1*
X3355114Y692969D1*
X3349291Y696230D1*
X3343742Y699938D1*
X3338500Y704069D1*
X3333600Y708600D1*
X3329069Y713500D1*
X3324938Y718742D1*
X3321230Y724291D1*
X3317969Y730114D1*
X3315175Y736174D1*
X3312865Y742436D1*
X3311053Y748859D1*
X3309751Y755405D1*
X3308967Y762032D1*
X3308705Y768701D1*
X3308967Y775370D1*
X3309751Y781997D1*
X3311053Y788543D1*
X3312865Y794966D1*
X3315175Y801228D1*
X3317969Y807288D1*
X3321230Y813111D1*
X3324938Y818660D1*
X3330184Y825108D1*
X3330201Y840218D1*
X3326530Y844899D1*
X3322908Y850319D1*
X3319723Y856007D1*
X3316994Y861928D1*
X3314737Y868044D1*
X3312967Y874319D1*
X3311696Y880713D1*
X3310929Y887187D1*
X3310673Y893701D1*
X3310929Y900215D1*
X3311696Y906689D1*
X3312967Y913083D1*
X3314737Y919358D1*
X3319179Y930215D1*
X3297926Y930201D1*
X3292781Y926148D1*
X3287330Y922506D1*
X3281609Y919302D1*
X3275655Y916557D1*
X3269504Y914288D1*
X3263194Y912508D1*
X3256763Y911229D1*
X3250252Y910458D1*
X3243701Y910201D1*
X3237150Y910458D1*
X3230639Y911229D1*
X3224208Y912508D1*
X3217898Y914288D1*
X3211747Y916557D1*
X3205793Y919302D1*
X3200072Y922506D1*
X3194621Y926148D1*
X3189492Y930191D1*
X3172902Y930201D1*
X3167781Y926148D1*
X3162330Y922506D1*
X3156609Y919302D1*
X3150655Y916557D1*
X3144504Y914288D1*
X3138194Y912508D1*
X3131763Y911229D1*
X3125252Y910458D1*
X3118701Y910201D1*
X3112150Y910458D1*
X3105639Y911229D1*
X3099208Y912508D1*
X3092898Y914288D1*
X3086747Y916557D1*
X3080793Y919302D1*
X3075072Y922506D1*
X3069621Y926148D1*
X3064472Y930207D1*
X3059658Y934658D1*
X3055207Y939472D1*
X3051148Y944621D1*
X3047506Y950072D1*
X3044302Y955793D1*
X3041557Y961747D1*
X3039288Y967898D1*
X3037508Y974208D1*
X3036229Y980639D1*
X3035458Y987150D1*
X3035201Y993701D1*
X3035458Y1000252D1*
X3036229Y1006763D1*
X3037508Y1013194D1*
X3039288Y1019504D1*
X3043648Y1030190D1*
X3000176Y1030201D1*
X2993660Y1024938D1*
X2988111Y1021230D1*
X2982288Y1017969D1*
X2976228Y1015175D1*
X2969966Y1012865D1*
X2963543Y1011053D1*
X2956997Y1009751D1*
X2950370Y1008967D1*
X2943701Y1008705D1*
X2937032Y1008967D1*
X2930405Y1009751D1*
X2923859Y1011053D1*
X2917436Y1012865D1*
X2911174Y1015175D1*
X2905114Y1017969D1*
X2899291Y1021230D1*
X2893742Y1024938D1*
X2888500Y1029069D1*
X2883600Y1033600D1*
X2879069Y1038500D1*
X2874938Y1043742D1*
X2871230Y1049291D1*
X2867969Y1055114D1*
X2865175Y1061174D1*
X2862865Y1067436D1*
X2861053Y1073859D1*
X2859751Y1080405D1*
X2858967Y1087032D1*
X2858705Y1093701D1*
X2858967Y1100370D1*
X2859751Y1106997D1*
X2861053Y1113543D1*
X2862865Y1119966D1*
X2865175Y1126228D1*
X2867969Y1132288D1*
X2871230Y1138111D1*
X2874938Y1143660D1*
X2879069Y1148902D1*
X2883600Y1153802D1*
X2888500Y1158333D1*
X2893742Y1162464D1*
X2899291Y1166172D1*
X2905114Y1169433D1*
X2911174Y1172227D1*
X2917436Y1174537D1*
X2923859Y1176349D1*
X2930405Y1177651D1*
X2937032Y1178435D1*
X2943701Y1178697D1*
X2950370Y1178435D1*
X2956997Y1177651D1*
X2963543Y1176349D1*
X2969966Y1174537D1*
X2976228Y1172227D1*
X2982288Y1169433D1*
X2988111Y1166172D1*
X2993660Y1162464D1*
X3000108Y1157218D1*
X3064451Y1157201D1*
X3069621Y1161254D1*
X3075072Y1164896D1*
X3080793Y1168100D1*
X3086747Y1170845D1*
X3092898Y1173114D1*
X3099208Y1174894D1*
X3105639Y1176173D1*
X3112150Y1176944D1*
X3118701Y1177201D1*
X3125252Y1176944D1*
X3131763Y1176173D1*
X3138194Y1174894D1*
X3144504Y1173114D1*
X3150655Y1170845D1*
X3156609Y1168100D1*
X3162330Y1164896D1*
X3167781Y1161254D1*
X3172930Y1157195D1*
X3181169Y1149040D1*
X3189472Y1157195D1*
X3194621Y1161254D1*
X3200072Y1164896D1*
X3205793Y1168100D1*
X3211747Y1170845D1*
X3217898Y1173114D1*
X3224208Y1174894D1*
X3230639Y1176173D1*
X3237150Y1176944D1*
X3243701Y1177201D1*
X3250252Y1176944D1*
X3256763Y1176173D1*
X3263194Y1174894D1*
X3269504Y1173114D1*
X3275655Y1170845D1*
X3281609Y1168100D1*
X3287330Y1164896D1*
X3292781Y1161254D1*
X3297910Y1157211D1*
X3310697Y1157201D1*
X3310674Y1276728D1*
X3476729D1*
X3476880Y1147844D1*
X3484941Y1141987D1*
X3501594Y1125611D1*
X3570027Y1057177D1*
X3619094Y1057201D1*
X3614737Y1068044D1*
X3612967Y1074319D1*
X3611696Y1080713D1*
X3610929Y1087187D1*
X3610673Y1093701D1*
X3610929Y1100215D1*
X3611696Y1106689D1*
X3612967Y1113083D1*
X3614737Y1119358D1*
X3616994Y1125474D1*
X3619723Y1131395D1*
X3622908Y1137083D1*
X3627460Y1143683D1*
X3622908Y1150319D1*
X3619723Y1156007D1*
X3616994Y1161928D1*
X3614737Y1168044D1*
X3612967Y1174319D1*
X3611696Y1180713D1*
X3610929Y1187187D1*
X3610673Y1193701D1*
X3610929Y1200215D1*
X3611696Y1206689D1*
X3612967Y1213083D1*
X3614737Y1219358D1*
X3616994Y1225474D1*
X3621005Y1233683D1*
X3608705Y1233705D1*
Y1235033D1*
X3600434Y1233972D1*
X3591255Y1233740D1*
X3582104Y1234500D1*
X3573089Y1236242D1*
X3564315Y1238946D1*
X3555883Y1242582D1*
X3547893Y1247105D1*
X3540437Y1252464D1*
X3533603Y1258596D1*
X3527470Y1265430D1*
X3522110Y1272885D1*
X3517586Y1280875D1*
X3513950Y1289306D1*
X3511244Y1298080D1*
X3509501Y1307095D1*
X3508740Y1316245D1*
X3508618Y1320516D1*
X3185477D1*
X3118547D1*
Y1330169D1*
X2857215Y1330201D1*
X2857201Y1193701D1*
X2856419Y1183767D1*
X2854093Y1174078D1*
X2850280Y1164873D1*
X2845074Y1156377D1*
X2838602Y1148800D1*
X2776411Y1086608D1*
X2774569Y1074993D1*
X2780639Y1076173D1*
X2787150Y1076944D1*
X2793701Y1077201D1*
X2800252Y1076944D1*
X2806763Y1076173D1*
X2813194Y1074894D1*
X2819504Y1073114D1*
X2825655Y1070845D1*
X2831609Y1068100D1*
X2837330Y1064896D1*
X2842781Y1061254D1*
X2847930Y1057195D1*
X2852744Y1052744D1*
X2857195Y1047930D1*
X2861254Y1042781D1*
X2864896Y1037330D1*
X2868100Y1031609D1*
X2870845Y1025655D1*
X2873114Y1019504D1*
X2874894Y1013194D1*
X2876173Y1006763D1*
X2876944Y1000252D1*
X2877201Y993701D1*
X2876944Y987150D1*
X2876173Y980639D1*
X2874894Y974208D1*
X2873114Y967898D1*
X2870845Y961747D1*
X2868100Y955793D1*
X2864896Y950072D1*
X2861254Y944621D1*
X2857211Y939492D1*
X2857201Y910773D1*
X2866886Y910784D1*
Y760477D1*
X2757188D1*
X2757201Y719986D1*
X2798510Y678694D1*
X2878697Y678697D1*
Y508705D1*
X2708705D1*
Y588906D1*
X2645415Y652461D1*
X2639558Y660522D1*
X2635035Y669401D1*
X2631955Y678877D1*
X2630397Y688719D1*
X2630201Y712074D1*
Y840216D1*
X2626530Y844899D1*
X2622908Y850319D1*
X2619723Y856007D1*
X2616994Y861928D1*
X2614737Y868044D1*
X2612967Y874319D1*
X2611696Y880713D1*
X2610998Y886605D1*
X2469076Y1028523D1*
X2472665Y1019358D1*
X2474435Y1013083D1*
X2475706Y1006689D1*
X2476473Y1000215D1*
X2476729Y993701D1*
X2476473Y987187D1*
X2475706Y980713D1*
X2474435Y974319D1*
X2472665Y968044D1*
X2470408Y961928D1*
X2467679Y956007D1*
X2464494Y950319D1*
X2459942Y943719D1*
X2464494Y937083D1*
X2467679Y931395D1*
X2470408Y925474D1*
X2472665Y919358D1*
X2474435Y913083D1*
X2475706Y906689D1*
X2476473Y900215D1*
X2476729Y893701D1*
X2476473Y887187D1*
X2475706Y880713D1*
X2474435Y874319D1*
X2472665Y868044D1*
X2470408Y861928D1*
X2466397Y853719D1*
X2578697Y853697D1*
Y683705D1*
X2408705D1*
Y685047D1*
X2400370Y683967D1*
X2393701Y683705D1*
X2387032Y683967D1*
X2380405Y684751D1*
X2373859Y686053D1*
X2367436Y687865D1*
X2361174Y690175D1*
X2355114Y692969D1*
X2349291Y696230D1*
X2343742Y699938D1*
X2338500Y704069D1*
X2333600Y708600D1*
X2329069Y713500D1*
X2324938Y718742D1*
X2321230Y724291D1*
X2317969Y730114D1*
X2315175Y736174D1*
X2312865Y742436D1*
X2311053Y748859D1*
X2309751Y755405D1*
X2308967Y762032D1*
X2308705Y768701D1*
X2308967Y775370D1*
X2309751Y781997D1*
X2311053Y788543D1*
X2312865Y794966D1*
X2315175Y801228D1*
X2317969Y807288D1*
X2321230Y813111D1*
X2324938Y818660D1*
X2330184Y825108D1*
X2330201Y840218D1*
X2313602Y823800D1*
X2306025Y817328D1*
X2297529Y812122D1*
X2288324Y808309D1*
X2278635Y805983D1*
X2268701Y805201D1*
X2132233D1*
X2132201Y797902D1*
X2136254Y792781D1*
X2139896Y787330D1*
X2143100Y781609D1*
X2145845Y775655D1*
X2148114Y769504D1*
X2149894Y763194D1*
X2151173Y756763D1*
X2151944Y750252D1*
X2152201Y743701D1*
X2151944Y737150D1*
X2151173Y730639D1*
X2149894Y724208D1*
X2148114Y717898D1*
X2145845Y711747D1*
X2143100Y705793D1*
X2139896Y700072D1*
X2136254Y694621D1*
X2132195Y689472D1*
X2127744Y684658D1*
X2122930Y680207D1*
X2117781Y676148D1*
X2112330Y672506D1*
X2106609Y669302D1*
X2100655Y666557D1*
X2094504Y664288D1*
X2088194Y662508D1*
X2081763Y661229D1*
X2075252Y660458D1*
X2068701Y660201D1*
X2062150Y660458D1*
X2055639Y661229D1*
X2049208Y662508D1*
X2042898Y664288D1*
X2036747Y666557D1*
X2030793Y669302D1*
X2025072Y672506D1*
X2019621Y676148D1*
X2014472Y680207D1*
X2009658Y684658D1*
X2005207Y689472D1*
X2001148Y694621D1*
X1997506Y700072D1*
X1994302Y705793D1*
X1991557Y711747D1*
X1989288Y717898D1*
X1987508Y724208D1*
X1986229Y730639D1*
X1985458Y737150D1*
X1985201Y743701D1*
X1985458Y750252D1*
X1986229Y756763D1*
X1987508Y763194D1*
X1989288Y769504D1*
X1991557Y775655D1*
X1994302Y781609D1*
X1997506Y787330D1*
X2001148Y792781D1*
X2005191Y797910D1*
X2005201Y812204D1*
X1999938Y818742D1*
X1996230Y824291D1*
X1992969Y830114D1*
X1990175Y836174D1*
X1987865Y842436D1*
X1986053Y848859D1*
X1984751Y855405D1*
X1983967Y862032D1*
X1983705Y868701D1*
X1983937Y874614D1*
X1929486Y820415D1*
X1921424Y814558D1*
X1912546Y810035D1*
X1903069Y806955D1*
X1893228Y805397D1*
X1869873Y805201D1*
X1753716D1*
X1753697Y783705D1*
X1741963D1*
X1745336Y776856D1*
X1748513Y768242D1*
X1750725Y759330D1*
X1751945Y750230D1*
X1752181Y741864D1*
X1751474Y732709D1*
X1749767Y723688D1*
X1747080Y714908D1*
X1743445Y706477D1*
X1738906Y698495D1*
X1733518Y691061D1*
X1727346Y684262D1*
X1720466Y678183D1*
X1712959Y672895D1*
X1704918Y668464D1*
X1696438Y664942D1*
X1687623Y662373D1*
X1678579Y660787D1*
X1669416Y660204D1*
X1660244Y660630D1*
X1651175Y662061D1*
X1642317Y664479D1*
X1633779Y667855D1*
X1625662Y672147D1*
X1618066Y677305D1*
X1611083Y683266D1*
X1604795Y689958D1*
X1599281Y697299D1*
X1594606Y705202D1*
X1590827Y713570D1*
X1587990Y722302D1*
X1586128Y731293D1*
X1585265Y740434D1*
X1585411Y749615D1*
X1586563Y758724D1*
X1588709Y767651D1*
X1591823Y776289D1*
X1595415Y783708D1*
X1583705Y783705D1*
Y953697D1*
X1753697D1*
Y932202D1*
X1861937Y932201D1*
X1881329Y951587D1*
X1880201Y1087074D1*
Y1137204D1*
X1874938Y1143742D1*
X1871230Y1149291D1*
X1867969Y1155114D1*
X1865175Y1161174D1*
X1862865Y1167436D1*
X1861053Y1173859D1*
X1859751Y1180405D1*
X1858967Y1187032D1*
X1858705Y1193701D1*
X1858967Y1200370D1*
X1859751Y1206997D1*
X1861053Y1213543D1*
X1862865Y1219966D1*
X1865175Y1226228D1*
X1867969Y1232288D1*
X1871230Y1238111D1*
X1874938Y1243660D1*
X1879069Y1248902D1*
X1883600Y1253802D1*
X1888500Y1258333D1*
X1893742Y1262464D1*
X1899291Y1266172D1*
X1905114Y1269433D1*
X1911174Y1272227D1*
X1917436Y1274537D1*
X1923859Y1276349D1*
X1930405Y1277651D1*
X1937032Y1278435D1*
X1943701Y1278697D1*
X1950370Y1278435D1*
X1956997Y1277651D1*
X1963543Y1276349D1*
X1969966Y1274537D1*
X1976228Y1272227D1*
X1982288Y1269433D1*
X1988111Y1266172D1*
X1993660Y1262464D1*
X1998902Y1258333D1*
X2003802Y1253802D1*
X2008333Y1248902D1*
X2012464Y1243660D1*
X2016172Y1238111D1*
X2019433Y1232288D1*
X2022227Y1226228D1*
X2024537Y1219966D1*
X2026349Y1213543D1*
X2027651Y1206997D1*
X2028435Y1200370D1*
X2028697Y1193701D1*
X2028435Y1187032D1*
X2478677Y591864D2*
X2477983Y582708D1*
X2476306Y573681D1*
X2473664Y564887D1*
X2470089Y556430D1*
X2465623Y548407D1*
X2460318Y540913D1*
X2454235Y534035D1*
X2447446Y527854D1*
X2440029Y522441D1*
X2432072Y517859D1*
X2423667Y514163D1*
X2414912Y511394D1*
X2405910Y509586D1*
X2396766Y508760D1*
X2387585Y508925D1*
X2378476Y510080D1*
X2369545Y512210D1*
X2360895Y515291D1*
X2352629Y519287D1*
X2344841Y524152D1*
X2337624Y529828D1*
X2331062Y536250D1*
X2325230Y543342D1*
X2320197Y551022D1*
X2317863Y555331D1*
X2313906Y548495D1*
X2308518Y541061D1*
X2302346Y534262D1*
X2295466Y528183D1*
X2287959Y522895D1*
X2279918Y518464D1*
X2271438Y514942D1*
X2262623Y512373D1*
X2253579Y510787D1*
X2244416Y510204D1*
X2235244Y510630D1*
X2226175Y512061D1*
X2217317Y514479D1*
X2208779Y517855D1*
X2200662Y522147D1*
X2193066Y527305D1*
X2186083Y533266D1*
X2179795Y539958D1*
X2174281Y547299D1*
X2169606Y555202D1*
X2165827Y563570D1*
X2162990Y572302D1*
X2161128Y581293D1*
X2160265Y590434D1*
X2160411Y599615D1*
X2161563Y608724D1*
X2163709Y617651D1*
X2166823Y626289D1*
X2170865Y634533D1*
X2175789Y642283D1*
X2181533Y649445D1*
X2188030Y655934D1*
X2195199Y661670D1*
X2202955Y666585D1*
X2211203Y670618D1*
X2219845Y673721D1*
X2228775Y675856D1*
X2237885Y676998D1*
X2247066Y677133D1*
X2256206Y676259D1*
X2265195Y674387D1*
X2273924Y671539D1*
X2282287Y667751D1*
X2290184Y663066D1*
X2297519Y657543D1*
X2304203Y651248D1*
X2310156Y644258D1*
X2315305Y636656D1*
X2317859Y632074D1*
X2322435Y640021D1*
X2327848Y647438D1*
X2334029Y654228D1*
X2340906Y660312D1*
X2348399Y665618D1*
X2356421Y670085D1*
X2364878Y673661D1*
X2373672Y676303D1*
X2382699Y677982D1*
X2391854Y678677D1*
X2401031Y678380D1*
X2410123Y677096D1*
X2419023Y674838D1*
X2427627Y671633D1*
X2435836Y667518D1*
X2443552Y662543D1*
X2450688Y656763D1*
X2457158Y650248D1*
X2462887Y643073D1*
X2467809Y635322D1*
X2471866Y627085D1*
X2475011Y618459D1*
X2477208Y609544D1*
X2478429Y600443D1*
X2478677Y591864D1*
X3812294Y1057218D2*
X3818742Y1062464D1*
X3824291Y1066172D1*
X3830114Y1069433D1*
X3836174Y1072227D1*
X3842436Y1074537D1*
X3848859Y1076349D1*
X3855405Y1077651D1*
X3862032Y1078435D1*
X3868701Y1078697D1*
X3880211Y1077862D1*
X3880201Y1190429D1*
X3776405Y1086603D1*
X3775706Y1080713D1*
X3774435Y1074319D1*
X3772665Y1068044D1*
X3768223Y1057187D1*
X3812226Y1057201D1*
X3792891Y1478697D2*
X3880198D1*
X3880201Y1592404D1*
X3842647Y1629952D1*
X3836254Y1619621D1*
X3832195Y1614472D1*
X3827744Y1609658D1*
X3822930Y1605207D1*
X3817781Y1601148D1*
X3812330Y1597506D1*
X3806609Y1594302D1*
X3800655Y1591557D1*
X3794504Y1589288D1*
X3788194Y1587508D1*
X3781763Y1586229D1*
X3775252Y1585458D1*
X3768701Y1585201D1*
X3762150Y1585458D1*
X3755639Y1586229D1*
X3749208Y1587508D1*
X3742898Y1589288D1*
X3736747Y1591557D1*
X3730793Y1594302D1*
X3725072Y1597506D1*
X3719621Y1601148D1*
X3714492Y1605191D1*
X3695031Y1605201D1*
X3681707Y1591905D1*
X3685784Y1591886D1*
Y1403694D1*
X3778697Y1403697D1*
X3778714Y1268517D1*
X3805179Y1294982D1*
X3805201Y1308712D1*
X3783705Y1308705D1*
Y1478697D1*
X3792891D1*
X2608708Y1235045D2*
X2600434Y1233972D1*
X2591255Y1233740D1*
X2582104Y1234500D1*
X2573089Y1236242D1*
X2564315Y1238946D1*
X2557195Y1241948D1*
X2557201Y1120010D1*
X2618353Y1058852D1*
X2614737Y1068044D1*
X2612967Y1074319D1*
X2611696Y1080713D1*
X2610929Y1087187D1*
X2610673Y1093701D1*
X2610929Y1100215D1*
X2611696Y1106689D1*
X2612967Y1113083D1*
X2614737Y1119358D1*
X2616994Y1125474D1*
X2619723Y1131395D1*
X2622908Y1137083D1*
X2627460Y1143683D1*
X2622908Y1150319D1*
X2619723Y1156007D1*
X2616994Y1161928D1*
X2614737Y1168044D1*
X2612967Y1174319D1*
X2611696Y1180713D1*
X2610929Y1187187D1*
X2610673Y1193701D1*
X2610929Y1200215D1*
X2611696Y1206689D1*
X2612967Y1213083D1*
X2614737Y1219358D1*
X2616994Y1225474D1*
X2621005Y1233683D1*
X2608705Y1233705D1*
Y1235033D1*
X1484540Y1357191D2*
X1483705Y1368701D1*
X1483967Y1375370D1*
X1484751Y1381997D1*
X1486053Y1388543D1*
X1487865Y1394966D1*
X1490175Y1401228D1*
X1492969Y1407288D1*
X1496230Y1413111D1*
X1499865Y1418552D1*
X1395516Y1418547D1*
Y1630700D1*
X1382194Y1617391D1*
X1382005Y1488719D1*
X1380447Y1478877D1*
X1377367Y1469401D1*
X1372844Y1460522D1*
X1366987Y1452461D1*
X1350611Y1435808D1*
X1328713Y1413911D1*
X1328697Y1357182D1*
X1484520Y1357201D1*
X2369860Y1776728D2*
X2445899D1*
X2417375Y1805225D1*
X1950903Y1805201D1*
X1951729Y1793701D1*
X1951473Y1787187D1*
X1950706Y1780713D1*
X1949435Y1774319D1*
X1947665Y1768044D1*
X1943223Y1757187D1*
X2360709Y1757201D1*
X2360674Y1776728D1*
X2369860D1*
X3326944Y587150D2*
X3326173Y580639D1*
X3324894Y574208D1*
X3323114Y567898D1*
X3320845Y561747D1*
X3318100Y555793D1*
X3314896Y550072D1*
X3311254Y544621D1*
X3307195Y539472D1*
X3302744Y534658D1*
X3297930Y530207D1*
X3292781Y526148D1*
X3287330Y522506D1*
X3281609Y519302D1*
X3275655Y516557D1*
X3269504Y514288D1*
X3263194Y512508D1*
X3256763Y511229D1*
X3250252Y510458D1*
X3243701Y510201D1*
X3237150Y510458D1*
X3230639Y511229D1*
X3224208Y512508D1*
X3217898Y514288D1*
X3211747Y516557D1*
X3205793Y519302D1*
X3200072Y522506D1*
X3194621Y526148D1*
X3189472Y530207D1*
X3181233Y538362D1*
X3174675Y531740D1*
X3167533Y525969D1*
X3159802Y521017D1*
X3151573Y516944D1*
X3142947Y513799D1*
X3134027Y511620D1*
X3124922Y510433D1*
X3115742Y510253D1*
X3106598Y511083D1*
X3097600Y512911D1*
X3088858Y515716D1*
X3080476Y519464D1*
X3072556Y524110D1*
X3065194Y529597D1*
X3058480Y535860D1*
X3052493Y542821D1*
X3047307Y550398D1*
X3042984Y558499D1*
X3039577Y567025D1*
X3037126Y575873D1*
X3035662Y584937D1*
X3035202Y594108D1*
X3035751Y603273D1*
X3037304Y612322D1*
X3039841Y621147D1*
X3043331Y629639D1*
X3047732Y637697D1*
X3052992Y645223D1*
X3059046Y652126D1*
X3065821Y658323D1*
X3073236Y663738D1*
X3081201Y668306D1*
X3089619Y671973D1*
X3098388Y674693D1*
X3107404Y676433D1*
X3116555Y677173D1*
X3125733Y676904D1*
X3134826Y675629D1*
X3143724Y673364D1*
X3152319Y670135D1*
X3160508Y665981D1*
X3168191Y660954D1*
X3175276Y655114D1*
X3181194Y649073D1*
X3189472Y657195D1*
X3194621Y661254D1*
X3200072Y664896D1*
X3205793Y668100D1*
X3211747Y670845D1*
X3217898Y673114D1*
X3224208Y674894D1*
X3230639Y676173D1*
X3237150Y676944D1*
X3243701Y677201D1*
X3250252Y676944D1*
X3256763Y676173D1*
X3263194Y674894D1*
X3269504Y673114D1*
X3275655Y670845D1*
X3281609Y668100D1*
X3287330Y664896D1*
X3292781Y661254D1*
X3297930Y657195D1*
X3302744Y652744D1*
X3307195Y647930D1*
X3311254Y642781D1*
X3314896Y637330D1*
X3318100Y631609D1*
X3320845Y625655D1*
X3323114Y619504D1*
X3324894Y613194D1*
X3326173Y606763D1*
X3326944Y600252D1*
X3327201Y593701D1*
X3326944Y587150D1*
X4056177Y1981201D2*
X456204D1*
X456201Y456171D1*
X4056198Y456201D1*
X4056201Y1981231D1*
X2393701Y678661D2*
D14*
Y508741D1*
Y593701D2*
X2478661D1*
X2593701Y1403661D2*
Y1233741D1*
X3593701Y1318701D2*
Y1233741D1*
X3508741Y1318701D2*
X3593701D1*
X2493701Y853661D2*
Y683741D1*
Y768701D2*
X2578661D1*
X3493701Y853661D2*
Y683741D1*
Y768701D2*
X3578661D1*
X3143701Y1751692D2*
Y1585709D1*
X3060710Y1668701D2*
X3143701D1*
X593701Y993701D2*
Y910709D1*
X510709Y993701D2*
X676693D1*
X1668701Y743701D2*
Y660237D1*
X1585237Y743701D2*
X1752165D1*
X2243701Y677165D2*
Y510237D1*
X2160237Y593701D2*
X2243701D1*
X3118701Y677165D2*
Y510237D1*
X3035237Y593701D2*
X3118701D1*
X1568701Y1693701D2*
X1651693D1*
X1868701Y1593701D2*
X1951693D1*
X843701Y993701D2*
Y910709D1*
X760709Y993701D2*
X926693D1*
X1243701Y1603661D2*
Y1518701D1*
X1158741D2*
X1243701D1*
D16*
X1943701Y1193701D3*
D17*
X1543701D3*
D16*
X2068701Y868701D3*
D17*
X1668701D3*
D16*
X2393701Y593701D3*
D17*
X2793701D3*
D16*
X2393701Y1493701D3*
D17*
X2793701D3*
D16*
X2943701Y1093701D3*
D17*
Y1493701D3*
D16*
X3868701Y993701D3*
D17*
Y1393701D3*
D16*
X2593701Y1318701D3*
D17*
X2693701D3*
D16*
X3593701D3*
D17*
X3693701D3*
D16*
X2393701Y768701D3*
D17*
X2493701D3*
D16*
X3393701D3*
D17*
X3493701D3*
D16*
X1568701Y1368701D3*
D17*
X1668701D3*
D18*
X2443701Y1693701D3*
D19*
X2543701D3*
D18*
X3143701Y1668701D3*
D19*
X3243701D3*
D18*
X593701Y1293701D3*
D19*
Y1193701D3*
Y1093701D3*
Y993701D3*
D20*
X2068701Y743701D3*
D21*
X1668701D3*
D20*
X2243701Y593701D3*
D21*
Y993701D3*
D22*
X2293701Y1193701D3*
Y1126772D3*
D20*
X2143701Y993701D3*
D21*
Y1393701D3*
D22*
X2293701Y1276772D3*
Y1343701D3*
D23*
X2393701D3*
X2460630D3*
D22*
X2793701Y768701D3*
Y835630D3*
D20*
Y1393701D3*
D21*
Y993701D3*
D20*
X3118701Y1093701D3*
D21*
Y1493701D3*
D20*
X3243701Y993701D3*
D21*
Y593701D3*
D20*
X3118701Y993701D3*
D21*
Y593701D3*
D20*
X3243701Y1493701D3*
D21*
Y1093701D3*
D23*
X3193701Y1393701D3*
X3260630D3*
X3368701Y1518701D3*
X3435630D3*
X3368701Y1393701D3*
X3435630D3*
X3543701Y1518701D3*
X3610630D3*
X3543701Y1393701D3*
X3610630D3*
D20*
X3368701Y1668701D3*
D21*
X3768701D3*
D22*
X1468701Y1493701D3*
Y1560630D3*
Y1643701D3*
Y1710630D3*
D18*
X2393701Y1193701D3*
D19*
Y1093701D3*
Y993701D3*
Y893701D3*
X2693701D3*
Y993701D3*
Y1093701D3*
Y1193701D3*
D18*
X3393701D3*
D19*
Y1093701D3*
Y993701D3*
Y893701D3*
X3693701D3*
Y993701D3*
Y1093701D3*
Y1193701D3*
D18*
X1568701Y1793701D3*
D19*
Y1693701D3*
Y1593701D3*
Y1493701D3*
X1868701D3*
Y1593701D3*
Y1693701D3*
Y1793701D3*
D24*
X843701Y1293701D3*
Y1193701D3*
Y1093701D3*
Y993701D3*
X1243701D3*
Y1093701D3*
Y1193701D3*
Y1293701D3*
D22*
X1393701Y1126772D3*
Y1193701D3*
Y993701D3*
Y1060630D3*
D23*
X968701Y1418701D3*
X901772D3*
X718701D3*
X785630D3*
D16*
X1243701Y1518701D3*
D17*
Y1418701D3*
M02*
