M48
INCH
T01C0.0354
T02C0.038
T03C0.0394
%
T01
X+019437Y+011937
X+015437Y+011937
X+020687Y+008687
X+016687Y+008687
X+023937Y+005937
X+027937Y+005937
X+023937Y+014937
X+027937Y+014937
X+029437Y+010937
X+029437Y+014937
X+038687Y+009937
X+038687Y+013937
T03
X+025937Y+013187
X+026937Y+013187
X+035937Y+013187
X+036937Y+013187
X+023937Y+007687
X+024937Y+007687
X+033937Y+007687
X+034937Y+007687
X+015687Y+013687
X+016687Y+013687
T01
X+024437Y+016937
X+025437Y+016937
X+031437Y+016687
X+032437Y+016687
X+005937Y+012937
X+005937Y+011937
X+005937Y+010937
X+005937Y+009937
T02
X+020687Y+007437
X+016687Y+007437
X+022437Y+005937
X+022437Y+009937
X+021437Y+009937
X+021437Y+013937
X+027937Y+013937
X+027937Y+009937
X+031187Y+010937
X+031187Y+014937
X+032437Y+009937
X+032437Y+005937
X+031187Y+009937
X+031187Y+005937
X+032437Y+014937
X+032437Y+010937
X+033687Y+016687
X+037687Y+016687
T01
X+023937Y+011937
X+023937Y+010937
X+023937Y+009937
X+023937Y+008937
X+026937Y+008937
X+026937Y+009937
X+026937Y+010937
X+026937Y+011937
X+033937Y+011937
X+033937Y+010937
X+033937Y+009937
X+033937Y+008937
X+036937Y+008937
X+036937Y+009937
X+036937Y+010937
X+036937Y+011937
X+015687Y+017937
X+015687Y+016937
X+015687Y+015937
X+015687Y+014937
X+018687Y+014937
X+018687Y+015937
X+018687Y+016937
X+018687Y+017937
X+008437Y+012937
X+008437Y+011937
X+008437Y+010937
X+008437Y+009937
X+012437Y+009937
X+012437Y+010937
X+012437Y+011937
X+012437Y+012937
T03
X+012437Y+015187
X+012437Y+014187
T00
M30
