G04 DipTrace 3.1.0.1*
G04 Top.gbr*
%MOIN*%
G04 #@! TF.FileFunction,Copper,L1,Top*
G04 #@! TF.Part,Single*
G04 #@! TA.AperFunction,Conductor*
%ADD14C,0.02*%
G04 #@! TA.AperFunction,CopperBalancing*
%ADD15C,0.025*%
G04 #@! TA.AperFunction,ComponentPad*
%ADD16C,0.062992*%
%ADD17R,0.062992X0.062992*%
%ADD18R,0.059055X0.059055*%
%ADD19C,0.059055*%
%ADD20C,0.06*%
%ADD21C,0.06*%
%ADD24C,0.059055*%
%FSLAX26Y26*%
G04*
G70*
G90*
G75*
G01*
G04 Top*
%LPD*%
X2693701Y1193701D2*
D14*
X2818701D1*
X3018701Y1393701D1*
Y1493701D1*
X3093701Y1568701D1*
X3568701D1*
X3693701Y1443701D1*
Y1318701D1*
X2393701Y768701D2*
Y718701D1*
X2443701Y668701D1*
X3343701D1*
X3393701Y718701D1*
Y768701D1*
X1568701Y1368701D2*
Y1318701D1*
X1618701Y1268701D1*
X1768701D1*
X2143701Y893701D1*
X2393701D1*
X3693701Y1093701D2*
X3593701Y993701D1*
Y668701D1*
X3518701Y593701D1*
X3243701D1*
Y1493701D2*
Y1343701D1*
X3393701Y1193701D1*
X458719Y1956332D2*
D15*
X4053692D1*
X458719Y1931463D2*
X4053692D1*
X458719Y1906595D2*
X4053692D1*
X458719Y1881726D2*
X4053692D1*
X458719Y1856857D2*
X1483164D1*
X1654236D2*
X1812294D1*
X1925090D2*
X4053692D1*
X458719Y1831988D2*
X1483164D1*
X1654236D2*
X1792522D1*
X1944863D2*
X4053692D1*
X458719Y1807120D2*
X1483164D1*
X1654236D2*
X1784269D1*
X1953152D2*
X4053692D1*
X458719Y1782251D2*
X1483164D1*
X1654236D2*
X1783982D1*
X1953439D2*
X4053692D1*
X458719Y1757382D2*
X1483164D1*
X1654236D2*
X1791553D1*
X1945867D2*
X2358164D1*
X2599462D2*
X4053692D1*
X458719Y1732513D2*
X1483164D1*
X1654236D2*
X1792809D1*
X1944611D2*
X2358164D1*
X2619593D2*
X3058157D1*
X3299311D2*
X3312361D1*
X3425049D2*
X3712362D1*
X3825050D2*
X4053692D1*
X458719Y1707645D2*
X1484349D1*
X1653052D2*
X1784340D1*
X1953044D2*
X2358164D1*
X2628062D2*
X3058157D1*
X3445073D2*
X3692339D1*
X3845074D2*
X4053692D1*
X458719Y1682776D2*
X1483882D1*
X1653519D2*
X1783910D1*
X1953511D2*
X2358164D1*
X2628492D2*
X3058157D1*
X3453505D2*
X3683906D1*
X3853507D2*
X4053692D1*
X458719Y1657907D2*
X1491274D1*
X1646127D2*
X1791302D1*
X1946118D2*
X2358164D1*
X2621100D2*
X3058157D1*
X3454008D2*
X3683403D1*
X3854009D2*
X4053692D1*
X458719Y1633038D2*
X1493069D1*
X1644332D2*
X1793096D1*
X1944324D2*
X2358164D1*
X2602907D2*
X3058157D1*
X3446687D2*
X3690688D1*
X3846689D2*
X4053692D1*
X458719Y1608170D2*
X1484456D1*
X1652945D2*
X1784448D1*
X1952972D2*
X3040861D1*
X3621551D2*
X3708702D1*
X3828711D2*
X4053692D1*
X458719Y1583301D2*
X1185972D1*
X1301423D2*
X1483810D1*
X1653591D2*
X1783838D1*
X1953582D2*
X3015993D1*
X3646419D2*
X4053692D1*
X458719Y1558432D2*
X1166056D1*
X1321339D2*
X1491023D1*
X1646378D2*
X1791051D1*
X1946370D2*
X2336132D1*
X2451296D2*
X2706205D1*
X3671287D2*
X4053692D1*
X458719Y1533563D2*
X1157515D1*
X1329879D2*
X1493356D1*
X1644045D2*
X1793383D1*
X1944037D2*
X2316144D1*
X2471284D2*
X2706205D1*
X3696154D2*
X4053692D1*
X458719Y1508694D2*
X1156798D1*
X1330597D2*
X1484528D1*
X1652873D2*
X1784556D1*
X1952865D2*
X2307532D1*
X2479860D2*
X2706205D1*
X3721022D2*
X4053692D1*
X458719Y1483826D2*
X1156188D1*
X1331207D2*
X1483775D1*
X1653626D2*
X1783766D1*
X1953654D2*
X2306778D1*
X2480613D2*
X2706205D1*
X3329131D2*
X3561289D1*
X3745423D2*
X4053692D1*
X458719Y1458957D2*
X1156188D1*
X1331207D2*
X1490808D1*
X1646593D2*
X1790800D1*
X1946621D2*
X2089105D1*
X2198313D2*
X2313632D1*
X2473760D2*
X2706205D1*
X3322133D2*
X3586157D1*
X3757839D2*
X3781188D1*
X3956207D2*
X4053692D1*
X458719Y1434088D2*
X1156188D1*
X1331207D2*
X1508427D1*
X1756183D2*
X1808419D1*
X1929002D2*
X2068113D1*
X2219269D2*
X2330605D1*
X2456786D2*
X2706205D1*
X3309718D2*
X3611025D1*
X3759705D2*
X3781188D1*
X3956207D2*
X4053692D1*
X458719Y1409219D2*
X1156188D1*
X1331207D2*
X1491490D1*
X1756183D2*
X2059142D1*
X2228240D2*
X2381848D1*
X2405544D2*
X2706205D1*
X3084688D2*
X3177688D1*
X3309718D2*
X3627711D1*
X3759705D2*
X3781188D1*
X3956207D2*
X4053692D1*
X458719Y1384351D2*
X1156188D1*
X1331207D2*
X1482662D1*
X1756183D2*
X2058209D1*
X2229173D2*
X2537227D1*
X2879179D2*
X2917061D1*
X3084006D2*
X3177688D1*
X3309718D2*
X3537211D1*
X3956207D2*
X4053692D1*
X458719Y1359482D2*
X508191D1*
X679227D2*
X790528D1*
X896865D2*
X1156188D1*
X1331207D2*
X1481693D1*
X1756183D2*
X2065027D1*
X2222355D2*
X2516629D1*
X2872361D2*
X2892193D1*
X3074676D2*
X3177688D1*
X3320232D2*
X3516614D1*
X3956207D2*
X4053692D1*
X458719Y1334613D2*
X508191D1*
X679227D2*
X768962D1*
X918431D2*
X1156188D1*
X1331207D2*
X1488332D1*
X1756183D2*
X2082215D1*
X2205202D2*
X2507694D1*
X2855208D2*
X2867325D1*
X3051926D2*
X3178369D1*
X3345099D2*
X3507714D1*
X3956207D2*
X4053692D1*
X458719Y1309744D2*
X508191D1*
X679227D2*
X759739D1*
X927653D2*
X1159740D1*
X1327655D2*
X1503331D1*
X1819950D2*
X2506689D1*
X2781179D2*
X2842457D1*
X3027058D2*
X3187556D1*
X3369967D2*
X3506674D1*
X3956207D2*
X4053692D1*
X458719Y1284876D2*
X508191D1*
X679227D2*
X758627D1*
X928766D2*
X1158628D1*
X1328767D2*
X1512446D1*
X1844817D2*
X2513220D1*
X2781179D2*
X2817590D1*
X3002190D2*
X3210234D1*
X3394835D2*
X3513241D1*
X3781200D2*
X4053692D1*
X458719Y1260007D2*
X508191D1*
X679227D2*
X765301D1*
X922091D2*
X1165302D1*
X1322092D2*
X1456215D1*
X1869685D2*
X1888010D1*
X1999371D2*
X2308178D1*
X2479214D2*
X2529727D1*
X2781179D2*
X2792686D1*
X2977322D2*
X3235102D1*
X3479234D2*
X3529711D1*
X3781200D2*
X4053692D1*
X458719Y1235138D2*
X508191D1*
X679227D2*
X769249D1*
X918144D2*
X1169250D1*
X1318145D2*
X1456215D1*
X2020399D2*
X2308178D1*
X2479214D2*
X2575659D1*
X2952455D2*
X3259970D1*
X3479234D2*
X3575643D1*
X3781200D2*
X4053692D1*
X458719Y1210269D2*
X509842D1*
X677577D2*
X759847D1*
X927546D2*
X1159848D1*
X1327547D2*
X1456215D1*
X2029549D2*
X2308178D1*
X2479214D2*
X2609856D1*
X2927587D2*
X3284838D1*
X3479234D2*
X3609841D1*
X3777576D2*
X4053692D1*
X458719Y1185400D2*
X508586D1*
X678797D2*
X758591D1*
X928802D2*
X1158592D1*
X1328803D2*
X1456215D1*
X1631199D2*
X1759688D1*
X2030805D2*
X2308178D1*
X2479214D2*
X2608600D1*
X2902719D2*
X3308162D1*
X3479234D2*
X3608585D1*
X3778796D2*
X4053692D1*
X458719Y1160532D2*
X515081D1*
X672302D2*
X765086D1*
X922307D2*
X1165087D1*
X1322308D2*
X1456215D1*
X1631199D2*
X1784556D1*
X2024454D2*
X2308178D1*
X2479214D2*
X2615095D1*
X2877851D2*
X2888676D1*
X2998709D2*
X3066159D1*
X3171276D2*
X3191144D1*
X3296261D2*
X3308162D1*
X3479234D2*
X3615080D1*
X3772301D2*
X4053692D1*
X458719Y1135663D2*
X519566D1*
X667852D2*
X769572D1*
X917857D2*
X1169573D1*
X1317858D2*
X1456215D1*
X1631199D2*
X1809424D1*
X2008306D2*
X2308178D1*
X2479214D2*
X2619545D1*
X2846955D2*
X2867289D1*
X3020132D2*
X3044019D1*
X3479234D2*
X3619565D1*
X3767851D2*
X4053692D1*
X458719Y1110794D2*
X509949D1*
X677433D2*
X759955D1*
X927438D2*
X1159956D1*
X1327439D2*
X1456215D1*
X1631199D2*
X1834291D1*
X2018927D2*
X2308178D1*
X2479214D2*
X2609964D1*
X2777447D2*
X2857924D1*
X3479234D2*
X3609948D1*
X3777468D2*
X4053692D1*
X458719Y1085925D2*
X508550D1*
X678868D2*
X758555D1*
X928874D2*
X1158556D1*
X1328875D2*
X1859159D1*
X2043795D2*
X2308537D1*
X2478855D2*
X2608528D1*
X2778847D2*
X2856560D1*
X3478876D2*
X3593621D1*
X3778867D2*
X4053692D1*
X458719Y1061057D2*
X514866D1*
X672553D2*
X764871D1*
X922558D2*
X1164872D1*
X1322559D2*
X1884027D1*
X2068663D2*
X2091868D1*
X2295559D2*
X2314852D1*
X2472539D2*
X2614844D1*
X2845556D2*
X2862732D1*
X3024689D2*
X3039354D1*
X3472524D2*
X3568753D1*
X3772552D2*
X3814345D1*
X3923050D2*
X4053692D1*
X458719Y1036188D2*
X519853D1*
X667529D2*
X769859D1*
X917534D2*
X1169860D1*
X1317535D2*
X1908894D1*
X2467552D2*
X2619868D1*
X2868091D2*
X2878620D1*
X3008793D2*
X3044306D1*
X3467536D2*
X3543993D1*
X3767528D2*
X3792599D1*
X3944832D2*
X4053692D1*
X458719Y1011319D2*
X510057D1*
X677325D2*
X760062D1*
X927331D2*
X1160063D1*
X1327332D2*
X1933798D1*
X2477348D2*
X2610071D1*
X2877815D2*
X2920290D1*
X2967131D2*
X3034581D1*
X3477333D2*
X3530178D1*
X3954341D2*
X4053692D1*
X458719Y986450D2*
X508478D1*
X678904D2*
X758483D1*
X928909D2*
X1158484D1*
X1328910D2*
X1958666D1*
X2478927D2*
X2608493D1*
X2879394D2*
X3033002D1*
X3478911D2*
X3527702D1*
X3955884D2*
X4053692D1*
X458719Y961582D2*
X514650D1*
X672768D2*
X764655D1*
X922773D2*
X1164621D1*
X1322774D2*
X1983534D1*
X2472755D2*
X2614629D1*
X2873294D2*
X3039139D1*
X3472775D2*
X3527702D1*
X3772767D2*
X3787503D1*
X3949891D2*
X4053692D1*
X458719Y936713D2*
X530834D1*
X656584D2*
X780803D1*
X906589D2*
X1180804D1*
X1306590D2*
X1581200D1*
X1756183D2*
X2008401D1*
X2467229D2*
X2620191D1*
X2857218D2*
X3055179D1*
X3307242D2*
X3320184D1*
X3467213D2*
X3527702D1*
X3767205D2*
X3803149D1*
X3934246D2*
X4053692D1*
X458719Y911844D2*
X577304D1*
X610078D2*
X827309D1*
X860084D2*
X1227310D1*
X1260085D2*
X1581200D1*
X1756183D2*
X1992971D1*
X2477204D2*
X2610179D1*
X2812686D2*
X3099711D1*
X3137689D2*
X3224732D1*
X3262673D2*
X3310172D1*
X3477225D2*
X3527702D1*
X3777217D2*
X3843303D1*
X3894092D2*
X4053692D1*
X458719Y886975D2*
X1581200D1*
X1756183D2*
X1983211D1*
X2478963D2*
X2608457D1*
X2778955D2*
X3308450D1*
X3478947D2*
X3527702D1*
X3778939D2*
X4053692D1*
X458719Y862107D2*
X1581200D1*
X1756183D2*
X1981452D1*
X2472970D2*
X2614413D1*
X2772998D2*
X3314406D1*
X3472991D2*
X3527702D1*
X3772982D2*
X4053692D1*
X458719Y837238D2*
X1581200D1*
X1756183D2*
X1987230D1*
X2581197D2*
X2630346D1*
X2757065D2*
X3330339D1*
X3757086D2*
X4053692D1*
X458719Y812369D2*
X1581200D1*
X1756183D2*
X2002552D1*
X2134833D2*
X2318297D1*
X2581197D2*
X2674519D1*
X2712892D2*
X3318282D1*
X3659696D2*
X3674504D1*
X3712912D2*
X4053692D1*
X458719Y787500D2*
X1581200D1*
X1756183D2*
X1995124D1*
X2142297D2*
X2308321D1*
X2581197D2*
X3308306D1*
X3659696D2*
X4053692D1*
X458719Y762631D2*
X1584860D1*
X1752523D2*
X1984861D1*
X2152524D2*
X2306419D1*
X2581197D2*
X3306404D1*
X3659696D2*
X4053692D1*
X458719Y737763D2*
X1582923D1*
X1754497D2*
X1982924D1*
X2154498D2*
X2312053D1*
X2581197D2*
X3312038D1*
X3659696D2*
X4053692D1*
X458719Y712894D2*
X1588592D1*
X1748827D2*
X1988593D1*
X2148792D2*
X2327089D1*
X3659696D2*
X4053692D1*
X458719Y688025D2*
X1603987D1*
X1733433D2*
X2003988D1*
X2133434D2*
X2335593D1*
X3659696D2*
X4053692D1*
X458719Y663156D2*
X1644177D1*
X1693207D2*
X2044178D1*
X2093208D2*
X2194856D1*
X2292544D2*
X2342196D1*
X3430468D2*
X3495837D1*
X3659445D2*
X4053692D1*
X458719Y638288D2*
X2170598D1*
X3651945D2*
X4053692D1*
X458719Y613419D2*
X2160048D1*
X3630737D2*
X4053692D1*
X458719Y588550D2*
X2157859D1*
X2481044D2*
X2706205D1*
X2881189D2*
X3032859D1*
X3605870D2*
X4053692D1*
X458719Y563681D2*
X2163277D1*
X2475733D2*
X2706205D1*
X2881189D2*
X3038277D1*
X3581002D2*
X4053692D1*
X458719Y538813D2*
X2178277D1*
X2309123D2*
X2326299D1*
X2461092D2*
X2706205D1*
X2881189D2*
X3053277D1*
X3553120D2*
X4053692D1*
X458719Y513944D2*
X2216494D1*
X2270906D2*
X2361825D1*
X2425567D2*
X2706205D1*
X2881189D2*
X3091494D1*
X3145906D2*
X3216478D1*
X3270927D2*
X4053692D1*
X458719Y489075D2*
X4053692D1*
X458719Y464206D2*
X4053692D1*
X2028435Y1187032D2*
X2027651Y1180405D1*
X2026349Y1173859D1*
X2024537Y1167436D1*
X2022227Y1161174D1*
X2019433Y1155114D1*
X2016172Y1149291D1*
X2012464Y1143742D1*
X2008333Y1138500D1*
X2003802Y1133600D1*
X1998472Y1128731D1*
X2079800Y1047404D1*
X2084658Y1052744D1*
X2089472Y1057195D1*
X2094621Y1061254D1*
X2100072Y1064896D1*
X2105793Y1068100D1*
X2111747Y1070845D1*
X2117898Y1073114D1*
X2124208Y1074894D1*
X2130639Y1076173D1*
X2137150Y1076944D1*
X2143701Y1077201D1*
X2150252Y1076944D1*
X2156763Y1076173D1*
X2163194Y1074894D1*
X2169504Y1073114D1*
X2175655Y1070845D1*
X2181609Y1068100D1*
X2187330Y1064896D1*
X2193686Y1060540D1*
X2200072Y1064896D1*
X2205793Y1068100D1*
X2211747Y1070845D1*
X2217898Y1073114D1*
X2224208Y1074894D1*
X2230639Y1076173D1*
X2237150Y1076944D1*
X2243701Y1077201D1*
X2250252Y1076944D1*
X2256763Y1076173D1*
X2263194Y1074894D1*
X2269504Y1073114D1*
X2275655Y1070845D1*
X2281609Y1068100D1*
X2287330Y1064896D1*
X2292781Y1061254D1*
X2297930Y1057195D1*
X2302744Y1052744D1*
X2307195Y1047930D1*
X2311254Y1042781D1*
X2314896Y1037330D1*
X2318926Y1029818D1*
X2322908Y1037083D1*
X2327460Y1043683D1*
X2322908Y1050319D1*
X2319723Y1056007D1*
X2316994Y1061928D1*
X2314737Y1068044D1*
X2312967Y1074319D1*
X2311696Y1080713D1*
X2310929Y1087187D1*
X2310673Y1093701D1*
X2310929Y1100215D1*
X2312486Y1110661D1*
X2310674Y1110673D1*
Y1276728D1*
X2476729D1*
Y1110673D1*
X2474970D1*
X2476473Y1100215D1*
X2476729Y1093701D1*
X2476473Y1087187D1*
X2475706Y1080713D1*
X2474435Y1074319D1*
X2472665Y1068044D1*
X2470408Y1061928D1*
X2467679Y1056007D1*
X2464494Y1050319D1*
X2459942Y1043719D1*
X2464494Y1037083D1*
X2467679Y1031395D1*
X2470408Y1025474D1*
X2472665Y1019358D1*
X2474435Y1013083D1*
X2475706Y1006689D1*
X2476473Y1000215D1*
X2476729Y993701D1*
X2476473Y987187D1*
X2475706Y980713D1*
X2474435Y974319D1*
X2472665Y968044D1*
X2470408Y961928D1*
X2467679Y956007D1*
X2464494Y950319D1*
X2459942Y943719D1*
X2464494Y937083D1*
X2467679Y931395D1*
X2470408Y925474D1*
X2472665Y919358D1*
X2474435Y913083D1*
X2475706Y906689D1*
X2476473Y900215D1*
X2476729Y893701D1*
X2476473Y887187D1*
X2475706Y880713D1*
X2474435Y874319D1*
X2472665Y868044D1*
X2470408Y861928D1*
X2466397Y853719D1*
X2578697Y853697D1*
Y732229D1*
X3316943Y732201D1*
X3312865Y742436D1*
X3311053Y748859D1*
X3309751Y755405D1*
X3308967Y762032D1*
X3308705Y768701D1*
X3308967Y775370D1*
X3309751Y781997D1*
X3311053Y788543D1*
X3312865Y794966D1*
X3315175Y801228D1*
X3317969Y807288D1*
X3321230Y813111D1*
X3324938Y818660D1*
X3329069Y823902D1*
X3333600Y828802D1*
X3337601Y832501D1*
X3330566Y839779D1*
X3326530Y844899D1*
X3322908Y850319D1*
X3319723Y856007D1*
X3316994Y861928D1*
X3314737Y868044D1*
X3312967Y874319D1*
X3311696Y880713D1*
X3310929Y887187D1*
X3310673Y893701D1*
X3310929Y900215D1*
X3311696Y906689D1*
X3312967Y913083D1*
X3314737Y919358D1*
X3316994Y925474D1*
X3319723Y931395D1*
X3322908Y937083D1*
X3327460Y943683D1*
X3322908Y950319D1*
X3318987Y957603D1*
X3314896Y950072D1*
X3311254Y944621D1*
X3307195Y939472D1*
X3302744Y934658D1*
X3297930Y930207D1*
X3292781Y926148D1*
X3287330Y922506D1*
X3281609Y919302D1*
X3275655Y916557D1*
X3269504Y914288D1*
X3263194Y912508D1*
X3256763Y911229D1*
X3250252Y910458D1*
X3243701Y910201D1*
X3237150Y910458D1*
X3230639Y911229D1*
X3224208Y912508D1*
X3217898Y914288D1*
X3211747Y916557D1*
X3205793Y919302D1*
X3200072Y922506D1*
X3194621Y926148D1*
X3189472Y930207D1*
X3181233Y938362D1*
X3172930Y930207D1*
X3167781Y926148D1*
X3162330Y922506D1*
X3156609Y919302D1*
X3150655Y916557D1*
X3144504Y914288D1*
X3138194Y912508D1*
X3131763Y911229D1*
X3125252Y910458D1*
X3118701Y910201D1*
X3112150Y910458D1*
X3105639Y911229D1*
X3099208Y912508D1*
X3092898Y914288D1*
X3086747Y916557D1*
X3080793Y919302D1*
X3075072Y922506D1*
X3069621Y926148D1*
X3064472Y930207D1*
X3059658Y934658D1*
X3055207Y939472D1*
X3051148Y944621D1*
X3047506Y950072D1*
X3044302Y955793D1*
X3041557Y961747D1*
X3039288Y967898D1*
X3037508Y974208D1*
X3036229Y980639D1*
X3035458Y987150D1*
X3035201Y993701D1*
X3035458Y1000252D1*
X3036229Y1006763D1*
X3037508Y1013194D1*
X3039288Y1019504D1*
X3041557Y1025655D1*
X3044302Y1031609D1*
X3047506Y1037330D1*
X3051862Y1043686D1*
X3047506Y1050072D1*
X3044302Y1055793D1*
X3041557Y1061747D1*
X3039288Y1067898D1*
X3037508Y1074208D1*
X3036229Y1080639D1*
X3035458Y1087150D1*
X3035201Y1093701D1*
X3035458Y1100252D1*
X3036229Y1106763D1*
X3037508Y1113194D1*
X3039288Y1119504D1*
X3041557Y1125655D1*
X3044302Y1131609D1*
X3047506Y1137330D1*
X3051148Y1142781D1*
X3055207Y1147930D1*
X3059658Y1152744D1*
X3064472Y1157195D1*
X3069621Y1161254D1*
X3075072Y1164896D1*
X3080793Y1168100D1*
X3086747Y1170845D1*
X3092898Y1173114D1*
X3099208Y1174894D1*
X3105639Y1176173D1*
X3112150Y1176944D1*
X3118701Y1177201D1*
X3125252Y1176944D1*
X3131763Y1176173D1*
X3138194Y1174894D1*
X3144504Y1173114D1*
X3150655Y1170845D1*
X3156609Y1168100D1*
X3162330Y1164896D1*
X3167781Y1161254D1*
X3172930Y1157195D1*
X3181169Y1149040D1*
X3189472Y1157195D1*
X3194621Y1161254D1*
X3200072Y1164896D1*
X3205793Y1168100D1*
X3211747Y1170845D1*
X3217898Y1173114D1*
X3224208Y1174894D1*
X3230639Y1176173D1*
X3237150Y1176944D1*
X3243701Y1177201D1*
X3250252Y1176944D1*
X3256763Y1176173D1*
X3263194Y1174894D1*
X3269504Y1173114D1*
X3275655Y1170845D1*
X3281609Y1168100D1*
X3287330Y1164896D1*
X3292781Y1161254D1*
X3297930Y1157195D1*
X3302744Y1152744D1*
X3307195Y1147930D1*
X3310667Y1143525D1*
X3310674Y1186927D1*
X3195415Y1302461D1*
X3189558Y1310522D1*
X3185035Y1319401D1*
X3181955Y1328877D1*
X3180397Y1338719D1*
X3180201Y1362074D1*
Y1437251D1*
X3172930Y1430207D1*
X3167781Y1426148D1*
X3162330Y1422506D1*
X3156609Y1419302D1*
X3150655Y1416557D1*
X3144504Y1414288D1*
X3138194Y1412508D1*
X3131763Y1411229D1*
X3125252Y1410458D1*
X3118701Y1410201D1*
X3112150Y1410458D1*
X3105639Y1411229D1*
X3099208Y1412508D1*
X3092898Y1414288D1*
X3082212Y1418648D1*
X3082005Y1388719D1*
X3080447Y1378877D1*
X3077367Y1369401D1*
X3072844Y1360522D1*
X3066987Y1352461D1*
X3050611Y1335808D1*
X2859941Y1145415D1*
X2851880Y1139558D1*
X2843001Y1135035D1*
X2833525Y1131955D1*
X2823683Y1130397D1*
X2800328Y1130201D1*
X2768284D1*
X2772665Y1119358D1*
X2774435Y1113083D1*
X2775706Y1106689D1*
X2776473Y1100215D1*
X2776729Y1093701D1*
X2776473Y1087187D1*
X2775706Y1080713D1*
X2774569Y1074993D1*
X2780639Y1076173D1*
X2787150Y1076944D1*
X2793701Y1077201D1*
X2800252Y1076944D1*
X2806763Y1076173D1*
X2813194Y1074894D1*
X2819504Y1073114D1*
X2825655Y1070845D1*
X2831609Y1068100D1*
X2837330Y1064896D1*
X2842781Y1061254D1*
X2847930Y1057195D1*
X2852744Y1052744D1*
X2857195Y1047930D1*
X2861254Y1042781D1*
X2864896Y1037330D1*
X2868100Y1031609D1*
X2870845Y1025655D1*
X2873114Y1019504D1*
X2874894Y1013194D1*
X2876173Y1006763D1*
X2876944Y1000252D1*
X2877201Y993701D1*
X2876944Y987150D1*
X2876173Y980639D1*
X2874894Y974208D1*
X2873114Y967898D1*
X2870845Y961747D1*
X2868100Y955793D1*
X2864896Y950072D1*
X2861254Y944621D1*
X2857195Y939472D1*
X2852744Y934658D1*
X2847930Y930207D1*
X2842781Y926148D1*
X2837330Y922506D1*
X2831609Y919302D1*
X2825655Y916557D1*
X2819504Y914288D1*
X2813194Y912508D1*
X2806763Y911229D1*
X2800252Y910458D1*
X2793701Y910201D1*
X2787150Y910458D1*
X2780639Y911229D1*
X2774585Y912433D1*
X2775706Y906689D1*
X2776473Y900215D1*
X2776729Y893701D1*
X2776473Y887187D1*
X2775706Y880713D1*
X2774435Y874319D1*
X2772665Y868044D1*
X2770408Y861928D1*
X2767679Y856007D1*
X2764494Y850319D1*
X2760872Y844899D1*
X2756836Y839779D1*
X2752410Y834992D1*
X2747623Y830566D1*
X2742503Y826530D1*
X2737083Y822908D1*
X2731395Y819723D1*
X2725474Y816994D1*
X2719358Y814737D1*
X2713083Y812967D1*
X2706689Y811696D1*
X2700215Y810929D1*
X2693701Y810673D1*
X2687187Y810929D1*
X2680713Y811696D1*
X2674319Y812967D1*
X2668044Y814737D1*
X2661928Y816994D1*
X2656007Y819723D1*
X2650319Y822908D1*
X2644899Y826530D1*
X2639779Y830566D1*
X2634992Y834992D1*
X2630566Y839779D1*
X2626530Y844899D1*
X2622908Y850319D1*
X2619723Y856007D1*
X2616994Y861928D1*
X2614737Y868044D1*
X2612967Y874319D1*
X2611696Y880713D1*
X2610929Y887187D1*
X2610673Y893701D1*
X2610929Y900215D1*
X2611696Y906689D1*
X2612967Y913083D1*
X2614737Y919358D1*
X2616994Y925474D1*
X2619723Y931395D1*
X2622908Y937083D1*
X2627460Y943683D1*
X2622908Y950319D1*
X2619723Y956007D1*
X2616994Y961928D1*
X2614737Y968044D1*
X2612967Y974319D1*
X2611696Y980713D1*
X2610929Y987187D1*
X2610673Y993701D1*
X2610929Y1000215D1*
X2611696Y1006689D1*
X2612967Y1013083D1*
X2614737Y1019358D1*
X2616994Y1025474D1*
X2619723Y1031395D1*
X2622908Y1037083D1*
X2627460Y1043683D1*
X2622908Y1050319D1*
X2619723Y1056007D1*
X2616994Y1061928D1*
X2614737Y1068044D1*
X2612967Y1074319D1*
X2611696Y1080713D1*
X2610929Y1087187D1*
X2610673Y1093701D1*
X2610929Y1100215D1*
X2611696Y1106689D1*
X2612967Y1113083D1*
X2614737Y1119358D1*
X2616994Y1125474D1*
X2619723Y1131395D1*
X2622908Y1137083D1*
X2627460Y1143683D1*
X2622908Y1150319D1*
X2619723Y1156007D1*
X2616994Y1161928D1*
X2614737Y1168044D1*
X2612967Y1174319D1*
X2611696Y1180713D1*
X2610929Y1187187D1*
X2610673Y1193701D1*
X2610929Y1200215D1*
X2611696Y1206689D1*
X2612967Y1213083D1*
X2614737Y1219358D1*
X2616994Y1225474D1*
X2621005Y1233683D1*
X2608705Y1233705D1*
Y1235033D1*
X2600370Y1233967D1*
X2593701Y1233705D1*
X2587032Y1233967D1*
X2580405Y1234751D1*
X2573859Y1236053D1*
X2567436Y1237865D1*
X2561174Y1240175D1*
X2555114Y1242969D1*
X2549291Y1246230D1*
X2543742Y1249938D1*
X2538500Y1254069D1*
X2533600Y1258600D1*
X2529069Y1263500D1*
X2524938Y1268742D1*
X2521230Y1274291D1*
X2517969Y1280114D1*
X2515175Y1286174D1*
X2512865Y1292436D1*
X2511053Y1298859D1*
X2509751Y1305405D1*
X2508967Y1312032D1*
X2508705Y1318701D1*
X2508967Y1325370D1*
X2509751Y1331997D1*
X2511053Y1338543D1*
X2512865Y1344966D1*
X2515175Y1351228D1*
X2517969Y1357288D1*
X2521230Y1363111D1*
X2524938Y1368660D1*
X2529069Y1373902D1*
X2533600Y1378802D1*
X2538500Y1383333D1*
X2543742Y1387464D1*
X2549291Y1391172D1*
X2555114Y1394433D1*
X2561174Y1397227D1*
X2567436Y1399537D1*
X2573859Y1401349D1*
X2580405Y1402651D1*
X2587032Y1403435D1*
X2593701Y1403697D1*
X2600370Y1403435D1*
X2608710Y1402310D1*
X2608705Y1403697D1*
X2710796D1*
X2711614Y1408697D1*
X2708705Y1408705D1*
Y1578697D1*
X3013904D1*
X3052461Y1616987D1*
X3060539Y1622853D1*
X3060674Y1686723D1*
Y1751728D1*
X3226729D1*
Y1749970D1*
X3237187Y1751473D1*
X3243701Y1751729D1*
X3250215Y1751473D1*
X3256689Y1750706D1*
X3263083Y1749435D1*
X3269358Y1747665D1*
X3275474Y1745408D1*
X3281395Y1742679D1*
X3287083Y1739494D1*
X3292503Y1735872D1*
X3297623Y1731836D1*
X3305850Y1723689D1*
X3314472Y1732195D1*
X3319621Y1736254D1*
X3325072Y1739896D1*
X3330793Y1743100D1*
X3336747Y1745845D1*
X3342898Y1748114D1*
X3349208Y1749894D1*
X3355639Y1751173D1*
X3362150Y1751944D1*
X3368701Y1752201D1*
X3375252Y1751944D1*
X3381763Y1751173D1*
X3388194Y1749894D1*
X3394504Y1748114D1*
X3400655Y1745845D1*
X3406609Y1743100D1*
X3412330Y1739896D1*
X3417781Y1736254D1*
X3422930Y1732195D1*
X3427744Y1727744D1*
X3432195Y1722930D1*
X3436254Y1717781D1*
X3439896Y1712330D1*
X3443100Y1706609D1*
X3445845Y1700655D1*
X3448114Y1694504D1*
X3449894Y1688194D1*
X3451173Y1681763D1*
X3451944Y1675252D1*
X3452201Y1668701D1*
X3451944Y1662150D1*
X3451173Y1655639D1*
X3449894Y1649208D1*
X3448114Y1642898D1*
X3443754Y1632212D1*
X3573683Y1632005D1*
X3583525Y1630447D1*
X3593001Y1627367D1*
X3601880Y1622844D1*
X3609941Y1616987D1*
X3626594Y1600611D1*
X3741987Y1484941D1*
X3747844Y1476880D1*
X3752367Y1468001D1*
X3755447Y1458525D1*
X3757005Y1448683D1*
X3757201Y1425328D1*
Y1403690D1*
X3778697Y1403697D1*
Y1233705D1*
X3766461D1*
X3770408Y1225474D1*
X3772665Y1219358D1*
X3774435Y1213083D1*
X3775706Y1206689D1*
X3776473Y1200215D1*
X3776729Y1193701D1*
X3776473Y1187187D1*
X3775706Y1180713D1*
X3774435Y1174319D1*
X3772665Y1168044D1*
X3770408Y1161928D1*
X3767679Y1156007D1*
X3764494Y1150319D1*
X3759942Y1143719D1*
X3764494Y1137083D1*
X3767679Y1131395D1*
X3770408Y1125474D1*
X3772665Y1119358D1*
X3774435Y1113083D1*
X3775706Y1106689D1*
X3776473Y1100215D1*
X3776729Y1093701D1*
X3776473Y1087187D1*
X3775706Y1080713D1*
X3774435Y1074319D1*
X3772665Y1068044D1*
X3770408Y1061928D1*
X3767679Y1056007D1*
X3764494Y1050319D1*
X3759942Y1043719D1*
X3764494Y1037083D1*
X3767679Y1031395D1*
X3770408Y1025474D1*
X3772665Y1019358D1*
X3774435Y1013083D1*
X3775706Y1006689D1*
X3776473Y1000215D1*
X3776729Y993701D1*
X3776473Y987187D1*
X3775706Y980713D1*
X3774435Y974319D1*
X3772665Y968044D1*
X3770408Y961928D1*
X3767679Y956007D1*
X3764494Y950319D1*
X3759942Y943719D1*
X3764494Y937083D1*
X3767679Y931395D1*
X3770408Y925474D1*
X3772665Y919358D1*
X3774435Y913083D1*
X3775706Y906689D1*
X3776473Y900215D1*
X3776729Y893701D1*
X3776473Y887187D1*
X3775706Y880713D1*
X3774435Y874319D1*
X3772665Y868044D1*
X3770408Y861928D1*
X3767679Y856007D1*
X3764494Y850319D1*
X3760872Y844899D1*
X3756836Y839779D1*
X3752410Y834992D1*
X3747623Y830566D1*
X3742503Y826530D1*
X3737083Y822908D1*
X3731395Y819723D1*
X3725474Y816994D1*
X3719358Y814737D1*
X3713083Y812967D1*
X3706689Y811696D1*
X3700215Y810929D1*
X3693701Y810673D1*
X3687187Y810929D1*
X3680713Y811696D1*
X3674319Y812967D1*
X3668044Y814737D1*
X3657187Y819179D1*
X3657005Y663719D1*
X3655447Y653877D1*
X3652367Y644401D1*
X3647844Y635522D1*
X3641987Y627461D1*
X3625611Y610808D1*
X3559941Y545415D1*
X3551880Y539558D1*
X3543001Y535035D1*
X3533525Y531955D1*
X3523683Y530397D1*
X3500328Y530201D1*
X3297906D1*
X3292781Y526148D1*
X3287330Y522506D1*
X3281609Y519302D1*
X3275655Y516557D1*
X3269504Y514288D1*
X3263194Y512508D1*
X3256763Y511229D1*
X3250252Y510458D1*
X3243701Y510201D1*
X3237150Y510458D1*
X3230639Y511229D1*
X3224208Y512508D1*
X3217898Y514288D1*
X3211747Y516557D1*
X3205793Y519302D1*
X3200072Y522506D1*
X3194621Y526148D1*
X3189472Y530207D1*
X3181233Y538362D1*
X3172930Y530207D1*
X3167781Y526148D1*
X3162330Y522506D1*
X3156609Y519302D1*
X3150655Y516557D1*
X3144504Y514288D1*
X3138194Y512508D1*
X3131763Y511229D1*
X3125252Y510458D1*
X3118701Y510201D1*
X3112150Y510458D1*
X3105639Y511229D1*
X3099208Y512508D1*
X3092898Y514288D1*
X3086747Y516557D1*
X3080793Y519302D1*
X3075072Y522506D1*
X3069621Y526148D1*
X3064472Y530207D1*
X3059658Y534658D1*
X3055207Y539472D1*
X3051148Y544621D1*
X3047506Y550072D1*
X3044302Y555793D1*
X3041557Y561747D1*
X3039288Y567898D1*
X3037508Y574208D1*
X3036229Y580639D1*
X3035458Y587150D1*
X3035201Y593701D1*
X3036045Y605212D1*
X2878678Y605201D1*
X2878697Y508705D1*
X2708705D1*
Y605197D1*
X2477923Y605201D1*
X2478697Y593701D1*
X2478435Y587032D1*
X2477651Y580405D1*
X2476349Y573859D1*
X2474537Y567436D1*
X2472227Y561174D1*
X2469433Y555114D1*
X2466172Y549291D1*
X2462464Y543742D1*
X2458333Y538500D1*
X2453802Y533600D1*
X2448902Y529069D1*
X2443660Y524938D1*
X2438111Y521230D1*
X2432288Y517969D1*
X2426228Y515175D1*
X2419966Y512865D1*
X2413543Y511053D1*
X2406997Y509751D1*
X2400370Y508967D1*
X2393701Y508705D1*
X2387032Y508967D1*
X2380405Y509751D1*
X2373859Y511053D1*
X2367436Y512865D1*
X2361174Y515175D1*
X2355114Y517969D1*
X2349291Y521230D1*
X2343742Y524938D1*
X2338500Y529069D1*
X2333600Y533600D1*
X2329069Y538500D1*
X2324938Y543742D1*
X2321230Y549291D1*
X2317871Y555327D1*
X2314896Y550072D1*
X2311254Y544621D1*
X2307195Y539472D1*
X2302744Y534658D1*
X2297930Y530207D1*
X2292781Y526148D1*
X2287330Y522506D1*
X2281609Y519302D1*
X2275655Y516557D1*
X2269504Y514288D1*
X2263194Y512508D1*
X2256763Y511229D1*
X2250252Y510458D1*
X2243701Y510201D1*
X2237150Y510458D1*
X2230639Y511229D1*
X2224208Y512508D1*
X2217898Y514288D1*
X2211747Y516557D1*
X2205793Y519302D1*
X2200072Y522506D1*
X2194621Y526148D1*
X2189472Y530207D1*
X2184658Y534658D1*
X2180207Y539472D1*
X2176148Y544621D1*
X2172506Y550072D1*
X2169302Y555793D1*
X2166557Y561747D1*
X2164288Y567898D1*
X2162508Y574208D1*
X2161229Y580639D1*
X2160458Y587150D1*
X2160201Y593701D1*
X2160458Y600252D1*
X2161229Y606763D1*
X2162508Y613194D1*
X2164288Y619504D1*
X2166557Y625655D1*
X2169302Y631609D1*
X2172506Y637330D1*
X2176148Y642781D1*
X2180207Y647930D1*
X2184658Y652744D1*
X2189472Y657195D1*
X2194621Y661254D1*
X2200072Y664896D1*
X2205793Y668100D1*
X2211747Y670845D1*
X2217898Y673114D1*
X2224208Y674894D1*
X2230639Y676173D1*
X2237150Y676944D1*
X2243701Y677201D1*
X2250252Y676944D1*
X2256763Y676173D1*
X2263194Y674894D1*
X2269504Y673114D1*
X2275655Y670845D1*
X2281609Y668100D1*
X2287330Y664896D1*
X2292781Y661254D1*
X2297930Y657195D1*
X2302744Y652744D1*
X2307195Y647930D1*
X2311254Y642781D1*
X2314896Y637330D1*
X2317969Y632288D1*
X2321230Y638111D1*
X2324938Y643660D1*
X2329069Y648902D1*
X2333600Y653802D1*
X2338500Y658333D1*
X2343742Y662464D1*
X2349291Y666172D1*
X2353863Y668732D1*
X2345415Y677461D1*
X2339558Y685522D1*
X2335035Y694401D1*
X2331955Y703877D1*
X2330980Y708787D1*
X2329069Y713500D1*
X2324938Y718742D1*
X2321230Y724291D1*
X2317969Y730114D1*
X2315175Y736174D1*
X2312865Y742436D1*
X2311053Y748859D1*
X2309751Y755405D1*
X2308967Y762032D1*
X2308705Y768701D1*
X2308967Y775370D1*
X2309751Y781997D1*
X2311053Y788543D1*
X2312865Y794966D1*
X2315175Y801228D1*
X2317969Y807288D1*
X2321230Y813111D1*
X2324938Y818660D1*
X2329069Y823902D1*
X2335112Y830200D1*
X2144433Y830114D1*
X2141172Y824291D1*
X2137464Y818742D1*
X2133333Y813500D1*
X2125146Y805220D1*
X2132195Y797930D1*
X2136254Y792781D1*
X2139896Y787330D1*
X2143100Y781609D1*
X2145845Y775655D1*
X2148114Y769504D1*
X2149894Y763194D1*
X2151173Y756763D1*
X2151944Y750252D1*
X2152201Y743701D1*
X2151944Y737150D1*
X2151173Y730639D1*
X2149894Y724208D1*
X2148114Y717898D1*
X2145845Y711747D1*
X2143100Y705793D1*
X2139896Y700072D1*
X2136254Y694621D1*
X2132195Y689472D1*
X2127744Y684658D1*
X2122930Y680207D1*
X2117781Y676148D1*
X2112330Y672506D1*
X2106609Y669302D1*
X2100655Y666557D1*
X2094504Y664288D1*
X2088194Y662508D1*
X2081763Y661229D1*
X2075252Y660458D1*
X2068701Y660201D1*
X2062150Y660458D1*
X2055639Y661229D1*
X2049208Y662508D1*
X2042898Y664288D1*
X2036747Y666557D1*
X2030793Y669302D1*
X2025072Y672506D1*
X2019621Y676148D1*
X2014472Y680207D1*
X2009658Y684658D1*
X2005207Y689472D1*
X2001148Y694621D1*
X1997506Y700072D1*
X1994302Y705793D1*
X1991557Y711747D1*
X1989288Y717898D1*
X1987508Y724208D1*
X1986229Y730639D1*
X1985458Y737150D1*
X1985201Y743701D1*
X1985458Y750252D1*
X1986229Y756763D1*
X1987508Y763194D1*
X1989288Y769504D1*
X1991557Y775655D1*
X1994302Y781609D1*
X1997506Y787330D1*
X2001148Y792781D1*
X2005207Y797930D1*
X2012272Y805161D1*
X2004069Y813500D1*
X1999938Y818742D1*
X1996230Y824291D1*
X1992969Y830114D1*
X1990175Y836174D1*
X1987865Y842436D1*
X1986053Y848859D1*
X1984751Y855405D1*
X1983967Y862032D1*
X1983705Y868701D1*
X1983967Y875370D1*
X1984751Y881997D1*
X1986053Y888543D1*
X1987865Y894966D1*
X1990175Y901228D1*
X1992969Y907288D1*
X1996230Y913111D1*
X1999938Y918660D1*
X2004069Y923902D1*
X2008600Y928802D1*
X2013930Y933671D1*
X1742422Y1205177D1*
X1628717Y1205201D1*
X1628697Y1108705D1*
X1458705D1*
Y1278697D1*
X1519385D1*
X1514558Y1285522D1*
X1510035Y1294401D1*
X1506955Y1303877D1*
X1505980Y1308787D1*
X1504069Y1313500D1*
X1499938Y1318742D1*
X1496230Y1324291D1*
X1492969Y1330114D1*
X1490175Y1336174D1*
X1487865Y1342436D1*
X1486053Y1348859D1*
X1484751Y1355405D1*
X1483967Y1362032D1*
X1483705Y1368701D1*
X1483967Y1375370D1*
X1484751Y1381997D1*
X1486053Y1388543D1*
X1487865Y1394966D1*
X1490175Y1401228D1*
X1492969Y1407288D1*
X1496230Y1413111D1*
X1499938Y1418660D1*
X1504069Y1423902D1*
X1508600Y1428802D1*
X1512601Y1432501D1*
X1505566Y1439779D1*
X1501530Y1444899D1*
X1497908Y1450319D1*
X1494723Y1456007D1*
X1491994Y1461928D1*
X1489737Y1468044D1*
X1487967Y1474319D1*
X1486696Y1480713D1*
X1485929Y1487187D1*
X1485673Y1493701D1*
X1485929Y1500215D1*
X1486696Y1506689D1*
X1487967Y1513083D1*
X1489737Y1519358D1*
X1491994Y1525474D1*
X1494723Y1531395D1*
X1497908Y1537083D1*
X1502460Y1543683D1*
X1497908Y1550319D1*
X1494723Y1556007D1*
X1491994Y1561928D1*
X1489737Y1568044D1*
X1487967Y1574319D1*
X1486696Y1580713D1*
X1485929Y1587187D1*
X1485673Y1593701D1*
X1485929Y1600215D1*
X1486696Y1606689D1*
X1487967Y1613083D1*
X1489737Y1619358D1*
X1491994Y1625474D1*
X1494723Y1631395D1*
X1497908Y1637083D1*
X1502460Y1643683D1*
X1497908Y1650319D1*
X1494723Y1656007D1*
X1491994Y1661928D1*
X1489737Y1668044D1*
X1487967Y1674319D1*
X1486696Y1680713D1*
X1485929Y1687187D1*
X1485673Y1693701D1*
X1485929Y1700215D1*
X1487486Y1710661D1*
X1485674Y1710673D1*
Y1876728D1*
X1651729D1*
Y1710673D1*
X1649971D1*
X1651473Y1700215D1*
X1651729Y1693701D1*
X1651473Y1687187D1*
X1650706Y1680713D1*
X1649435Y1674319D1*
X1647665Y1668044D1*
X1645408Y1661928D1*
X1642679Y1656007D1*
X1639494Y1650319D1*
X1634942Y1643719D1*
X1639494Y1637083D1*
X1642679Y1631395D1*
X1645408Y1625474D1*
X1647665Y1619358D1*
X1649435Y1613083D1*
X1650706Y1606689D1*
X1651473Y1600215D1*
X1651729Y1593701D1*
X1651473Y1587187D1*
X1650706Y1580713D1*
X1649435Y1574319D1*
X1647665Y1568044D1*
X1645408Y1561928D1*
X1642679Y1556007D1*
X1639494Y1550319D1*
X1634942Y1543719D1*
X1639494Y1537083D1*
X1642679Y1531395D1*
X1645408Y1525474D1*
X1647665Y1519358D1*
X1649435Y1513083D1*
X1650706Y1506689D1*
X1651473Y1500215D1*
X1651729Y1493701D1*
X1651473Y1487187D1*
X1650706Y1480713D1*
X1649435Y1474319D1*
X1647665Y1468044D1*
X1645408Y1461928D1*
X1641397Y1453719D1*
X1753697Y1453697D1*
Y1332229D1*
X1773683Y1332005D1*
X1783525Y1330447D1*
X1793001Y1327367D1*
X1801880Y1322844D1*
X1809941Y1316987D1*
X1826594Y1300611D1*
X1878737Y1248467D1*
X1883600Y1253802D1*
X1888500Y1258333D1*
X1893742Y1262464D1*
X1899291Y1266172D1*
X1905114Y1269433D1*
X1911174Y1272227D1*
X1917436Y1274537D1*
X1923859Y1276349D1*
X1930405Y1277651D1*
X1937032Y1278435D1*
X1943701Y1278697D1*
X1950370Y1278435D1*
X1956997Y1277651D1*
X1963543Y1276349D1*
X1969966Y1274537D1*
X1976228Y1272227D1*
X1982288Y1269433D1*
X1988111Y1266172D1*
X1993660Y1262464D1*
X1998902Y1258333D1*
X2003802Y1253802D1*
X2008333Y1248902D1*
X2012464Y1243660D1*
X2016172Y1238111D1*
X2019433Y1232288D1*
X2022227Y1226228D1*
X2024537Y1219966D1*
X2026349Y1213543D1*
X2027651Y1206997D1*
X2028435Y1200370D1*
X2028697Y1193701D1*
X2028435Y1187032D1*
X1592891Y953697D2*
X1753697D1*
Y783705D1*
X1741963D1*
X1745845Y775655D1*
X1748114Y769504D1*
X1749894Y763194D1*
X1751173Y756763D1*
X1751944Y750252D1*
X1752201Y743701D1*
X1751944Y737150D1*
X1751173Y730639D1*
X1749894Y724208D1*
X1748114Y717898D1*
X1745845Y711747D1*
X1743100Y705793D1*
X1739896Y700072D1*
X1736254Y694621D1*
X1732195Y689472D1*
X1727744Y684658D1*
X1722930Y680207D1*
X1717781Y676148D1*
X1712330Y672506D1*
X1706609Y669302D1*
X1700655Y666557D1*
X1694504Y664288D1*
X1688194Y662508D1*
X1681763Y661229D1*
X1675252Y660458D1*
X1668701Y660201D1*
X1662150Y660458D1*
X1655639Y661229D1*
X1649208Y662508D1*
X1642898Y664288D1*
X1636747Y666557D1*
X1630793Y669302D1*
X1625072Y672506D1*
X1619621Y676148D1*
X1614472Y680207D1*
X1609658Y684658D1*
X1605207Y689472D1*
X1601148Y694621D1*
X1597506Y700072D1*
X1594302Y705793D1*
X1591557Y711747D1*
X1589288Y717898D1*
X1587508Y724208D1*
X1586229Y730639D1*
X1585458Y737150D1*
X1585201Y743701D1*
X1585458Y750252D1*
X1586229Y756763D1*
X1587508Y763194D1*
X1589288Y769504D1*
X1591557Y775655D1*
X1595466Y783687D1*
X1583705Y783705D1*
Y953697D1*
X1592891D1*
X2478435Y1487032D2*
X2477651Y1480405D1*
X2476349Y1473859D1*
X2474537Y1467436D1*
X2472227Y1461174D1*
X2469433Y1455114D1*
X2466172Y1449291D1*
X2462464Y1443742D1*
X2458333Y1438500D1*
X2453802Y1433600D1*
X2448902Y1429069D1*
X2443660Y1424938D1*
X2438111Y1421230D1*
X2432288Y1417969D1*
X2426228Y1415175D1*
X2419966Y1412865D1*
X2413543Y1411053D1*
X2406997Y1409751D1*
X2400370Y1408967D1*
X2393701Y1408705D1*
X2387032Y1408967D1*
X2380405Y1409751D1*
X2373859Y1411053D1*
X2367436Y1412865D1*
X2361174Y1415175D1*
X2355114Y1417969D1*
X2349291Y1421230D1*
X2343742Y1424938D1*
X2338500Y1429069D1*
X2333600Y1433600D1*
X2329069Y1438500D1*
X2324938Y1443742D1*
X2321230Y1449291D1*
X2317969Y1455114D1*
X2315175Y1461174D1*
X2312865Y1467436D1*
X2311053Y1473859D1*
X2309751Y1480405D1*
X2308967Y1487032D1*
X2308705Y1493701D1*
X2308967Y1500370D1*
X2309751Y1506997D1*
X2311053Y1513543D1*
X2312865Y1519966D1*
X2315175Y1526228D1*
X2317969Y1532288D1*
X2321230Y1538111D1*
X2324938Y1543660D1*
X2329069Y1548902D1*
X2333600Y1553802D1*
X2338500Y1558333D1*
X2343742Y1562464D1*
X2349291Y1566172D1*
X2355114Y1569433D1*
X2361174Y1572227D1*
X2367436Y1574537D1*
X2373859Y1576349D1*
X2380405Y1577651D1*
X2387032Y1578435D1*
X2393701Y1578697D1*
X2400370Y1578435D1*
X2406997Y1577651D1*
X2413543Y1576349D1*
X2419966Y1574537D1*
X2426228Y1572227D1*
X2432288Y1569433D1*
X2438111Y1566172D1*
X2443660Y1562464D1*
X2448902Y1558333D1*
X2453802Y1553802D1*
X2458333Y1548902D1*
X2462464Y1543660D1*
X2466172Y1538111D1*
X2469433Y1532288D1*
X2472227Y1526228D1*
X2474537Y1519966D1*
X2476349Y1513543D1*
X2477651Y1506997D1*
X2478435Y1500370D1*
X2478697Y1493701D1*
X2478435Y1487032D1*
X3028435Y1087032D2*
X3027651Y1080405D1*
X3026349Y1073859D1*
X3024537Y1067436D1*
X3022227Y1061174D1*
X3019433Y1055114D1*
X3016172Y1049291D1*
X3012464Y1043742D1*
X3008333Y1038500D1*
X3003802Y1033600D1*
X2998902Y1029069D1*
X2993660Y1024938D1*
X2988111Y1021230D1*
X2982288Y1017969D1*
X2976228Y1015175D1*
X2969966Y1012865D1*
X2963543Y1011053D1*
X2956997Y1009751D1*
X2950370Y1008967D1*
X2943701Y1008705D1*
X2937032Y1008967D1*
X2930405Y1009751D1*
X2923859Y1011053D1*
X2917436Y1012865D1*
X2911174Y1015175D1*
X2905114Y1017969D1*
X2899291Y1021230D1*
X2893742Y1024938D1*
X2888500Y1029069D1*
X2883600Y1033600D1*
X2879069Y1038500D1*
X2874938Y1043742D1*
X2871230Y1049291D1*
X2867969Y1055114D1*
X2865175Y1061174D1*
X2862865Y1067436D1*
X2861053Y1073859D1*
X2859751Y1080405D1*
X2858967Y1087032D1*
X2858705Y1093701D1*
X2858967Y1100370D1*
X2859751Y1106997D1*
X2861053Y1113543D1*
X2862865Y1119966D1*
X2865175Y1126228D1*
X2867969Y1132288D1*
X2871230Y1138111D1*
X2874938Y1143660D1*
X2879069Y1148902D1*
X2883600Y1153802D1*
X2888500Y1158333D1*
X2893742Y1162464D1*
X2899291Y1166172D1*
X2905114Y1169433D1*
X2911174Y1172227D1*
X2917436Y1174537D1*
X2923859Y1176349D1*
X2930405Y1177651D1*
X2937032Y1178435D1*
X2943701Y1178697D1*
X2950370Y1178435D1*
X2956997Y1177651D1*
X2963543Y1176349D1*
X2969966Y1174537D1*
X2976228Y1172227D1*
X2982288Y1169433D1*
X2988111Y1166172D1*
X2993660Y1162464D1*
X2998902Y1158333D1*
X3003802Y1153802D1*
X3008333Y1148902D1*
X3012464Y1143660D1*
X3016172Y1138111D1*
X3019433Y1132288D1*
X3022227Y1126228D1*
X3024537Y1119966D1*
X3026349Y1113543D1*
X3027651Y1106997D1*
X3028435Y1100370D1*
X3028697Y1093701D1*
X3028435Y1087032D1*
X2943903Y1408705D2*
X2875866D1*
X2876944Y1400252D1*
X2877201Y1393701D1*
X2876944Y1387150D1*
X2876173Y1380639D1*
X2874894Y1374208D1*
X2873114Y1367898D1*
X2870845Y1361747D1*
X2868100Y1355793D1*
X2864896Y1350072D1*
X2861254Y1344621D1*
X2857195Y1339472D1*
X2852744Y1334658D1*
X2847930Y1330207D1*
X2842781Y1326148D1*
X2837330Y1322506D1*
X2831609Y1319302D1*
X2825655Y1316557D1*
X2819504Y1314288D1*
X2813194Y1312508D1*
X2806763Y1311229D1*
X2800252Y1310458D1*
X2793701Y1310201D1*
X2787150Y1310458D1*
X2778705Y1311614D1*
X2778697Y1257182D1*
X2792418Y1257201D1*
X2943881Y1408684D1*
X3953435Y987032D2*
X3952651Y980405D1*
X3951349Y973859D1*
X3949537Y967436D1*
X3947227Y961174D1*
X3944433Y955114D1*
X3941172Y949291D1*
X3937464Y943742D1*
X3933333Y938500D1*
X3928802Y933600D1*
X3923902Y929069D1*
X3918660Y924938D1*
X3913111Y921230D1*
X3907288Y917969D1*
X3901228Y915175D1*
X3894966Y912865D1*
X3888543Y911053D1*
X3881997Y909751D1*
X3875370Y908967D1*
X3868701Y908705D1*
X3862032Y908967D1*
X3855405Y909751D1*
X3848859Y911053D1*
X3842436Y912865D1*
X3836174Y915175D1*
X3830114Y917969D1*
X3824291Y921230D1*
X3818742Y924938D1*
X3813500Y929069D1*
X3808600Y933600D1*
X3804069Y938500D1*
X3799938Y943742D1*
X3796230Y949291D1*
X3792969Y955114D1*
X3790175Y961174D1*
X3787865Y967436D1*
X3786053Y973859D1*
X3784751Y980405D1*
X3783967Y987032D1*
X3783705Y993701D1*
X3783967Y1000370D1*
X3784751Y1006997D1*
X3786053Y1013543D1*
X3787865Y1019966D1*
X3790175Y1026228D1*
X3792969Y1032288D1*
X3796230Y1038111D1*
X3799938Y1043660D1*
X3804069Y1048902D1*
X3808600Y1053802D1*
X3813500Y1058333D1*
X3818742Y1062464D1*
X3824291Y1066172D1*
X3830114Y1069433D1*
X3836174Y1072227D1*
X3842436Y1074537D1*
X3848859Y1076349D1*
X3855405Y1077651D1*
X3862032Y1078435D1*
X3868701Y1078697D1*
X3875370Y1078435D1*
X3881997Y1077651D1*
X3888543Y1076349D1*
X3894966Y1074537D1*
X3901228Y1072227D1*
X3907288Y1069433D1*
X3913111Y1066172D1*
X3918660Y1062464D1*
X3923902Y1058333D1*
X3928802Y1053802D1*
X3933333Y1048902D1*
X3937464Y1043660D1*
X3941172Y1038111D1*
X3944433Y1032288D1*
X3947227Y1026228D1*
X3949537Y1019966D1*
X3951349Y1013543D1*
X3952651Y1006997D1*
X3953435Y1000370D1*
X3953697Y993701D1*
X3953435Y987032D1*
X3792891Y1478697D2*
X3953697D1*
Y1308705D1*
X3783705D1*
Y1478697D1*
X3792891D1*
X3608710Y1235092D2*
X3600370Y1233967D1*
X3593701Y1233705D1*
X3587032Y1233967D1*
X3580405Y1234751D1*
X3573859Y1236053D1*
X3567436Y1237865D1*
X3561174Y1240175D1*
X3555114Y1242969D1*
X3549291Y1246230D1*
X3543742Y1249938D1*
X3538500Y1254069D1*
X3533600Y1258600D1*
X3529069Y1263500D1*
X3524938Y1268742D1*
X3521230Y1274291D1*
X3517969Y1280114D1*
X3515175Y1286174D1*
X3512865Y1292436D1*
X3511053Y1298859D1*
X3509751Y1305405D1*
X3508967Y1312032D1*
X3508705Y1318701D1*
X3508967Y1325370D1*
X3509751Y1331997D1*
X3511053Y1338543D1*
X3512865Y1344966D1*
X3515175Y1351228D1*
X3517969Y1357288D1*
X3521230Y1363111D1*
X3524938Y1368660D1*
X3529069Y1373902D1*
X3533600Y1378802D1*
X3538500Y1383333D1*
X3543742Y1387464D1*
X3549291Y1391172D1*
X3555114Y1394433D1*
X3561174Y1397227D1*
X3567436Y1399537D1*
X3573859Y1401349D1*
X3580405Y1402651D1*
X3587032Y1403435D1*
X3593701Y1403697D1*
X3600370Y1403435D1*
X3608710Y1402310D1*
X3608705Y1403697D1*
X3630200D1*
X3630201Y1417418D1*
X3542407Y1505193D1*
X3326375Y1505201D1*
X3327201Y1493701D1*
X3326944Y1487150D1*
X3326173Y1480639D1*
X3324894Y1474208D1*
X3323114Y1467898D1*
X3320845Y1461747D1*
X3318100Y1455793D1*
X3314896Y1450072D1*
X3311254Y1444621D1*
X3307211Y1439492D1*
X3307201Y1370008D1*
X3400476Y1276729D1*
X3476729Y1276728D1*
Y1110673D1*
X3474970D1*
X3476473Y1100215D1*
X3476729Y1093701D1*
X3476473Y1087187D1*
X3475706Y1080713D1*
X3474435Y1074319D1*
X3472665Y1068044D1*
X3470408Y1061928D1*
X3467679Y1056007D1*
X3464494Y1050319D1*
X3459942Y1043719D1*
X3464494Y1037083D1*
X3467679Y1031395D1*
X3470408Y1025474D1*
X3472665Y1019358D1*
X3474435Y1013083D1*
X3475706Y1006689D1*
X3476473Y1000215D1*
X3476729Y993701D1*
X3476473Y987187D1*
X3475706Y980713D1*
X3474435Y974319D1*
X3472665Y968044D1*
X3470408Y961928D1*
X3467679Y956007D1*
X3464494Y950319D1*
X3459942Y943719D1*
X3464494Y937083D1*
X3467679Y931395D1*
X3470408Y925474D1*
X3472665Y919358D1*
X3474435Y913083D1*
X3475706Y906689D1*
X3476473Y900215D1*
X3476729Y893701D1*
X3476473Y887187D1*
X3475706Y880713D1*
X3474435Y874319D1*
X3472665Y868044D1*
X3470408Y861928D1*
X3466397Y853719D1*
X3530173Y853697D1*
X3530201Y993701D1*
X3530983Y1003635D1*
X3533309Y1013324D1*
X3537122Y1022529D1*
X3542328Y1031025D1*
X3548814Y1038616D1*
X3610991Y1100794D1*
X3611696Y1106689D1*
X3612967Y1113083D1*
X3614737Y1119358D1*
X3616994Y1125474D1*
X3619723Y1131395D1*
X3622908Y1137083D1*
X3627460Y1143683D1*
X3622908Y1150319D1*
X3619723Y1156007D1*
X3616994Y1161928D1*
X3614737Y1168044D1*
X3612967Y1174319D1*
X3611696Y1180713D1*
X3610929Y1187187D1*
X3610673Y1193701D1*
X3610929Y1200215D1*
X3611696Y1206689D1*
X3612967Y1213083D1*
X3614737Y1219358D1*
X3616994Y1225474D1*
X3621005Y1233683D1*
X3608705Y1233705D1*
Y1235033D1*
X3518878Y683705D2*
X3446679D1*
X3441987Y677461D1*
X3425611Y660808D1*
X3421982Y657180D1*
X3492414Y657201D1*
X3518889Y683692D1*
X2369860Y1776728D2*
X2526729D1*
Y1774970D1*
X2537187Y1776473D1*
X2543701Y1776729D1*
X2550215Y1776473D1*
X2556689Y1775706D1*
X2563083Y1774435D1*
X2569358Y1772665D1*
X2575474Y1770408D1*
X2581395Y1767679D1*
X2587083Y1764494D1*
X2592503Y1760872D1*
X2597623Y1756836D1*
X2602410Y1752410D1*
X2606836Y1747623D1*
X2610872Y1742503D1*
X2614494Y1737083D1*
X2617679Y1731395D1*
X2620408Y1725474D1*
X2622665Y1719358D1*
X2624435Y1713083D1*
X2625706Y1706689D1*
X2626473Y1700215D1*
X2626729Y1693701D1*
X2626473Y1687187D1*
X2625706Y1680713D1*
X2624435Y1674319D1*
X2622665Y1668044D1*
X2620408Y1661928D1*
X2617679Y1656007D1*
X2614494Y1650319D1*
X2610872Y1644899D1*
X2606836Y1639779D1*
X2602410Y1634992D1*
X2597623Y1630566D1*
X2592503Y1626530D1*
X2587083Y1622908D1*
X2581395Y1619723D1*
X2575474Y1616994D1*
X2569358Y1614737D1*
X2563083Y1612967D1*
X2556689Y1611696D1*
X2550215Y1610929D1*
X2543701Y1610673D1*
X2537187Y1610929D1*
X2526741Y1612486D1*
X2526729Y1610673D1*
X2360674D1*
Y1776728D1*
X2369860D1*
X519860Y1376728D2*
X676729D1*
Y1210673D1*
X674970D1*
X676473Y1200215D1*
X676729Y1193701D1*
X676473Y1187187D1*
X675706Y1180713D1*
X674435Y1174319D1*
X672665Y1168044D1*
X670408Y1161928D1*
X667679Y1156007D1*
X664494Y1150319D1*
X659942Y1143719D1*
X664494Y1137083D1*
X667679Y1131395D1*
X670408Y1125474D1*
X672665Y1119358D1*
X674435Y1113083D1*
X675706Y1106689D1*
X676473Y1100215D1*
X676729Y1093701D1*
X676473Y1087187D1*
X675706Y1080713D1*
X674435Y1074319D1*
X672665Y1068044D1*
X670408Y1061928D1*
X667679Y1056007D1*
X664494Y1050319D1*
X659942Y1043719D1*
X664494Y1037083D1*
X667679Y1031395D1*
X670408Y1025474D1*
X672665Y1019358D1*
X674435Y1013083D1*
X675706Y1006689D1*
X676473Y1000215D1*
X676729Y993701D1*
X676473Y987187D1*
X675706Y980713D1*
X674435Y974319D1*
X672665Y968044D1*
X670408Y961928D1*
X667679Y956007D1*
X664494Y950319D1*
X660872Y944899D1*
X656836Y939779D1*
X652410Y934992D1*
X647623Y930566D1*
X642503Y926530D1*
X637083Y922908D1*
X631395Y919723D1*
X625474Y916994D1*
X619358Y914737D1*
X613083Y912967D1*
X606689Y911696D1*
X600215Y910929D1*
X593701Y910673D1*
X587187Y910929D1*
X580713Y911696D1*
X574319Y912967D1*
X568044Y914737D1*
X561928Y916994D1*
X556007Y919723D1*
X550319Y922908D1*
X544899Y926530D1*
X539779Y930566D1*
X534992Y934992D1*
X530566Y939779D1*
X526530Y944899D1*
X522908Y950319D1*
X519723Y956007D1*
X516994Y961928D1*
X514737Y968044D1*
X512967Y974319D1*
X511696Y980713D1*
X510929Y987187D1*
X510673Y993701D1*
X510929Y1000215D1*
X511696Y1006689D1*
X512967Y1013083D1*
X514737Y1019358D1*
X516994Y1025474D1*
X519723Y1031395D1*
X522908Y1037083D1*
X527460Y1043683D1*
X522908Y1050319D1*
X519723Y1056007D1*
X516994Y1061928D1*
X514737Y1068044D1*
X512967Y1074319D1*
X511696Y1080713D1*
X510929Y1087187D1*
X510673Y1093701D1*
X510929Y1100215D1*
X511696Y1106689D1*
X512967Y1113083D1*
X514737Y1119358D1*
X516994Y1125474D1*
X519723Y1131395D1*
X522908Y1137083D1*
X527460Y1143683D1*
X522908Y1150319D1*
X519723Y1156007D1*
X516994Y1161928D1*
X514737Y1168044D1*
X512967Y1174319D1*
X511696Y1180713D1*
X510929Y1187187D1*
X510673Y1193701D1*
X510929Y1200215D1*
X512486Y1210661D1*
X510674Y1210673D1*
Y1376728D1*
X519860D1*
X2226944Y1387150D2*
X2226173Y1380639D1*
X2224894Y1374208D1*
X2223114Y1367898D1*
X2220845Y1361747D1*
X2218100Y1355793D1*
X2214896Y1350072D1*
X2211254Y1344621D1*
X2207195Y1339472D1*
X2202744Y1334658D1*
X2197930Y1330207D1*
X2192781Y1326148D1*
X2187330Y1322506D1*
X2181609Y1319302D1*
X2175655Y1316557D1*
X2169504Y1314288D1*
X2163194Y1312508D1*
X2156763Y1311229D1*
X2150252Y1310458D1*
X2143701Y1310201D1*
X2137150Y1310458D1*
X2130639Y1311229D1*
X2124208Y1312508D1*
X2117898Y1314288D1*
X2111747Y1316557D1*
X2105793Y1319302D1*
X2100072Y1322506D1*
X2094621Y1326148D1*
X2089472Y1330207D1*
X2084658Y1334658D1*
X2080207Y1339472D1*
X2076148Y1344621D1*
X2072506Y1350072D1*
X2069302Y1355793D1*
X2066557Y1361747D1*
X2064288Y1367898D1*
X2062508Y1374208D1*
X2061229Y1380639D1*
X2060458Y1387150D1*
X2060201Y1393701D1*
X2060458Y1400252D1*
X2061229Y1406763D1*
X2062508Y1413194D1*
X2064288Y1419504D1*
X2066557Y1425655D1*
X2069302Y1431609D1*
X2072506Y1437330D1*
X2076148Y1442781D1*
X2080207Y1447930D1*
X2084658Y1452744D1*
X2089472Y1457195D1*
X2094621Y1461254D1*
X2100072Y1464896D1*
X2105793Y1468100D1*
X2111747Y1470845D1*
X2117898Y1473114D1*
X2124208Y1474894D1*
X2130639Y1476173D1*
X2137150Y1476944D1*
X2143701Y1477201D1*
X2150252Y1476944D1*
X2156763Y1476173D1*
X2163194Y1474894D1*
X2169504Y1473114D1*
X2175655Y1470845D1*
X2181609Y1468100D1*
X2187330Y1464896D1*
X2192781Y1461254D1*
X2197930Y1457195D1*
X2202744Y1452744D1*
X2207195Y1447930D1*
X2211254Y1442781D1*
X2214896Y1437330D1*
X2218100Y1431609D1*
X2220845Y1425655D1*
X2223114Y1419504D1*
X2224894Y1413194D1*
X2226173Y1406763D1*
X2226944Y1400252D1*
X2227201Y1393701D1*
X2226944Y1387150D1*
X3851944Y1662150D2*
X3851173Y1655639D1*
X3849894Y1649208D1*
X3848114Y1642898D1*
X3845845Y1636747D1*
X3843100Y1630793D1*
X3839896Y1625072D1*
X3836254Y1619621D1*
X3832195Y1614472D1*
X3827744Y1609658D1*
X3822930Y1605207D1*
X3817781Y1601148D1*
X3812330Y1597506D1*
X3806609Y1594302D1*
X3800655Y1591557D1*
X3794504Y1589288D1*
X3788194Y1587508D1*
X3781763Y1586229D1*
X3775252Y1585458D1*
X3768701Y1585201D1*
X3762150Y1585458D1*
X3755639Y1586229D1*
X3749208Y1587508D1*
X3742898Y1589288D1*
X3736747Y1591557D1*
X3730793Y1594302D1*
X3725072Y1597506D1*
X3719621Y1601148D1*
X3714472Y1605207D1*
X3709658Y1609658D1*
X3705207Y1614472D1*
X3701148Y1619621D1*
X3697506Y1625072D1*
X3694302Y1630793D1*
X3691557Y1636747D1*
X3689288Y1642898D1*
X3687508Y1649208D1*
X3686229Y1655639D1*
X3685458Y1662150D1*
X3685201Y1668701D1*
X3685458Y1675252D1*
X3686229Y1681763D1*
X3687508Y1688194D1*
X3689288Y1694504D1*
X3691557Y1700655D1*
X3694302Y1706609D1*
X3697506Y1712330D1*
X3701148Y1717781D1*
X3705207Y1722930D1*
X3709658Y1727744D1*
X3714472Y1732195D1*
X3719621Y1736254D1*
X3725072Y1739896D1*
X3730793Y1743100D1*
X3736747Y1745845D1*
X3742898Y1748114D1*
X3749208Y1749894D1*
X3755639Y1751173D1*
X3762150Y1751944D1*
X3768701Y1752201D1*
X3775252Y1751944D1*
X3781763Y1751173D1*
X3788194Y1749894D1*
X3794504Y1748114D1*
X3800655Y1745845D1*
X3806609Y1743100D1*
X3812330Y1739896D1*
X3817781Y1736254D1*
X3822930Y1732195D1*
X3827744Y1727744D1*
X3832195Y1722930D1*
X3836254Y1717781D1*
X3839896Y1712330D1*
X3843100Y1706609D1*
X3845845Y1700655D1*
X3848114Y1694504D1*
X3849894Y1688194D1*
X3851173Y1681763D1*
X3851944Y1675252D1*
X3852201Y1668701D1*
X3851944Y1662150D1*
X1951473Y1487187D2*
X1950706Y1480713D1*
X1949435Y1474319D1*
X1947665Y1468044D1*
X1945408Y1461928D1*
X1942679Y1456007D1*
X1939494Y1450319D1*
X1935872Y1444899D1*
X1931836Y1439779D1*
X1927410Y1434992D1*
X1922623Y1430566D1*
X1917503Y1426530D1*
X1912083Y1422908D1*
X1906395Y1419723D1*
X1900474Y1416994D1*
X1894358Y1414737D1*
X1888083Y1412967D1*
X1881689Y1411696D1*
X1875215Y1410929D1*
X1868701Y1410673D1*
X1862187Y1410929D1*
X1855713Y1411696D1*
X1849319Y1412967D1*
X1843044Y1414737D1*
X1836928Y1416994D1*
X1831007Y1419723D1*
X1825319Y1422908D1*
X1819899Y1426530D1*
X1814779Y1430566D1*
X1809992Y1434992D1*
X1805566Y1439779D1*
X1801530Y1444899D1*
X1797908Y1450319D1*
X1794723Y1456007D1*
X1791994Y1461928D1*
X1789737Y1468044D1*
X1787967Y1474319D1*
X1786696Y1480713D1*
X1785929Y1487187D1*
X1785673Y1493701D1*
X1785929Y1500215D1*
X1786696Y1506689D1*
X1787967Y1513083D1*
X1789737Y1519358D1*
X1791994Y1525474D1*
X1794723Y1531395D1*
X1797908Y1537083D1*
X1802460Y1543683D1*
X1797908Y1550319D1*
X1794723Y1556007D1*
X1791994Y1561928D1*
X1789737Y1568044D1*
X1787967Y1574319D1*
X1786696Y1580713D1*
X1785929Y1587187D1*
X1785673Y1593701D1*
X1785929Y1600215D1*
X1786696Y1606689D1*
X1787967Y1613083D1*
X1789737Y1619358D1*
X1791994Y1625474D1*
X1794723Y1631395D1*
X1797908Y1637083D1*
X1802460Y1643683D1*
X1797908Y1650319D1*
X1794723Y1656007D1*
X1791994Y1661928D1*
X1789737Y1668044D1*
X1787967Y1674319D1*
X1786696Y1680713D1*
X1785929Y1687187D1*
X1785673Y1693701D1*
X1785929Y1700215D1*
X1786696Y1706689D1*
X1787967Y1713083D1*
X1789737Y1719358D1*
X1791994Y1725474D1*
X1794723Y1731395D1*
X1797908Y1737083D1*
X1802460Y1743683D1*
X1797908Y1750319D1*
X1794723Y1756007D1*
X1791994Y1761928D1*
X1789737Y1768044D1*
X1787967Y1774319D1*
X1786696Y1780713D1*
X1785929Y1787187D1*
X1785673Y1793701D1*
X1785929Y1800215D1*
X1786696Y1806689D1*
X1787967Y1813083D1*
X1789737Y1819358D1*
X1791994Y1825474D1*
X1794723Y1831395D1*
X1797908Y1837083D1*
X1801530Y1842503D1*
X1805566Y1847623D1*
X1809992Y1852410D1*
X1814779Y1856836D1*
X1819899Y1860872D1*
X1825319Y1864494D1*
X1831007Y1867679D1*
X1836928Y1870408D1*
X1843044Y1872665D1*
X1849319Y1874435D1*
X1855713Y1875706D1*
X1862187Y1876473D1*
X1868701Y1876729D1*
X1875215Y1876473D1*
X1881689Y1875706D1*
X1888083Y1874435D1*
X1894358Y1872665D1*
X1900474Y1870408D1*
X1906395Y1867679D1*
X1912083Y1864494D1*
X1917503Y1860872D1*
X1922623Y1856836D1*
X1927410Y1852410D1*
X1931836Y1847623D1*
X1935872Y1842503D1*
X1939494Y1837083D1*
X1942679Y1831395D1*
X1945408Y1825474D1*
X1947665Y1819358D1*
X1949435Y1813083D1*
X1950706Y1806689D1*
X1951473Y1800215D1*
X1951729Y1793701D1*
X1951473Y1787187D1*
X1950706Y1780713D1*
X1949435Y1774319D1*
X1947665Y1768044D1*
X1945408Y1761928D1*
X1942679Y1756007D1*
X1939494Y1750319D1*
X1934942Y1743719D1*
X1939494Y1737083D1*
X1942679Y1731395D1*
X1945408Y1725474D1*
X1947665Y1719358D1*
X1949435Y1713083D1*
X1950706Y1706689D1*
X1951473Y1700215D1*
X1951729Y1693701D1*
X1951473Y1687187D1*
X1950706Y1680713D1*
X1949435Y1674319D1*
X1947665Y1668044D1*
X1945408Y1661928D1*
X1942679Y1656007D1*
X1939494Y1650319D1*
X1934942Y1643719D1*
X1939494Y1637083D1*
X1942679Y1631395D1*
X1945408Y1625474D1*
X1947665Y1619358D1*
X1949435Y1613083D1*
X1950706Y1606689D1*
X1951473Y1600215D1*
X1951729Y1593701D1*
X1951473Y1587187D1*
X1950706Y1580713D1*
X1949435Y1574319D1*
X1947665Y1568044D1*
X1945408Y1561928D1*
X1942679Y1556007D1*
X1939494Y1550319D1*
X1934942Y1543719D1*
X1939494Y1537083D1*
X1942679Y1531395D1*
X1945408Y1525474D1*
X1947665Y1519358D1*
X1949435Y1513083D1*
X1950706Y1506689D1*
X1951473Y1500215D1*
X1951729Y1493701D1*
X1951473Y1487187D1*
X926473Y1287187D2*
X925706Y1280713D1*
X924435Y1274319D1*
X922665Y1268044D1*
X920408Y1261928D1*
X917679Y1256007D1*
X914494Y1250319D1*
X909942Y1243719D1*
X914494Y1237083D1*
X917679Y1231395D1*
X920408Y1225474D1*
X922665Y1219358D1*
X924435Y1213083D1*
X925706Y1206689D1*
X926473Y1200215D1*
X926729Y1193701D1*
X926473Y1187187D1*
X925706Y1180713D1*
X924435Y1174319D1*
X922665Y1168044D1*
X920408Y1161928D1*
X917679Y1156007D1*
X914494Y1150319D1*
X909942Y1143719D1*
X914494Y1137083D1*
X917679Y1131395D1*
X920408Y1125474D1*
X922665Y1119358D1*
X924435Y1113083D1*
X925706Y1106689D1*
X926473Y1100215D1*
X926729Y1093701D1*
X926473Y1087187D1*
X925706Y1080713D1*
X924435Y1074319D1*
X922665Y1068044D1*
X920408Y1061928D1*
X917679Y1056007D1*
X914494Y1050319D1*
X909942Y1043719D1*
X914494Y1037083D1*
X917679Y1031395D1*
X920408Y1025474D1*
X922665Y1019358D1*
X924435Y1013083D1*
X925706Y1006689D1*
X926473Y1000215D1*
X926729Y993701D1*
X926473Y987187D1*
X925706Y980713D1*
X924435Y974319D1*
X922665Y968044D1*
X920408Y961928D1*
X917679Y956007D1*
X914494Y950319D1*
X910872Y944899D1*
X906836Y939779D1*
X902410Y934992D1*
X897623Y930566D1*
X892503Y926530D1*
X887083Y922908D1*
X881395Y919723D1*
X875474Y916994D1*
X869358Y914737D1*
X863083Y912967D1*
X856689Y911696D1*
X850215Y910929D1*
X843701Y910673D1*
X837187Y910929D1*
X830713Y911696D1*
X824319Y912967D1*
X818044Y914737D1*
X811928Y916994D1*
X806007Y919723D1*
X800319Y922908D1*
X794899Y926530D1*
X789779Y930566D1*
X784992Y934992D1*
X780566Y939779D1*
X776530Y944899D1*
X772908Y950319D1*
X769723Y956007D1*
X766994Y961928D1*
X764737Y968044D1*
X762967Y974319D1*
X761696Y980713D1*
X760929Y987187D1*
X760673Y993701D1*
X760929Y1000215D1*
X761696Y1006689D1*
X762967Y1013083D1*
X764737Y1019358D1*
X766994Y1025474D1*
X769723Y1031395D1*
X772908Y1037083D1*
X777460Y1043683D1*
X772908Y1050319D1*
X769723Y1056007D1*
X766994Y1061928D1*
X764737Y1068044D1*
X762967Y1074319D1*
X761696Y1080713D1*
X760929Y1087187D1*
X760673Y1093701D1*
X760929Y1100215D1*
X761696Y1106689D1*
X762967Y1113083D1*
X764737Y1119358D1*
X766994Y1125474D1*
X769723Y1131395D1*
X772908Y1137083D1*
X777460Y1143683D1*
X772908Y1150319D1*
X769723Y1156007D1*
X766994Y1161928D1*
X764737Y1168044D1*
X762967Y1174319D1*
X761696Y1180713D1*
X760929Y1187187D1*
X760673Y1193701D1*
X760929Y1200215D1*
X761696Y1206689D1*
X762967Y1213083D1*
X764737Y1219358D1*
X766994Y1225474D1*
X769723Y1231395D1*
X772908Y1237083D1*
X777460Y1243683D1*
X772908Y1250319D1*
X769723Y1256007D1*
X766994Y1261928D1*
X764737Y1268044D1*
X762967Y1274319D1*
X761696Y1280713D1*
X760929Y1287187D1*
X760673Y1293701D1*
X760929Y1300215D1*
X761696Y1306689D1*
X762967Y1313083D1*
X764737Y1319358D1*
X766994Y1325474D1*
X769723Y1331395D1*
X772908Y1337083D1*
X776530Y1342503D1*
X780566Y1347623D1*
X784992Y1352410D1*
X789779Y1356836D1*
X794899Y1360872D1*
X800319Y1364494D1*
X806007Y1367679D1*
X811928Y1370408D1*
X818044Y1372665D1*
X824319Y1374435D1*
X830713Y1375706D1*
X837187Y1376473D1*
X843701Y1376729D1*
X850215Y1376473D1*
X856689Y1375706D1*
X863083Y1374435D1*
X869358Y1372665D1*
X875474Y1370408D1*
X881395Y1367679D1*
X887083Y1364494D1*
X892503Y1360872D1*
X897623Y1356836D1*
X902410Y1352410D1*
X906836Y1347623D1*
X910872Y1342503D1*
X914494Y1337083D1*
X917679Y1331395D1*
X920408Y1325474D1*
X922665Y1319358D1*
X924435Y1313083D1*
X925706Y1306689D1*
X926473Y1300215D1*
X926729Y1293701D1*
X926473Y1287187D1*
X1326473Y987187D2*
X1325706Y980713D1*
X1324435Y974319D1*
X1322665Y968044D1*
X1320408Y961928D1*
X1317679Y956007D1*
X1314494Y950319D1*
X1310872Y944899D1*
X1306836Y939779D1*
X1302410Y934992D1*
X1297623Y930566D1*
X1292503Y926530D1*
X1287083Y922908D1*
X1281395Y919723D1*
X1275474Y916994D1*
X1269358Y914737D1*
X1263083Y912967D1*
X1256689Y911696D1*
X1250215Y910929D1*
X1243701Y910673D1*
X1237187Y910929D1*
X1230713Y911696D1*
X1224319Y912967D1*
X1218044Y914737D1*
X1211928Y916994D1*
X1206007Y919723D1*
X1200319Y922908D1*
X1194899Y926530D1*
X1189779Y930566D1*
X1184992Y934992D1*
X1180566Y939779D1*
X1176530Y944899D1*
X1172908Y950319D1*
X1169723Y956007D1*
X1166994Y961928D1*
X1164737Y968044D1*
X1162967Y974319D1*
X1161696Y980713D1*
X1160929Y987187D1*
X1160673Y993701D1*
X1160929Y1000215D1*
X1161696Y1006689D1*
X1162967Y1013083D1*
X1164737Y1019358D1*
X1166994Y1025474D1*
X1169723Y1031395D1*
X1172908Y1037083D1*
X1177460Y1043683D1*
X1172908Y1050319D1*
X1169723Y1056007D1*
X1166994Y1061928D1*
X1164737Y1068044D1*
X1162967Y1074319D1*
X1161696Y1080713D1*
X1160929Y1087187D1*
X1160673Y1093701D1*
X1160929Y1100215D1*
X1161696Y1106689D1*
X1162967Y1113083D1*
X1164737Y1119358D1*
X1166994Y1125474D1*
X1169723Y1131395D1*
X1172908Y1137083D1*
X1177460Y1143683D1*
X1172908Y1150319D1*
X1169723Y1156007D1*
X1166994Y1161928D1*
X1164737Y1168044D1*
X1162967Y1174319D1*
X1161696Y1180713D1*
X1160929Y1187187D1*
X1160673Y1193701D1*
X1160929Y1200215D1*
X1161696Y1206689D1*
X1162967Y1213083D1*
X1164737Y1219358D1*
X1166994Y1225474D1*
X1169723Y1231395D1*
X1172908Y1237083D1*
X1177460Y1243683D1*
X1172908Y1250319D1*
X1169723Y1256007D1*
X1166994Y1261928D1*
X1164737Y1268044D1*
X1162967Y1274319D1*
X1161696Y1280713D1*
X1160929Y1287187D1*
X1160673Y1293701D1*
X1160929Y1300215D1*
X1161696Y1306689D1*
X1162967Y1313083D1*
X1164737Y1319358D1*
X1166994Y1325474D1*
X1171005Y1333683D1*
X1158705Y1333705D1*
Y1503697D1*
X1160033D1*
X1158967Y1512032D1*
X1158705Y1518701D1*
X1158967Y1525370D1*
X1159751Y1531997D1*
X1161053Y1538543D1*
X1162865Y1544966D1*
X1165175Y1551228D1*
X1167969Y1557288D1*
X1171230Y1563111D1*
X1174938Y1568660D1*
X1179069Y1573902D1*
X1183600Y1578802D1*
X1188500Y1583333D1*
X1193742Y1587464D1*
X1199291Y1591172D1*
X1205114Y1594433D1*
X1211174Y1597227D1*
X1217436Y1599537D1*
X1223859Y1601349D1*
X1230405Y1602651D1*
X1237032Y1603435D1*
X1243701Y1603697D1*
X1250370Y1603435D1*
X1256997Y1602651D1*
X1263543Y1601349D1*
X1269966Y1599537D1*
X1276228Y1597227D1*
X1282288Y1594433D1*
X1288111Y1591172D1*
X1293660Y1587464D1*
X1298902Y1583333D1*
X1303802Y1578802D1*
X1308333Y1573902D1*
X1312464Y1568660D1*
X1316172Y1563111D1*
X1319433Y1557288D1*
X1322227Y1551228D1*
X1324537Y1544966D1*
X1326349Y1538543D1*
X1327651Y1531997D1*
X1328435Y1525370D1*
X1328697Y1518701D1*
X1328435Y1512032D1*
X1327310Y1503692D1*
X1328697Y1503697D1*
Y1333705D1*
X1316461D1*
X1320408Y1325474D1*
X1322665Y1319358D1*
X1324435Y1313083D1*
X1325706Y1306689D1*
X1326473Y1300215D1*
X1326729Y1293701D1*
X1326473Y1287187D1*
X1325706Y1280713D1*
X1324435Y1274319D1*
X1322665Y1268044D1*
X1320408Y1261928D1*
X1317679Y1256007D1*
X1314494Y1250319D1*
X1309942Y1243719D1*
X1314494Y1237083D1*
X1317679Y1231395D1*
X1320408Y1225474D1*
X1322665Y1219358D1*
X1324435Y1213083D1*
X1325706Y1206689D1*
X1326473Y1200215D1*
X1326729Y1193701D1*
X1326473Y1187187D1*
X1325706Y1180713D1*
X1324435Y1174319D1*
X1322665Y1168044D1*
X1320408Y1161928D1*
X1317679Y1156007D1*
X1314494Y1150319D1*
X1309942Y1143719D1*
X1314494Y1137083D1*
X1317679Y1131395D1*
X1320408Y1125474D1*
X1322665Y1119358D1*
X1324435Y1113083D1*
X1325706Y1106689D1*
X1326473Y1100215D1*
X1326729Y1093701D1*
X1326473Y1087187D1*
X1325706Y1080713D1*
X1324435Y1074319D1*
X1322665Y1068044D1*
X1320408Y1061928D1*
X1317679Y1056007D1*
X1314494Y1050319D1*
X1309942Y1043719D1*
X1314494Y1037083D1*
X1317679Y1031395D1*
X1320408Y1025474D1*
X1322665Y1019358D1*
X1324435Y1013083D1*
X1325706Y1006689D1*
X1326473Y1000215D1*
X1326729Y993701D1*
X1326473Y987187D1*
X4056177Y1981201D2*
X456204D1*
X456201Y456171D1*
X4056198Y456201D1*
X4056201Y1981231D1*
D16*
X1943701Y1193701D3*
D17*
X1543701D3*
D16*
X2068701Y868701D3*
D17*
X1668701D3*
D16*
X2393701Y593701D3*
D17*
X2793701D3*
D16*
X2393701Y1493701D3*
D17*
X2793701D3*
D16*
X2943701Y1093701D3*
D17*
Y1493701D3*
D16*
X3868701Y993701D3*
D17*
Y1393701D3*
D16*
X2593701Y1318701D3*
D17*
X2693701D3*
D16*
X3593701D3*
D17*
X3693701D3*
D16*
X2393701Y768701D3*
D17*
X2493701D3*
D16*
X3393701D3*
D17*
X3493701D3*
D16*
X1568701Y1368701D3*
D17*
X1668701D3*
D18*
X2443701Y1693701D3*
D19*
X2543701D3*
D18*
X3143701Y1668701D3*
D19*
X3243701D3*
D18*
X593701Y1293701D3*
D19*
Y1193701D3*
Y1093701D3*
Y993701D3*
D20*
X2068701Y743701D3*
D21*
X1668701D3*
D20*
X2243701Y593701D3*
D21*
Y993701D3*
D20*
X2143701D3*
D21*
Y1393701D3*
D20*
X2793701D3*
D21*
Y993701D3*
D20*
X3118701Y1093701D3*
D21*
Y1493701D3*
D20*
X3243701Y993701D3*
D21*
Y593701D3*
D20*
X3118701Y993701D3*
D21*
Y593701D3*
D20*
X3243701Y1493701D3*
D21*
Y1093701D3*
D20*
X3368701Y1668701D3*
D21*
X3768701D3*
D18*
X2393701Y1193701D3*
D19*
Y1093701D3*
Y993701D3*
Y893701D3*
X2693701D3*
Y993701D3*
Y1093701D3*
Y1193701D3*
D18*
X3393701D3*
D19*
Y1093701D3*
Y993701D3*
Y893701D3*
X3693701D3*
Y993701D3*
Y1093701D3*
Y1193701D3*
D18*
X1568701Y1793701D3*
D19*
Y1693701D3*
Y1593701D3*
Y1493701D3*
X1868701D3*
Y1593701D3*
Y1693701D3*
Y1793701D3*
D24*
X843701Y1293701D3*
Y1193701D3*
Y1093701D3*
Y993701D3*
X1243701D3*
Y1093701D3*
Y1193701D3*
Y1293701D3*
D16*
Y1518701D3*
D17*
Y1418701D3*
M02*
