G04 DipTrace 3.1.0.1*
G04 TopAssy.gbr*
%MOIN*%
G04 #@! TF.FileFunction,Drawing,Top*
G04 #@! TF.Part,Single*
%ADD12C,0.003*%
%ADD49C,0.013895*%
%ADD50C,0.015439*%
%FSLAX26Y26*%
G04*
G70*
G90*
G75*
G01*
G04 TopAssy*
%LPD*%
X770701Y1875701D2*
D12*
X776701D1*
X769305Y1872701D2*
X777738D1*
X768378Y1869701D2*
X778737D1*
X758701Y1866701D2*
D3*
X767701D2*
X779688D1*
X758578Y1863701D2*
X780712D1*
X758112Y1860701D2*
X781719D1*
X757086Y1857701D2*
X782679D1*
X749701Y1854701D2*
D3*
X755701D2*
X758701D1*
X767701D2*
D3*
X773701D2*
X783696D1*
X749701Y1851701D2*
X767701D1*
X773701D2*
X784588D1*
X749701Y1848701D2*
X767701D1*
X773701D2*
X785038D1*
X749701Y1845701D2*
X767701D1*
X773701D2*
X785087D1*
X749701Y1842701D2*
X752701D1*
X758701D2*
X776701D1*
X782701D2*
X783686D1*
X749701Y1839701D2*
X780426D1*
X749701Y1836701D2*
X776701D1*
X785701Y1824701D2*
D3*
X653701Y1809701D2*
D3*
X680701D2*
X851701D1*
X650713Y1806701D2*
X656701D1*
X680701D2*
X851701D1*
X878701D2*
D3*
X647830Y1803701D2*
X656587D1*
X680701D2*
X851701D1*
X878249D2*
X881701D1*
X645329Y1800701D2*
X656191D1*
X680701D2*
X689824D1*
X704701D2*
X716149D1*
X726253D2*
X725701D1*
X731701D2*
X851701D1*
X877623D2*
X884100D1*
X643559Y1797701D2*
X655366D1*
X680701D2*
X690290D1*
X701701D2*
X715097D1*
X730305D2*
X851701D1*
X877048D2*
X886093D1*
X642376Y1794701D2*
X654203D1*
X680701D2*
X691316D1*
X707701D2*
X713701D1*
X734701D2*
X851701D1*
X877840D2*
X886663D1*
X642342Y1791701D2*
X652846D1*
X680701D2*
X692701D1*
X698701D2*
X716888D1*
X730107D2*
X851701D1*
X879135D2*
X885629D1*
X643586Y1788701D2*
X651327D1*
X680701D2*
X719701D1*
X725701D2*
X851701D1*
X880477D2*
X883850D1*
X620701Y1785701D2*
X629701D1*
X645480D2*
X649600D1*
X680701D2*
X851701D1*
X881701D2*
D3*
X620941Y1782701D2*
X632958D1*
X647701D2*
D3*
X680701D2*
X732153D1*
X764701D2*
X851701D1*
X621474Y1779701D2*
X635654D1*
X662701D2*
X671701D1*
X680701D2*
X720253D1*
X726253D2*
X732779D1*
X749701D2*
X851701D1*
X908701D2*
D3*
X623800Y1776701D2*
X638239D1*
X657461D2*
X670321D1*
X680701D2*
X715305D1*
X727305D2*
X733354D1*
X860701D2*
X875701D1*
X884701D2*
D3*
X900750D2*
X908701D1*
X627093Y1773701D2*
X641263D1*
X653659D2*
X668153D1*
X680701D2*
X685928D1*
X698235D2*
X710701D1*
X728701D2*
X732743D1*
X863141D2*
X878701D1*
X884701D2*
D3*
X894615D2*
X906281D1*
X631192Y1770701D2*
X644701D1*
X650701D2*
X664886D1*
X680701D2*
X683575D1*
X697466D2*
X730845D1*
X755701D2*
X758701D1*
X764701D2*
X767701D1*
X788701D2*
D3*
X800701D2*
D3*
X809701D2*
D3*
X845701D2*
D3*
X866009D2*
X884701D1*
X892391D2*
X902753D1*
X635701Y1767701D2*
D3*
X641701D2*
X660871D1*
X680701D2*
D3*
X696566D2*
X728701D1*
X752701D2*
X754316D1*
X869295D2*
X881701D1*
X890701D2*
X897942D1*
X614701Y1764701D2*
X626701D1*
X644701D2*
D3*
X650701D2*
X656701D1*
X680701D2*
X689701D1*
X695701D2*
X750451D1*
X800701D2*
D3*
X830701D2*
D3*
X872701D2*
X878701D1*
X887701D2*
X893337D1*
X615165Y1761701D2*
X630138D1*
X680701D2*
X746993D1*
X887701D2*
X890118D1*
X615909Y1758701D2*
X632804D1*
X641701D2*
D3*
X656701D2*
X668701D1*
X680701D2*
X733356D1*
X738279D2*
X851701D1*
X863701D2*
X878701D1*
X887701D2*
D3*
X899701D2*
X911701D1*
X616693Y1755701D2*
X634492D1*
X641701D2*
D3*
X653200D2*
X667316D1*
X680701D2*
X727514D1*
X736410D2*
X851701D1*
X865675D2*
X880552D1*
X896701D2*
X911256D1*
X617264Y1752701D2*
X635701D1*
X641701D2*
D3*
X650233D2*
X666451D1*
X680701D2*
X722701D1*
X734939D2*
X851701D1*
X867774D2*
X882185D1*
X893701D2*
X909636D1*
X626701Y1749701D2*
X641701D1*
X647701D2*
X665993D1*
X680701D2*
X724295D1*
X733402D2*
X851701D1*
X870159D2*
X883544D1*
X890701D2*
X905435D1*
X626701Y1746701D2*
X656701D1*
X680701D2*
X725701D1*
X731701D2*
X851701D1*
X872701D2*
X884701D1*
X893701D2*
X900381D1*
X641701Y1743701D2*
X656701D1*
X680701D2*
X851701D1*
X890701D2*
X895915D1*
X680701Y1740701D2*
X851701D1*
X890701D2*
X892913D1*
X611701Y1737701D2*
X626701D1*
X638701D2*
D3*
X656701D2*
X659701D1*
X665701D2*
D3*
X890701D2*
D3*
X902701D2*
X914701D1*
X613440Y1734701D2*
X629701D1*
X638701D2*
D3*
X653264D2*
X665701D1*
X869701D2*
X881701D1*
X900596D2*
X913132D1*
X615561Y1731701D2*
X638701D1*
X650598D2*
X665209D1*
X870973D2*
X884701D1*
X898556D2*
X911646D1*
X618540Y1728701D2*
X637295D1*
X648910D2*
X663069D1*
X707701D2*
D3*
X818701D2*
X821701D1*
X872805D2*
X887701D1*
X896701D2*
X907902D1*
X621808Y1725701D2*
X635701D1*
X641701D2*
D3*
X647701D2*
X659993D1*
X710456D2*
X719701D1*
X809233D2*
X817561D1*
X875473D2*
X902555D1*
X624488Y1722701D2*
X656728D1*
X713872D2*
X727172D1*
X800803D2*
X813284D1*
X878701D2*
X881701D1*
X890701D2*
X897319D1*
X608701Y1719701D2*
X620701D1*
X626701D2*
X630290D1*
X635701D2*
D3*
X641701D2*
D3*
X647701D2*
X653701D1*
X717735D2*
X733322D1*
X793944D2*
X808984D1*
X890701D2*
X893243D1*
X608827Y1716701D2*
X628525D1*
X656701D2*
X659701D1*
X665701D2*
D3*
X721711D2*
X738274D1*
X788658D2*
X804807D1*
X866701D2*
D3*
X890701D2*
X891903D1*
X908701D2*
X917701D1*
X609340Y1713701D2*
X614701D1*
X620701D2*
X627451D1*
X653200D2*
X665701D1*
X725673D2*
X742500D1*
X784665D2*
X800685D1*
X868549D2*
X881701D1*
X890701D2*
X891200D1*
X904782D2*
X916552D1*
X610312Y1710701D2*
X635701D1*
X650233D2*
X665701D1*
X729720D2*
X746211D1*
X781871D2*
X796310D1*
X870155D2*
X884701D1*
X890701D2*
X890892D1*
X901686D2*
X915185D1*
X612948Y1707701D2*
X635701D1*
X647701D2*
X665701D1*
X733756D2*
X749701D1*
X758701D2*
X770701D1*
X779701D2*
X791701D1*
X871377D2*
X890770D1*
X899128D2*
X913544D1*
X616268Y1704701D2*
X665701D1*
X737701D2*
X796107D1*
X872148D2*
X890725D1*
X896701D2*
X911701D1*
X619958Y1701701D2*
X635701D1*
X641701D2*
D3*
X648861D2*
X653701D1*
X729678D2*
X800701D1*
X809701D2*
D3*
X890701D2*
X890709D1*
X623701Y1698701D2*
X626701D1*
X635701D2*
D3*
X652390D2*
X653701D1*
X722988D2*
X809701D1*
X890701D2*
X890704D1*
X920701D2*
D3*
X605701Y1695701D2*
X620701D1*
X635701D2*
X635713D1*
X656701D2*
X665701D1*
X718066D2*
X741474D1*
X750253D2*
X758701D1*
X767701D2*
X776149D1*
X794701D2*
X814523D1*
X866701D2*
X869701D1*
X890701D2*
X890702D1*
X908701D2*
X917701D1*
X606727Y1692701D2*
X625295D1*
X635701D2*
X635830D1*
X652095D2*
X664675D1*
X714328D2*
X743827D1*
X754305D2*
X772097D1*
X800701D2*
X818584D1*
X868316D2*
X877482D1*
X890701D2*
D3*
X904454D2*
X916549D1*
X607628Y1689701D2*
X629701D1*
X635701D2*
X636329D1*
X648365D2*
X663774D1*
X711369D2*
X746701D1*
X758701D2*
X767701D1*
X790482D2*
X820333D1*
X870451D2*
X884701D1*
X890701D2*
D3*
X900748D2*
X915155D1*
X608243Y1686701D2*
X637536D1*
X646661D2*
X663159D1*
X708863D2*
X720279D1*
X727866D2*
X773701D1*
X779701D2*
X830701D1*
X872993D2*
X890701D1*
X898881D2*
X913377D1*
X620701Y1683701D2*
X639455D1*
X646577D2*
X653701D1*
X706220D2*
X718410D1*
X734700D2*
X755701D1*
X761701D2*
X803481D1*
X821701D2*
X830713D1*
X875701D2*
X884701D1*
X890701D2*
D3*
X898800D2*
X911148D1*
X622107Y1680701D2*
X641701D1*
X648110D2*
X652295D1*
X703140D2*
X716939D1*
X739721D2*
X797644D1*
X821701D2*
X830830D1*
X890701D2*
D3*
X899701D2*
X908701D1*
X623701Y1677701D2*
X626701D1*
X638701D2*
X640316D1*
X650591D2*
X650701D1*
X700250D2*
X715402D1*
X743701D2*
X792796D1*
X821701D2*
X831318D1*
X863701D2*
D3*
X890701D2*
D3*
X608701Y1674701D2*
X620701D1*
X638701D2*
X639451D1*
X653701D2*
X665701D1*
X697973D2*
X713701D1*
X734701D2*
X788701D1*
X821701D2*
X832419D1*
X865193D2*
X875701D1*
X890701D2*
D3*
X609876Y1671701D2*
X625482D1*
X638701D2*
X638993D1*
X650513D2*
X664675D1*
X697813D2*
X799482D1*
X821701D2*
X833883D1*
X866862D2*
X879044D1*
X890701D2*
D3*
X899701D2*
X917701D1*
X611482Y1668701D2*
X620701D1*
X626701D2*
X629701D1*
X638701D2*
D3*
X647701D2*
X663774D1*
X698082D2*
X746149D1*
X753290D2*
X752701D1*
X774279D2*
X773701D1*
X783027D2*
X809701D1*
X821701D2*
X835274D1*
X868378D2*
X881952D1*
X890701D2*
D3*
X896701D2*
X915044D1*
X614022Y1665701D2*
X663159D1*
X698408D2*
X736097D1*
X751525D2*
X752701D1*
X775407D2*
X776701D1*
X789140D2*
X835332D1*
X869701D2*
X884701D1*
X890701D2*
X912347D1*
X617627Y1662701D2*
X653701D1*
X704701D2*
X725701D1*
X750451D2*
X750841D1*
X776915D2*
X776701D1*
X794093D2*
X832998D1*
X889664D2*
X909221D1*
X621359Y1659701D2*
X642165D1*
X647701D2*
X653701D1*
X680701D2*
D3*
X706305D2*
X729125D1*
X749701D2*
X749118D1*
X778327D2*
X779701D1*
X797748D2*
X829700D1*
X851701D2*
D3*
X888665D2*
X890701D1*
X899701D2*
X905701D1*
X624308Y1656701D2*
X629701D1*
X641701D2*
X642909D1*
X662701D2*
X668701D1*
X708378D2*
X732121D1*
X746701D2*
X747418D1*
X779628D2*
X779701D1*
X798536D2*
X826337D1*
X851701D2*
D3*
X860701D2*
D3*
X887712D2*
X889193D1*
X614701Y1653701D2*
D3*
X626701D2*
D3*
X641701D2*
X643693D1*
X658857D2*
X668100D1*
X683701D2*
D3*
X710701D2*
X733302D1*
X746701D2*
X745595D1*
X781241D2*
X779701D1*
X798287D2*
X823545D1*
X861165D2*
X872701D1*
X886674D2*
X887862D1*
X616340Y1650701D2*
X632888D1*
X643107D2*
X644264D1*
X655982D2*
X667093D1*
X685648D2*
X686701D1*
X707701D2*
X732908D1*
X743701D2*
X743717D1*
X783347D2*
X782701D1*
X798257D2*
X820929D1*
X845701D2*
D3*
X861909D2*
X875701D1*
X885643D2*
X886378D1*
X893701D2*
X911701D1*
X618689Y1647701D2*
X626701D1*
X632701D2*
X638701D1*
X644701D2*
D3*
X653701D2*
X664372D1*
X687628D2*
X686701D1*
X711854D2*
X731926D1*
X740701D2*
X742092D1*
X785701D2*
D3*
X798608D2*
X817936D1*
X842701D2*
D3*
X862693D2*
X878701D1*
X884701D2*
D3*
X890701D2*
X909261D1*
X622022Y1644701D2*
X660791D1*
X689701D2*
X692701D1*
X718045D2*
X730453D1*
X737701D2*
X740701D1*
X800883D2*
X811404D1*
X839701D2*
D3*
X863264D2*
X906393D1*
X626316Y1641701D2*
X635701D1*
X641701D2*
X650701D1*
X656701D2*
D3*
X698701D2*
D3*
X725701D2*
X728701D1*
X803701D2*
D3*
X833701D2*
D3*
X851701D2*
D3*
X881701D2*
D3*
X890701D2*
X903107D1*
X631021Y1638701D2*
X647701D1*
X665701D2*
X677701D1*
X698701D2*
D3*
X704701D2*
D3*
X737701D2*
D3*
X827701D2*
X830701D1*
X851941D2*
X863701D1*
X880200D2*
X881701D1*
X896701D2*
X899701D1*
X635701Y1635701D2*
X638701D1*
X647701D2*
X650149D1*
X663596D2*
X677256D1*
X707701D2*
D3*
X821701D2*
D3*
X852474D2*
X866056D1*
X878458D2*
X881701D1*
X649305Y1632701D2*
X652097D1*
X661556D2*
X675636D1*
X713701D2*
X719701D1*
X809701D2*
X812701D1*
X818701D2*
D3*
X854693D2*
X868107D1*
X876730D2*
X879738D1*
X890701D2*
X893701D1*
X629701Y1629701D2*
X641701D1*
X651378D2*
X653701D1*
X659701D2*
X671425D1*
X725701D2*
X728701D1*
X806701D2*
D3*
X857571D2*
X866168D1*
X875169D2*
X877748D1*
X886843D2*
X899888D1*
X620701Y1626701D2*
X647701D1*
X653701D2*
X666255D1*
X728701D2*
X731701D1*
X737701D2*
D3*
X794701D2*
D3*
X800701D2*
D3*
X860701D2*
X863701D1*
X873766D2*
X875793D1*
X883506D2*
X905701D1*
X623850Y1623701D2*
X661223D1*
X740701D2*
X743701D1*
X788701D2*
D3*
X872179D2*
X874094D1*
X884307D2*
X902149D1*
X628410Y1620701D2*
X656701D1*
X749701D2*
D3*
X782701D2*
D3*
X869903D2*
X872426D1*
X887237D2*
X898097D1*
X635641Y1617701D2*
X647701D1*
X656701D2*
X660072D1*
X753754D2*
X755701D1*
X779701D2*
D3*
X867085D2*
X870342D1*
X890701D2*
X893701D1*
X644701Y1614701D2*
X647701D1*
X659598D2*
X663146D1*
X757774D2*
X758701D1*
X770701D2*
D3*
X864266D2*
X867837D1*
X662326Y1611701D2*
X666398D1*
X761701D2*
D3*
X767701D2*
D3*
X861510D2*
X865162D1*
X665045Y1608701D2*
X670041D1*
X767701D2*
D3*
X858491D2*
X862558D1*
X668178Y1605701D2*
X673877D1*
X707701D2*
X743701D1*
X788701D2*
X821701D1*
X855141D2*
X860120D1*
X671701Y1602701D2*
X677701D1*
X686701D2*
X746701D1*
X785701D2*
X842701D1*
X851701D2*
X857701D1*
X663285Y1599701D2*
X866838D1*
X654160Y1596701D2*
X677701D1*
X683701D2*
D3*
X697541D2*
X698701D1*
X707701D2*
D3*
X734701D2*
D3*
X743701D2*
X791701D1*
X797701D2*
D3*
X809701D2*
X812701D1*
X821701D2*
D3*
X845701D2*
X876395D1*
X645285Y1593701D2*
X670153D1*
X674701D2*
X677701D1*
X686701D2*
D3*
X694012D2*
X740701D1*
X746701D2*
X794701D1*
X800701D2*
D3*
X806701D2*
X812701D1*
X821701D2*
D3*
X830701D2*
X833701D1*
X839701D2*
D3*
X845701D2*
X885578D1*
X637649Y1590701D2*
X659658D1*
X683701D2*
D3*
X689701D2*
X839701D1*
X845701D2*
X848701D1*
X863701D2*
D3*
X869701D2*
D3*
X874598D2*
X893588D1*
X631668Y1587701D2*
X652776D1*
X656701D2*
D3*
X662701D2*
D3*
X677701D2*
X851701D1*
X863701D2*
D3*
X878493D2*
X900040D1*
X626962Y1584701D2*
X639804D1*
X644701D2*
X647701D1*
X652662D2*
X716701D1*
X725604D2*
X872701D1*
X881701D2*
D3*
X890701D2*
X904541D1*
X624459Y1581701D2*
X632909D1*
X647319D2*
X676562D1*
X729233D2*
X802598D1*
X851787D2*
X878701D1*
X890701D2*
D3*
X896701D2*
X907755D1*
X621417Y1578701D2*
X626701D1*
X632701D2*
D3*
X642920D2*
X669334D1*
X734411D2*
X763957D1*
X765140D2*
X797493D1*
X860025D2*
X890701D1*
X896701D2*
X911270D1*
X617072Y1575701D2*
X629701D1*
X635701D2*
X663406D1*
X740701D2*
X753671D1*
X778780D2*
X791701D1*
X866193D2*
X916015D1*
X611631Y1572701D2*
X659465D1*
X737713D2*
X746421D1*
X786872D2*
X795622D1*
X870202D2*
X921510D1*
X605729Y1569701D2*
X656256D1*
X734830D2*
X741079D1*
X791674D2*
X798728D1*
X873725D2*
X927096D1*
X599701Y1566701D2*
X652191D1*
X732329D2*
X738858D1*
X794879D2*
X801270D1*
X878465D2*
X932701D1*
X620701Y1563701D2*
X646739D1*
X730547D2*
X737069D1*
X797298D2*
X803451D1*
X884665D2*
X911701D1*
X617805Y1560701D2*
X640341D1*
X729535D2*
X735488D1*
X798971D2*
X805146D1*
X891577D2*
X913675D1*
X615581Y1557701D2*
X633557D1*
X729045D2*
X734072D1*
X799919D2*
X806528D1*
X898636D2*
X915782D1*
X613499Y1554701D2*
X626593D1*
X728833D2*
X732952D1*
X800378D2*
X808023D1*
X905725D2*
X918211D1*
X611179Y1551701D2*
X619279D1*
X728747D2*
X732227D1*
X800584D2*
X809701D1*
X913094D2*
X920902D1*
X608701Y1548701D2*
X611701D1*
X728701D2*
X731701D1*
X800701D2*
X803701D1*
X920701D2*
X923701D1*
X521701Y1518701D2*
X524701D1*
X533701D2*
X539701D1*
X548701D2*
X554701D1*
X563701D2*
X569701D1*
X575701D2*
X587701D1*
X596701D2*
X599701D1*
X614701D2*
X617701D1*
X626701D2*
X641701D1*
X647701D2*
X665701D1*
X680701D2*
X692701D1*
X701701D2*
X713701D1*
X719701D2*
X734701D1*
X758701D2*
X761701D1*
X779701D2*
X791701D1*
X809701D2*
X821701D1*
X842701D2*
X860701D1*
X866701D2*
X881701D1*
X890701D2*
X905701D1*
X920701D2*
X935701D1*
X944701D2*
X959701D1*
X980701D2*
X983701D1*
X1001701D2*
X1004701D1*
X521701Y1515701D2*
X524701D1*
X533701D2*
X539701D1*
X548701D2*
X556107D1*
X563701D2*
X569701D1*
X575701D2*
X586675D1*
X596827D2*
X600754D1*
X613648D2*
X616304D1*
X626701D2*
X641701D1*
X647701D2*
X665701D1*
X679363D2*
X692701D1*
X702727D2*
X713701D1*
X719701D2*
X737563D1*
X756841D2*
X763549D1*
X779701D2*
X795496D1*
X809701D2*
X816076D1*
X842701D2*
X855076D1*
X866701D2*
X877482D1*
X890701D2*
X908111D1*
X922086D2*
X930076D1*
X944701D2*
X961086D1*
X978291D2*
X984853D1*
X1001701D2*
X1004701D1*
X521701Y1512701D2*
X524701D1*
X533701D2*
X539701D1*
X548701D2*
X557701D1*
X563701D2*
X569701D1*
X581701D2*
X585794D1*
X597317D2*
X601774D1*
X612628D2*
X615337D1*
X626701D2*
D3*
X647701D2*
X653701D1*
X662701D2*
X665701D1*
X678478D2*
X682528D1*
X692701D2*
D3*
X703608D2*
X707701D1*
X719701D2*
X725701D1*
X734112D2*
X739956D1*
X755130D2*
X765167D1*
X779701D2*
X782701D1*
X791112D2*
X798550D1*
X809701D2*
D3*
X842701D2*
X848701D1*
X866701D2*
X872701D1*
X890701D2*
X893701D1*
X905112D2*
X909866D1*
X922947D2*
X923701D1*
X944701D2*
X950701D1*
X959701D2*
X961947D1*
X976524D2*
X986235D1*
X1001701D2*
X1004701D1*
X521713Y1509701D2*
X524701D1*
X533701D2*
X539678D1*
X548701D2*
X569701D1*
X581701D2*
X585331D1*
X598430D2*
X602701D1*
X611701D2*
X614507D1*
X626701D2*
X633076D1*
X647701D2*
X653701D1*
X662701D2*
X665713D1*
X678577D2*
X687383D1*
X704071D2*
X707701D1*
X719701D2*
X725701D1*
X735877D2*
X741773D1*
X753535D2*
X766485D1*
X779701D2*
X782701D1*
X792877D2*
X799807D1*
X809701D2*
X816076D1*
X842701D2*
X854284D1*
X866701D2*
X877482D1*
X890701D2*
X893701D1*
X906877D2*
X910847D1*
X923372D2*
X930076D1*
X944701D2*
X950701D1*
X959701D2*
X962395D1*
X975414D2*
X987906D1*
X1001701D2*
X1004701D1*
X521827Y1506701D2*
X524701D1*
X533701D2*
X539449D1*
X548701D2*
X551701D1*
X557235D2*
X569701D1*
X581701D2*
X585422D1*
X600033D2*
X613481D1*
X626701D2*
X638701D1*
X647701D2*
X665827D1*
X683711D2*
X691292D1*
X703980D2*
X707701D1*
X719701D2*
X725701D1*
X736951D2*
X741630D1*
X752097D2*
X755701D1*
X761701D2*
X767588D1*
X779701D2*
X782701D1*
X793951D2*
X799936D1*
X809701D2*
X821701D1*
X842701D2*
X858495D1*
X866701D2*
X881701D1*
X890701D2*
X893701D1*
X907951D2*
X911376D1*
X923451D2*
X935701D1*
X944701D2*
X962703D1*
X974542D2*
X977701D1*
X983701D2*
X989688D1*
X1001701D2*
X1004701D1*
X522291Y1503701D2*
X524701D1*
X533701D2*
X538904D1*
X548701D2*
X551701D1*
X559466D2*
X569701D1*
X581701D2*
X586033D1*
X601799D2*
X612162D1*
X626701D2*
D3*
X647701D2*
X653701D1*
X660474D2*
X666291D1*
X689701D2*
X694263D1*
X703369D2*
X707701D1*
X719701D2*
X725701D1*
X737701D2*
X740800D1*
X750962D2*
X768690D1*
X779701D2*
X782701D1*
X794701D2*
X798635D1*
X809701D2*
D3*
X842701D2*
X848701D1*
X866701D2*
X872701D1*
X890701D2*
X893701D1*
X908701D2*
X910824D1*
X923066D2*
X923701D1*
X944701D2*
X963245D1*
X973588D2*
X991123D1*
X1001701D2*
X1004701D1*
X523316Y1500701D2*
X536566D1*
X548701D2*
X551701D1*
X561566D2*
X569701D1*
X575701D2*
X586870D1*
X603687D2*
X610537D1*
X626701D2*
X641701D1*
X647701D2*
X653701D1*
X662827D2*
X667316D1*
X674701D2*
X692243D1*
X702532D2*
X713701D1*
X719701D2*
X739404D1*
X750231D2*
X769746D1*
X779701D2*
X795405D1*
X809701D2*
X816076D1*
X842701D2*
X848701D1*
X866701D2*
X877482D1*
X890701D2*
X908533D1*
X922070D2*
X930076D1*
X944701D2*
X950701D1*
X956701D2*
X964301D1*
X972608D2*
X992041D1*
X1001701D2*
X1013701D1*
X524701Y1497701D2*
X533701D1*
X548701D2*
X551701D1*
X563701D2*
X569701D1*
X575701D2*
X587701D1*
X605701D2*
X608701D1*
X626701D2*
X641701D1*
X647701D2*
X653701D1*
X665701D2*
X668701D1*
X677701D2*
X689701D1*
X701701D2*
X713701D1*
X719701D2*
X737701D1*
X749701D2*
X752701D1*
X767701D2*
X770701D1*
X779701D2*
X791701D1*
X809701D2*
X821701D1*
X842701D2*
X848701D1*
X866701D2*
X881701D1*
X890701D2*
X905701D1*
X920701D2*
X935701D1*
X944701D2*
X950701D1*
X962701D2*
X965701D1*
X971701D2*
X974701D1*
X989701D2*
X992701D1*
X1001701D2*
X1013701D1*
X560701Y1476701D2*
D3*
X590701D2*
D3*
X605701D2*
D3*
X632701D2*
X638701D1*
X656701D2*
D3*
X662701D2*
D3*
X677701D2*
D3*
X683701D2*
D3*
X698701D2*
D3*
X707701D2*
D3*
X725701D2*
D3*
X743701D2*
D3*
X779701D2*
X788701D1*
X809701D2*
D3*
X857701D2*
X860701D1*
X878701D2*
D3*
X923701D2*
D3*
X941701D2*
X944701D1*
X962701D2*
X965701D1*
X560701Y1473701D2*
X578701D1*
X590701D2*
X605701D1*
X629619D2*
X641701D1*
X656226D2*
X665701D1*
X677701D2*
X686701D1*
X698701D2*
D3*
X707701D2*
X725701D1*
X740456D2*
X746701D1*
X775906D2*
X788701D1*
X805894D2*
X809701D1*
X821701D2*
X842701D1*
X855853D2*
X862561D1*
X878701D2*
X896701D1*
X902701D2*
X917701D1*
X923701D2*
X932701D1*
X941701D2*
X944701D1*
X960841D2*
X967561D1*
X560701Y1470701D2*
X563701D1*
X575678D2*
X580074D1*
X590701D2*
X593701D1*
X628337D2*
X626701D1*
X655376D2*
X665815D1*
X677701D2*
X688107D1*
X698701D2*
D3*
X713701D2*
X721547D1*
X737884D2*
X747738D1*
X772852D2*
X776701D1*
X803172D2*
X811664D1*
X825855D2*
X838547D1*
X854235D2*
X864272D1*
X878701D2*
X881701D1*
X890701D2*
X895928D1*
X905471D2*
X914931D1*
X923701D2*
X932701D1*
X941701D2*
X944701D1*
X959130D2*
X969272D1*
X560701Y1467701D2*
X563701D1*
X575449D2*
X580819D1*
X590701D2*
X605701D1*
X629022D2*
X634280D1*
X654206D2*
X656701D1*
X662701D2*
X666211D1*
X677701D2*
X680701D1*
X686701D2*
X689701D1*
X698701D2*
D3*
X713701D2*
X718470D1*
X735852D2*
X737701D1*
X743701D2*
X748737D1*
X771595D2*
X776824D1*
X801349D2*
X803701D1*
X809701D2*
X813654D1*
X828932D2*
X835470D1*
X852917D2*
X865879D1*
X878701D2*
X881701D1*
X887701D2*
X893575D1*
X907522D2*
X912880D1*
X923701D2*
X944701D1*
X957535D2*
X970867D1*
X560701Y1464701D2*
X563701D1*
X574904D2*
X581071D1*
X590701D2*
X599513D1*
X631301D2*
X639606D1*
X652847D2*
X656701D1*
X665701D2*
X667045D1*
X677701D2*
X680701D1*
X688316D2*
X698701D1*
X713701D2*
X717531D1*
X734221D2*
X737701D1*
X746701D2*
X749690D1*
X771419D2*
X777290D1*
X799950D2*
X803701D1*
X809701D2*
X815586D1*
X829871D2*
X834531D1*
X851814D2*
X854701D1*
X863701D2*
X867431D1*
X878701D2*
X890701D1*
X908150D2*
X912235D1*
X923701D2*
X926701D1*
X932701D2*
X944701D1*
X956097D2*
X959701D1*
X968701D2*
X972305D1*
X560701Y1461701D2*
X563701D1*
X572566D2*
X579821D1*
X590701D2*
X593701D1*
X633595D2*
X643441D1*
X651327D2*
X668286D1*
X677701D2*
X680701D1*
X690451D2*
X698701D1*
X713701D2*
X717042D1*
X733008D2*
X750728D1*
X772631D2*
X778316D1*
X798884D2*
X817084D1*
X830360D2*
X834042D1*
X850712D2*
X869029D1*
X878701D2*
X881701D1*
X887149D2*
X893701D1*
X908490D2*
X912651D1*
X923701D2*
X926701D1*
X935701D2*
X944701D1*
X954962D2*
X973440D1*
X560701Y1458701D2*
X563701D1*
X569701D2*
X577924D1*
X590701D2*
X600076D1*
X626701D2*
D3*
X635701D2*
X642349D1*
X649600D2*
X653701D1*
X665701D2*
X669880D1*
X677701D2*
X680701D1*
X692993D2*
X698701D1*
X713701D2*
X716823D1*
X732246D2*
X737701D1*
X749701D2*
X751759D1*
X774572D2*
X779701D1*
X788701D2*
D3*
X798198D2*
X800701D1*
X812701D2*
X818028D1*
X830579D2*
X833823D1*
X849656D2*
X851701D1*
X866701D2*
X870786D1*
X878701D2*
X881701D1*
X889097D2*
X896701D1*
X908701D2*
X914899D1*
X923701D2*
X926701D1*
X938701D2*
X944701D1*
X954231D2*
X956701D1*
X971701D2*
X974171D1*
X560701Y1455701D2*
X575701D1*
X590701D2*
X605701D1*
X629513D2*
X639277D1*
X647701D2*
X653701D1*
X665701D2*
X671701D1*
X677701D2*
X680701D1*
X695701D2*
X698701D1*
X713701D2*
X716701D1*
X731701D2*
X734701D1*
X749701D2*
X752701D1*
X777034D2*
X788701D1*
X797701D2*
X800701D1*
X815701D2*
X818701D1*
X830701D2*
X833701D1*
X848701D2*
X851701D1*
X866701D2*
X872701D1*
X878701D2*
X881701D1*
X890701D2*
X917701D1*
X923701D2*
X926701D1*
X941701D2*
X944701D1*
X953701D2*
X956701D1*
X971701D2*
X974701D1*
X632701Y1452701D2*
X635701D1*
X779701D2*
X785701D1*
X770701Y1875701D2*
X769305Y1872701D1*
X768378Y1869701D1*
X767701Y1866701D1*
X776701Y1875701D2*
X777738Y1872701D1*
X778737Y1869701D1*
X779688Y1866701D1*
X780712Y1863701D1*
X781719Y1860701D1*
X782679Y1857701D1*
X783696Y1854701D1*
X784588Y1851701D1*
X785038Y1848701D1*
X785087Y1845701D1*
X783686Y1842701D1*
X780426Y1839701D1*
X776701Y1836701D1*
X758701Y1866701D2*
X758578Y1863701D1*
X758112Y1860701D1*
X757086Y1857701D1*
X755701Y1854701D1*
X749701D2*
Y1851701D1*
Y1848701D1*
Y1845701D1*
Y1842701D1*
Y1839701D1*
Y1836701D1*
X758701Y1854701D2*
X764701Y1857701D2*
X767701Y1854701D1*
X773701Y1857701D2*
Y1854701D1*
Y1851701D1*
Y1848701D1*
Y1845701D1*
X767701Y1851701D2*
Y1848701D1*
Y1845701D1*
X755701D2*
X752701Y1842701D1*
X755701Y1845701D2*
X758701Y1842701D1*
X779701Y1845701D2*
X776701Y1842701D1*
X779701Y1845701D2*
X782701Y1842701D1*
X785701Y1824701D2*
X653701Y1809701D2*
X650713Y1806701D1*
X647830Y1803701D1*
X645329Y1800701D1*
X643559Y1797701D1*
X642376Y1794701D1*
X642342Y1791701D1*
X643586Y1788701D1*
X645480Y1785701D1*
X647701Y1782701D1*
X680701Y1809701D2*
Y1806701D1*
Y1803701D1*
Y1800701D1*
Y1797701D1*
Y1794701D1*
Y1791701D1*
Y1788701D1*
Y1785701D1*
Y1782701D1*
Y1779701D1*
Y1776701D1*
Y1773701D1*
Y1770701D1*
Y1767701D1*
Y1764701D1*
Y1761701D1*
Y1758701D1*
Y1755701D1*
Y1752701D1*
Y1749701D1*
Y1746701D1*
Y1743701D1*
Y1740701D1*
X851701Y1809701D2*
Y1806701D1*
Y1803701D1*
Y1800701D1*
Y1797701D1*
Y1794701D1*
Y1791701D1*
Y1788701D1*
Y1785701D1*
Y1782701D1*
Y1779701D1*
X656701Y1806701D2*
X656587Y1803701D1*
X656191Y1800701D1*
X655366Y1797701D1*
X654203Y1794701D1*
X652846Y1791701D1*
X651327Y1788701D1*
X649600Y1785701D1*
X647701Y1782701D1*
X878701Y1806701D2*
X878249Y1803701D1*
X877623Y1800701D1*
X877048Y1797701D1*
X877840Y1794701D1*
X879135Y1791701D1*
X880477Y1788701D1*
X881701Y1785701D1*
Y1803701D2*
X884100Y1800701D1*
X886093Y1797701D1*
X886663Y1794701D1*
X885629Y1791701D1*
X883850Y1788701D1*
X881701Y1785701D1*
X689701Y1803701D2*
X689824Y1800701D1*
X690290Y1797701D1*
X691316Y1794701D1*
X692701Y1791701D1*
X707701Y1803701D2*
X704701Y1800701D1*
X701701Y1797701D1*
X707701Y1794701D1*
X698701Y1791701D1*
X716701Y1803701D2*
X716149Y1800701D1*
X715097Y1797701D1*
X713701Y1794701D1*
X716888Y1791701D1*
X719701Y1788701D1*
X722701Y1803701D2*
X726253Y1800701D1*
X730305Y1797701D1*
X734701Y1794701D1*
X730107Y1791701D1*
X725701Y1788701D1*
X734701Y1803701D2*
X731701Y1800701D1*
X728701Y1797701D1*
X734701Y1794701D1*
X730107Y1791701D1*
X725701Y1788701D1*
X620701Y1785701D2*
X620941Y1782701D1*
X621474Y1779701D1*
X623800Y1776701D1*
X627093Y1773701D1*
X631192Y1770701D1*
X635701Y1767701D1*
X629701Y1785701D2*
X632958Y1782701D1*
X635654Y1779701D1*
X638239Y1776701D1*
X641263Y1773701D1*
X644701Y1770701D1*
X731701Y1785701D2*
X732153Y1782701D1*
X732779Y1779701D1*
X733354Y1776701D1*
X732743Y1773701D1*
X730845Y1770701D1*
X728701Y1767701D1*
X749701Y1764701D1*
X746701Y1761701D1*
X743701Y1758701D1*
X779701Y1785701D2*
X764701Y1782701D1*
X749701Y1779701D1*
X662701D2*
X657461Y1776701D1*
X653659Y1773701D1*
X650701Y1770701D1*
X671701Y1779701D2*
X670321Y1776701D1*
X668153Y1773701D1*
X664886Y1770701D1*
X660871Y1767701D1*
X656701Y1764701D1*
X725701Y1782701D2*
X720253Y1779701D1*
X715305Y1776701D1*
X710701Y1773701D1*
X725701Y1782701D2*
X726253Y1779701D1*
X727305Y1776701D1*
X728701Y1773701D1*
X908701Y1779701D2*
X900750Y1776701D1*
X894615Y1773701D1*
X892391Y1770701D1*
X890701Y1767701D1*
X860701Y1776701D2*
X863141Y1773701D1*
X866009Y1770701D1*
X869295Y1767701D1*
X872701Y1764701D1*
X875701Y1776701D2*
X878701Y1773701D1*
X884701Y1776701D2*
Y1773701D1*
X908701Y1776701D2*
X906281Y1773701D1*
X902753Y1770701D1*
X897942Y1767701D1*
X893337Y1764701D1*
X890118Y1761701D1*
X887701Y1758701D1*
X686701Y1776701D2*
X685928Y1773701D1*
X683575Y1770701D1*
X680701Y1767701D1*
X689701Y1764701D1*
X698701Y1776701D2*
X698235Y1773701D1*
X697466Y1770701D1*
X696566Y1767701D1*
X695701Y1764701D1*
X755701Y1770701D2*
X758701D2*
X754316Y1767701D1*
X750451Y1764701D1*
X746993Y1761701D1*
X743701Y1758701D1*
X764701Y1770701D2*
X767701D2*
X788701D2*
X800701D2*
X809701D2*
X845701D2*
X884701D2*
X881701Y1767701D1*
X878701Y1764701D1*
X638701Y1770701D2*
X641701Y1767701D1*
X644701Y1764701D1*
X614701D2*
X615165Y1761701D1*
X615909Y1758701D1*
X616693Y1755701D1*
X617264Y1752701D1*
X617701Y1749701D1*
X626701D1*
Y1746701D1*
X641701Y1743701D1*
X626701Y1764701D2*
X630138Y1761701D1*
X632804Y1758701D1*
X634492Y1755701D1*
X635701Y1752701D1*
X647701Y1767701D2*
X650701Y1764701D1*
X800701D2*
X830701D2*
X641701Y1758701D2*
Y1755701D1*
Y1752701D1*
X656701Y1758701D2*
X653200Y1755701D1*
X650233Y1752701D1*
X647701Y1749701D1*
X668701Y1758701D2*
X667316Y1755701D1*
X666451Y1752701D1*
X665993Y1749701D1*
X665701Y1746701D1*
X656701D1*
Y1743701D1*
X740701Y1761701D2*
X733356Y1758701D1*
X727514Y1755701D1*
X722701Y1752701D1*
X724295Y1749701D1*
X725701Y1746701D1*
X740701Y1761701D2*
X738279Y1758701D1*
X736410Y1755701D1*
X734939Y1752701D1*
X733402Y1749701D1*
X731701Y1746701D1*
X851701Y1758701D2*
Y1755701D1*
Y1752701D1*
Y1749701D1*
Y1746701D1*
Y1743701D1*
Y1740701D1*
X863701Y1758701D2*
X865675Y1755701D1*
X867774Y1752701D1*
X870159Y1749701D1*
X872701Y1746701D1*
X878701Y1758701D2*
X880552Y1755701D1*
X882185Y1752701D1*
X883544Y1749701D1*
X884701Y1746701D1*
X899701Y1758701D2*
X896701Y1755701D1*
X893701Y1752701D1*
X890701Y1749701D1*
X893701Y1746701D1*
X911701Y1758701D2*
X911256Y1755701D1*
X909636Y1752701D1*
X905435Y1749701D1*
X900381Y1746701D1*
X895915Y1743701D1*
X892913Y1740701D1*
X890701Y1737701D1*
X641701Y1749701D2*
X611701Y1737701D2*
X613440Y1734701D1*
X615561Y1731701D1*
X618540Y1728701D1*
X621808Y1725701D1*
X624488Y1722701D1*
X626701Y1719701D1*
Y1737701D2*
X629701Y1734701D1*
X638701Y1737701D2*
Y1734701D1*
X656701Y1737701D2*
X653264Y1734701D1*
X650598Y1731701D1*
X648910Y1728701D1*
X647701Y1725701D1*
X659701Y1737701D2*
X665701D2*
X902701D2*
X900596Y1734701D1*
X898556Y1731701D1*
X896701Y1728701D1*
X914701Y1737701D2*
X913132Y1734701D1*
X911646Y1731701D1*
X907902Y1728701D1*
X902555Y1725701D1*
X897319Y1722701D1*
X893243Y1719701D1*
X891903Y1716701D1*
X891200Y1713701D1*
X890892Y1710701D1*
X890770Y1707701D1*
X890725Y1704701D1*
X890709Y1701701D1*
X890704Y1698701D1*
X890702Y1695701D1*
X890701Y1692701D1*
Y1689701D1*
Y1686701D1*
Y1683701D1*
Y1680701D1*
Y1677701D1*
Y1674701D1*
Y1671701D1*
Y1668701D1*
X665701Y1734701D2*
X665209Y1731701D1*
X663069Y1728701D1*
X659993Y1725701D1*
X656728Y1722701D1*
X653701Y1719701D1*
X869701Y1734701D2*
X870973Y1731701D1*
X872805Y1728701D1*
X875473Y1725701D1*
X878701Y1722701D1*
X881701Y1734701D2*
X884701Y1731701D1*
X887701Y1728701D1*
X638701Y1731701D2*
X637295Y1728701D1*
X635701Y1725701D1*
X707701Y1728701D2*
X710456Y1725701D1*
X713872Y1722701D1*
X717735Y1719701D1*
X721711Y1716701D1*
X725673Y1713701D1*
X729720Y1710701D1*
X733756Y1707701D1*
X737701Y1704701D1*
X729678Y1701701D1*
X722988Y1698701D1*
X718066Y1695701D1*
X714328Y1692701D1*
X711369Y1689701D1*
X708863Y1686701D1*
X706220Y1683701D1*
X703140Y1680701D1*
X700250Y1677701D1*
X697973Y1674701D1*
X697813Y1671701D1*
X698082Y1668701D1*
X698408Y1665701D1*
X698701Y1662701D1*
X704701D1*
X706305Y1659701D1*
X708378Y1656701D1*
X710701Y1653701D1*
X707701Y1650701D1*
X711854Y1647701D1*
X718045Y1644701D1*
X725701Y1641701D1*
X818701Y1728701D2*
X809233Y1725701D1*
X800803Y1722701D1*
X793944Y1719701D1*
X788658Y1716701D1*
X784665Y1713701D1*
X781871Y1710701D1*
X779701Y1707701D1*
X821701Y1728701D2*
X817561Y1725701D1*
X813284Y1722701D1*
X808984Y1719701D1*
X804807Y1716701D1*
X800685Y1713701D1*
X796310Y1710701D1*
X791701Y1707701D1*
X796107Y1704701D1*
X800701Y1701701D1*
X641701Y1725701D2*
X719701D2*
X727172Y1722701D1*
X733322Y1719701D1*
X738274Y1716701D1*
X742500Y1713701D1*
X746211Y1710701D1*
X749701Y1707701D1*
X884701Y1725701D2*
X881701Y1722701D1*
X608701Y1719701D2*
X608827Y1716701D1*
X609340Y1713701D1*
X610312Y1710701D1*
X612948Y1707701D1*
X616268Y1704701D1*
X619958Y1701701D1*
X623701Y1698701D1*
X620701Y1719701D2*
X632701Y1722701D2*
X630290Y1719701D1*
X628525Y1716701D1*
X627451Y1713701D1*
X626701Y1710701D1*
X635701D1*
Y1707701D1*
X632701Y1722701D2*
X635701Y1719701D1*
X638701Y1722701D2*
X641701Y1719701D1*
X638701Y1722701D2*
X647701Y1719701D1*
X656701Y1716701D1*
X653200Y1713701D1*
X650233Y1710701D1*
X647701Y1707701D1*
X659701Y1716701D2*
X665701D2*
X866701D2*
X868549Y1713701D1*
X870155Y1710701D1*
X871377Y1707701D1*
X872148Y1704701D1*
X872701Y1701701D1*
X890701D1*
Y1698701D1*
Y1695701D1*
Y1692701D1*
Y1689701D1*
X908701Y1716701D2*
X904782Y1713701D1*
X901686Y1710701D1*
X899128Y1707701D1*
X896701Y1704701D1*
X917701Y1716701D2*
X916552Y1713701D1*
X915185Y1710701D1*
X913544Y1707701D1*
X911701Y1704701D1*
X617701Y1716701D2*
X614701Y1713701D1*
X617701Y1716701D2*
X620701Y1713701D1*
X665701D2*
Y1710701D1*
Y1707701D1*
Y1704701D1*
Y1701701D1*
X653701D1*
Y1698701D1*
X881701Y1713701D2*
X884701Y1710701D1*
X758701Y1707701D2*
X770701D2*
X635701Y1704701D2*
Y1701701D1*
Y1698701D1*
X635713Y1695701D1*
X635830Y1692701D1*
X636329Y1689701D1*
X637536Y1686701D1*
X639455Y1683701D1*
X641701Y1680701D1*
X640316Y1677701D1*
X639451Y1674701D1*
X638993Y1671701D1*
X638701Y1668701D1*
Y1704701D2*
X641701Y1701701D1*
X647701Y1704701D2*
X648861Y1701701D1*
X652390Y1698701D1*
X656701Y1695701D1*
X652095Y1692701D1*
X648365Y1689701D1*
X646661Y1686701D1*
X646577Y1683701D1*
X648110Y1680701D1*
X650591Y1677701D1*
X653701Y1674701D1*
X650513Y1671701D1*
X647701Y1668701D1*
X809701Y1701701D2*
X632701D2*
X626701Y1698701D1*
X620701Y1695701D1*
X625295Y1692701D1*
X629701Y1689701D1*
X809701Y1698701D2*
X814523Y1695701D1*
X818584Y1692701D1*
X820333Y1689701D1*
X821701Y1686701D1*
X830701D1*
X830713Y1683701D1*
X830830Y1680701D1*
X831318Y1677701D1*
X832419Y1674701D1*
X833883Y1671701D1*
X835274Y1668701D1*
X835332Y1665701D1*
X832998Y1662701D1*
X829700Y1659701D1*
X826337Y1656701D1*
X823545Y1653701D1*
X820929Y1650701D1*
X817936Y1647701D1*
X811404Y1644701D1*
X803701Y1641701D1*
X920701Y1698701D2*
X605701Y1695701D2*
X606727Y1692701D1*
X607628Y1689701D1*
X608243Y1686701D1*
X608701Y1683701D1*
X620701D1*
X622107Y1680701D1*
X623701Y1677701D1*
X665701Y1695701D2*
X664675Y1692701D1*
X663774Y1689701D1*
X663159Y1686701D1*
X662701Y1683701D1*
X653701D1*
X652295Y1680701D1*
X650701Y1677701D1*
X740701Y1698701D2*
X741474Y1695701D1*
X743827Y1692701D1*
X746701Y1689701D1*
Y1698701D2*
X750253Y1695701D1*
X754305Y1692701D1*
X758701Y1689701D1*
X761701Y1698701D2*
X758701Y1695701D1*
X764701Y1698701D2*
X767701Y1695701D1*
X779701Y1698701D2*
X776149Y1695701D1*
X772097Y1692701D1*
X767701Y1689701D1*
X773701Y1686701D1*
X788701Y1698701D2*
X794701Y1695701D1*
X800701Y1692701D1*
X790482Y1689701D1*
X779701Y1686701D1*
X866701Y1695701D2*
X868316Y1692701D1*
X870451Y1689701D1*
X872993Y1686701D1*
X875701Y1683701D1*
X869701Y1695701D2*
X877482Y1692701D1*
X884701Y1689701D1*
X908701Y1695701D2*
X904454Y1692701D1*
X900748Y1689701D1*
X898881Y1686701D1*
X898800Y1683701D1*
X899701Y1680701D1*
X917701Y1695701D2*
X916549Y1692701D1*
X915155Y1689701D1*
X913377Y1686701D1*
X911148Y1683701D1*
X908701Y1680701D1*
X722701Y1689701D2*
X720279Y1686701D1*
X718410Y1683701D1*
X716939Y1680701D1*
X715402Y1677701D1*
X713701Y1674701D1*
X719701Y1689701D2*
X727866Y1686701D1*
X734700Y1683701D1*
X739721Y1680701D1*
X743701Y1677701D1*
X734701Y1674701D1*
X758701Y1686701D2*
X755701Y1683701D1*
X758701Y1686701D2*
X761701Y1683701D1*
X809701Y1686701D2*
X803481Y1683701D1*
X797644Y1680701D1*
X792796Y1677701D1*
X788701Y1674701D1*
X799482Y1671701D1*
X809701Y1668701D1*
X821701Y1686701D2*
Y1683701D1*
Y1680701D1*
Y1677701D1*
Y1674701D1*
Y1671701D1*
Y1668701D1*
X887701Y1686701D2*
X884701Y1683701D1*
X632701Y1680701D2*
X626701Y1677701D1*
X620701Y1674701D1*
X625482Y1671701D1*
X629701Y1668701D1*
X863701Y1677701D2*
X865193Y1674701D1*
X866862Y1671701D1*
X868378Y1668701D1*
X869701Y1665701D1*
X608701Y1674701D2*
X609876Y1671701D1*
X611482Y1668701D1*
X614022Y1665701D1*
X617627Y1662701D1*
X621359Y1659701D1*
X624308Y1656701D1*
X626701Y1653701D1*
X665701Y1674701D2*
X664675Y1671701D1*
X663774Y1668701D1*
X663159Y1665701D1*
X662701Y1662701D1*
X653701D1*
Y1659701D1*
X875701Y1674701D2*
X879044Y1671701D1*
X881952Y1668701D1*
X884701Y1665701D1*
X899701Y1671701D2*
X896701Y1668701D1*
X917701Y1671701D2*
X915044Y1668701D1*
X912347Y1665701D1*
X909221Y1662701D1*
X905701Y1659701D1*
X623701Y1671701D2*
X620701Y1668701D1*
X623701Y1671701D2*
X626701Y1668701D1*
X755701Y1671701D2*
X746149Y1668701D1*
X736097Y1665701D1*
X725701Y1662701D1*
X729125Y1659701D1*
X732121Y1656701D1*
X733302Y1653701D1*
X732908Y1650701D1*
X731926Y1647701D1*
X730453Y1644701D1*
X728701Y1641701D1*
X755701Y1671701D2*
X753290Y1668701D1*
X751525Y1665701D1*
X750451Y1662701D1*
X749701Y1659701D1*
X773701Y1671701D2*
X774279Y1668701D1*
X775407Y1665701D1*
X776915Y1662701D1*
X778327Y1659701D1*
X779628Y1656701D1*
X781241Y1653701D1*
X783347Y1650701D1*
X785701Y1647701D1*
X776701Y1671701D2*
X783027Y1668701D1*
X789140Y1665701D1*
X794093Y1662701D1*
X797748Y1659701D1*
X798536Y1656701D1*
X798287Y1653701D1*
X798257Y1650701D1*
X798608Y1647701D1*
X800883Y1644701D1*
X803701Y1641701D1*
X752701Y1665701D2*
X750841Y1662701D1*
X749118Y1659701D1*
X747418Y1656701D1*
X745595Y1653701D1*
X743717Y1650701D1*
X742092Y1647701D1*
X740701Y1644701D1*
X776701Y1665701D2*
Y1662701D1*
X890701Y1665701D2*
X889664Y1662701D1*
X888665Y1659701D1*
X887712Y1656701D1*
X886674Y1653701D1*
X885643Y1650701D1*
X884701Y1647701D1*
X641701Y1662701D2*
X642165Y1659701D1*
X642909Y1656701D1*
X643693Y1653701D1*
X644264Y1650701D1*
X644701Y1647701D1*
Y1662701D2*
X647701Y1659701D1*
X680701D2*
X851701D2*
Y1656701D1*
X890701Y1659701D2*
X889193Y1656701D1*
X887862Y1653701D1*
X886378Y1650701D1*
X884701Y1647701D1*
X896701Y1662701D2*
X899701Y1659701D1*
X632701D2*
X629701Y1656701D1*
X626701Y1653701D1*
X632888Y1650701D1*
X638701Y1647701D1*
X662701Y1656701D2*
X658857Y1653701D1*
X655982Y1650701D1*
X653701Y1647701D1*
X668701Y1656701D2*
X668100Y1653701D1*
X667093Y1650701D1*
X664372Y1647701D1*
X660791Y1644701D1*
X656701Y1641701D1*
X860701Y1656701D2*
X861165Y1653701D1*
X861909Y1650701D1*
X862693Y1647701D1*
X863264Y1644701D1*
X863701Y1641701D1*
X881701D1*
X880200Y1638701D1*
X878458Y1635701D1*
X876730Y1632701D1*
X875169Y1629701D1*
X873766Y1626701D1*
X872179Y1623701D1*
X869903Y1620701D1*
X867085Y1617701D1*
X864266Y1614701D1*
X861510Y1611701D1*
X858491Y1608701D1*
X855141Y1605701D1*
X851701Y1602701D1*
X614701Y1653701D2*
X616340Y1650701D1*
X618689Y1647701D1*
X622022Y1644701D1*
X626316Y1641701D1*
X631021Y1638701D1*
X635701Y1635701D1*
X641701Y1653701D2*
X643107Y1650701D1*
X644701Y1647701D1*
X683701Y1653701D2*
X685648Y1650701D1*
X687628Y1647701D1*
X689701Y1644701D1*
X872701Y1653701D2*
X875701Y1650701D1*
X878701Y1647701D1*
X845701Y1650701D2*
X893701D2*
X890701Y1647701D1*
X911701Y1650701D2*
X909261Y1647701D1*
X906393Y1644701D1*
X903107Y1641701D1*
X899701Y1638701D1*
X629701Y1650701D2*
X626701Y1647701D1*
X629701Y1650701D2*
X632701Y1647701D1*
X842701D2*
X692701Y1644701D2*
X737701D2*
X839701D2*
X638701D2*
X635701Y1641701D1*
X638701Y1644701D2*
X641701Y1641701D1*
X653701Y1644701D2*
X650701Y1641701D1*
X647701Y1638701D1*
X650149Y1635701D1*
X652097Y1632701D1*
X653701Y1629701D1*
X698701Y1641701D2*
Y1638701D1*
X833701Y1641701D2*
X851701D2*
X851941Y1638701D1*
X852474Y1635701D1*
X854693Y1632701D1*
X857571Y1629701D1*
X860701Y1626701D1*
X884701Y1644701D2*
X890701Y1641701D1*
X896701Y1638701D1*
X665701D2*
X663596Y1635701D1*
X661556Y1632701D1*
X659701Y1629701D1*
X677701Y1638701D2*
X677256Y1635701D1*
X675636Y1632701D1*
X671425Y1629701D1*
X666255Y1626701D1*
X661223Y1623701D1*
X656701Y1620701D1*
X660072Y1617701D1*
X663146Y1614701D1*
X666398Y1611701D1*
X670041Y1608701D1*
X673877Y1605701D1*
X677701Y1602701D1*
X704701Y1638701D2*
X707701Y1635701D1*
X737701Y1638701D2*
X827701D2*
X830701D2*
X863701D2*
X866056Y1635701D1*
X868107Y1632701D1*
X866168Y1629701D1*
X863701Y1626701D1*
X641701Y1638701D2*
X638701Y1635701D1*
X647701D2*
X649305Y1632701D1*
X651378Y1629701D1*
X653701Y1626701D1*
X821701Y1635701D2*
X881701D2*
X879738Y1632701D1*
X877748Y1629701D1*
X875793Y1626701D1*
X874094Y1623701D1*
X872426Y1620701D1*
X870342Y1617701D1*
X867837Y1614701D1*
X865162Y1611701D1*
X862558Y1608701D1*
X860120Y1605701D1*
X857701Y1602701D1*
X866838Y1599701D1*
X876395Y1596701D1*
X885578Y1593701D1*
X893588Y1590701D1*
X900040Y1587701D1*
X904541Y1584701D1*
X907755Y1581701D1*
X911270Y1578701D1*
X916015Y1575701D1*
X921510Y1572701D1*
X927096Y1569701D1*
X932701Y1566701D1*
X911701Y1563701D1*
X913675Y1560701D1*
X915782Y1557701D1*
X918211Y1554701D1*
X920902Y1551701D1*
X923701Y1548701D1*
X713701Y1632701D2*
X719701D2*
X809701D2*
X812701D2*
X806701Y1629701D1*
X818701Y1632701D2*
X890701D2*
X886843Y1629701D1*
X883506Y1626701D1*
X884307Y1623701D1*
X887237Y1620701D1*
X890701Y1617701D1*
X893701Y1632701D2*
X899888Y1629701D1*
X905701Y1626701D1*
X902149Y1623701D1*
X898097Y1620701D1*
X893701Y1617701D1*
X629701Y1629701D2*
X620701Y1626701D1*
X623850Y1623701D1*
X628410Y1620701D1*
X635641Y1617701D1*
X644701Y1614701D1*
X641701Y1629701D2*
X647701Y1626701D1*
X725701Y1629701D2*
X728701Y1626701D1*
Y1629701D2*
X731701Y1626701D1*
X737701D2*
X740701Y1623701D1*
X794701Y1626701D2*
X800701D2*
X743701Y1623701D2*
X788701D2*
X749701Y1620701D2*
X753754Y1617701D1*
X757774Y1614701D1*
X761701Y1611701D1*
X782701Y1620701D2*
X647701D2*
Y1617701D1*
Y1614701D1*
X656701Y1617701D2*
X659598Y1614701D1*
X662326Y1611701D1*
X665045Y1608701D1*
X668178Y1605701D1*
X671701Y1602701D1*
X663285Y1599701D1*
X654160Y1596701D1*
X645285Y1593701D1*
X637649Y1590701D1*
X631668Y1587701D1*
X626962Y1584701D1*
X624459Y1581701D1*
X621417Y1578701D1*
X617072Y1575701D1*
X611631Y1572701D1*
X605729Y1569701D1*
X599701Y1566701D1*
X620701Y1563701D1*
X617805Y1560701D1*
X615581Y1557701D1*
X613499Y1554701D1*
X611179Y1551701D1*
X608701Y1548701D1*
X755701Y1617701D2*
X779701D2*
X770701Y1614701D2*
X767701Y1611701D2*
Y1608701D1*
X707701Y1605701D2*
X686701Y1602701D1*
X743701Y1605701D2*
X746701Y1602701D1*
X749701Y1599701D1*
X788701Y1605701D2*
X785701Y1602701D1*
X782701Y1599701D1*
X821701Y1605701D2*
X842701Y1602701D1*
X677701Y1599701D2*
Y1596701D1*
Y1593701D1*
X680701Y1599701D2*
X683701Y1596701D1*
X686701Y1593701D1*
X689701Y1590701D1*
X698701Y1599701D2*
X697541Y1596701D1*
X694012Y1593701D1*
X689701Y1590701D1*
X704701Y1599701D2*
X707701Y1596701D1*
X731701Y1599701D2*
X734701Y1596701D1*
X740701Y1599701D2*
X743701Y1596701D1*
X746701Y1593701D1*
X788701Y1599701D2*
X791701Y1596701D1*
X794701Y1593701D1*
Y1599701D2*
X797701Y1596701D1*
X800701Y1593701D1*
X812701Y1599701D2*
X809701Y1596701D1*
X806701Y1593701D1*
X812701Y1599701D2*
Y1596701D1*
Y1593701D1*
X821701Y1599701D2*
Y1596701D1*
Y1593701D1*
X845701Y1599701D2*
Y1596701D1*
Y1593701D1*
Y1590701D1*
X683701Y1596701D2*
X670153Y1593701D1*
X659658Y1590701D1*
X652776Y1587701D1*
X647701Y1584701D1*
X671701Y1596701D2*
X674701Y1593701D1*
X740701D2*
X830701D2*
X833701D2*
X839701D2*
X683701Y1590701D2*
X677701Y1587701D1*
X839701Y1590701D2*
X845701Y1593701D2*
X848701Y1590701D1*
X851701Y1587701D1*
X863701Y1593701D2*
Y1590701D1*
Y1587701D1*
X866701Y1593701D2*
X869701Y1590701D1*
Y1593701D2*
X874598Y1590701D1*
X878493Y1587701D1*
X881701Y1584701D1*
X656701Y1587701D2*
X652662Y1584701D1*
X647319Y1581701D1*
X641461Y1578701D1*
X635701Y1575701D1*
X662701Y1587701D2*
X647701D2*
X639804Y1584701D1*
X632909Y1581701D1*
X626701Y1578701D1*
X629701Y1575701D1*
X638701Y1587701D2*
X644701Y1584701D1*
X650701Y1581701D1*
X642920Y1578701D1*
X635701Y1575701D1*
X719701Y1587701D2*
X716701Y1584701D1*
X722701Y1587701D2*
X725604Y1584701D1*
X729233Y1581701D1*
X734411Y1578701D1*
X740701Y1575701D1*
X737713Y1572701D1*
X734830Y1569701D1*
X732329Y1566701D1*
X730547Y1563701D1*
X729535Y1560701D1*
X729045Y1557701D1*
X728833Y1554701D1*
X728747Y1551701D1*
X728701Y1548701D1*
X872701Y1584701D2*
X878701Y1581701D1*
X890701Y1587701D2*
Y1584701D1*
Y1581701D1*
X683701Y1584701D2*
X676562Y1581701D1*
X669334Y1578701D1*
X663406Y1575701D1*
X659465Y1572701D1*
X656256Y1569701D1*
X652191Y1566701D1*
X646739Y1563701D1*
X640341Y1560701D1*
X633557Y1557701D1*
X626593Y1554701D1*
X619279Y1551701D1*
X611701Y1548701D1*
X806701Y1584701D2*
X802598Y1581701D1*
X797493Y1578701D1*
X791701Y1575701D1*
X795622Y1572701D1*
X798728Y1569701D1*
X801270Y1566701D1*
X803451Y1563701D1*
X805146Y1560701D1*
X806528Y1557701D1*
X808023Y1554701D1*
X809701Y1551701D1*
X803701Y1548701D1*
X842701Y1584701D2*
X851787Y1581701D1*
X860025Y1578701D1*
X866193Y1575701D1*
X870202Y1572701D1*
X873725Y1569701D1*
X878465Y1566701D1*
X884665Y1563701D1*
X891577Y1560701D1*
X898636Y1557701D1*
X905725Y1554701D1*
X913094Y1551701D1*
X920701Y1548701D1*
X896701Y1584701D2*
Y1581701D1*
Y1578701D1*
X632701D2*
X635701Y1575701D1*
X776701Y1581701D2*
X763957Y1578701D1*
X753671Y1575701D1*
X746421Y1572701D1*
X741079Y1569701D1*
X738858Y1566701D1*
X737069Y1563701D1*
X735488Y1560701D1*
X734072Y1557701D1*
X732952Y1554701D1*
X732227Y1551701D1*
X731701Y1548701D1*
X746701Y1581701D2*
X765140Y1578701D1*
X778780Y1575701D1*
X786872Y1572701D1*
X791674Y1569701D1*
X794879Y1566701D1*
X797298Y1563701D1*
X798971Y1560701D1*
X799919Y1557701D1*
X800378Y1554701D1*
X800584Y1551701D1*
X800701Y1548701D1*
X890701Y1578701D2*
X521701Y1518701D2*
Y1515701D1*
Y1512701D1*
X521713Y1509701D1*
X521827Y1506701D1*
X522291Y1503701D1*
X523316Y1500701D1*
X524701Y1497701D1*
Y1518701D2*
Y1515701D1*
Y1512701D1*
Y1509701D1*
Y1506701D1*
Y1503701D1*
X533701Y1518701D2*
Y1515701D1*
Y1512701D1*
Y1509701D1*
Y1506701D1*
Y1503701D1*
X539701Y1518701D2*
Y1515701D1*
Y1512701D1*
X539678Y1509701D1*
X539449Y1506701D1*
X538904Y1503701D1*
X536566Y1500701D1*
X533701Y1497701D1*
X548701Y1518701D2*
Y1515701D1*
Y1512701D1*
Y1509701D1*
Y1506701D1*
Y1503701D1*
Y1500701D1*
Y1497701D1*
X554701Y1518701D2*
X556107Y1515701D1*
X557701Y1512701D1*
X563701Y1518701D2*
Y1515701D1*
Y1512701D1*
X569701Y1518701D2*
Y1515701D1*
Y1512701D1*
Y1509701D1*
Y1506701D1*
Y1503701D1*
Y1500701D1*
Y1497701D1*
X575701Y1518701D2*
Y1515701D1*
Y1512701D1*
X581701D1*
Y1509701D1*
Y1506701D1*
Y1503701D1*
Y1500701D1*
X575701D1*
Y1497701D1*
X587701Y1518701D2*
X586675Y1515701D1*
X585794Y1512701D1*
X585331Y1509701D1*
X585422Y1506701D1*
X586033Y1503701D1*
X586870Y1500701D1*
X587701Y1497701D1*
X596701Y1518701D2*
X596827Y1515701D1*
X597317Y1512701D1*
X598430Y1509701D1*
X600033Y1506701D1*
X601799Y1503701D1*
X603687Y1500701D1*
X605701Y1497701D1*
X599701Y1518701D2*
X600754Y1515701D1*
X601774Y1512701D1*
X602701Y1509701D1*
X614701Y1518701D2*
X613648Y1515701D1*
X612628Y1512701D1*
X611701Y1509701D1*
X617701Y1518701D2*
X616304Y1515701D1*
X615337Y1512701D1*
X614507Y1509701D1*
X613481Y1506701D1*
X612162Y1503701D1*
X610537Y1500701D1*
X608701Y1497701D1*
X626701Y1518701D2*
Y1515701D1*
Y1512701D1*
Y1509701D1*
Y1506701D1*
Y1503701D1*
Y1500701D1*
Y1497701D1*
X641701Y1518701D2*
Y1515701D1*
X626701Y1512701D1*
X633076Y1509701D1*
X638701Y1506701D1*
X626701Y1503701D1*
X641701Y1500701D1*
Y1497701D1*
X647701Y1518701D2*
Y1515701D1*
Y1512701D1*
Y1509701D1*
Y1506701D1*
Y1503701D1*
Y1500701D1*
Y1497701D1*
X665701Y1518701D2*
Y1515701D1*
Y1512701D1*
X665713Y1509701D1*
X665827Y1506701D1*
X666291Y1503701D1*
X667316Y1500701D1*
X668701Y1497701D1*
X680701Y1518701D2*
X679363Y1515701D1*
X678478Y1512701D1*
X678577Y1509701D1*
X683711Y1506701D1*
X689701Y1503701D1*
X674701Y1500701D1*
X677701Y1497701D1*
X692701Y1518701D2*
Y1515701D1*
Y1512701D1*
X701701Y1518701D2*
X702727Y1515701D1*
X703608Y1512701D1*
X704071Y1509701D1*
X703980Y1506701D1*
X703369Y1503701D1*
X702532Y1500701D1*
X701701Y1497701D1*
X713701Y1518701D2*
Y1515701D1*
Y1512701D1*
X707701D1*
Y1509701D1*
Y1506701D1*
Y1503701D1*
Y1500701D1*
X713701D1*
Y1497701D1*
X719701Y1518701D2*
Y1515701D1*
Y1512701D1*
Y1509701D1*
Y1506701D1*
Y1503701D1*
Y1500701D1*
Y1497701D1*
X734701Y1518701D2*
X737563Y1515701D1*
X739956Y1512701D1*
X741773Y1509701D1*
X741630Y1506701D1*
X740800Y1503701D1*
X739404Y1500701D1*
X737701Y1497701D1*
X758701Y1518701D2*
X756841Y1515701D1*
X755130Y1512701D1*
X753535Y1509701D1*
X752097Y1506701D1*
X750962Y1503701D1*
X750231Y1500701D1*
X749701Y1497701D1*
X761701Y1518701D2*
X763549Y1515701D1*
X765167Y1512701D1*
X766485Y1509701D1*
X767588Y1506701D1*
X768690Y1503701D1*
X769746Y1500701D1*
X770701Y1497701D1*
X779701Y1518701D2*
Y1515701D1*
Y1512701D1*
Y1509701D1*
Y1506701D1*
Y1503701D1*
Y1500701D1*
Y1497701D1*
X791701Y1518701D2*
X795496Y1515701D1*
X798550Y1512701D1*
X799807Y1509701D1*
X799936Y1506701D1*
X798635Y1503701D1*
X795405Y1500701D1*
X791701Y1497701D1*
X809701Y1518701D2*
Y1515701D1*
Y1512701D1*
Y1509701D1*
Y1506701D1*
Y1503701D1*
Y1500701D1*
Y1497701D1*
X821701Y1518701D2*
X816076Y1515701D1*
X809701Y1512701D1*
X816076Y1509701D1*
X821701Y1506701D1*
X809701Y1503701D1*
X816076Y1500701D1*
X821701Y1497701D1*
X842701Y1518701D2*
Y1515701D1*
Y1512701D1*
Y1509701D1*
Y1506701D1*
Y1503701D1*
Y1500701D1*
Y1497701D1*
X860701Y1518701D2*
X855076Y1515701D1*
X848701Y1512701D1*
X854284Y1509701D1*
X858495Y1506701D1*
X860701Y1503701D1*
X848701D1*
Y1500701D1*
Y1497701D1*
X866701Y1518701D2*
Y1515701D1*
Y1512701D1*
Y1509701D1*
Y1506701D1*
Y1503701D1*
Y1500701D1*
Y1497701D1*
X881701Y1518701D2*
X877482Y1515701D1*
X872701Y1512701D1*
X877482Y1509701D1*
X881701Y1506701D1*
X872701Y1503701D1*
X877482Y1500701D1*
X881701Y1497701D1*
X890701Y1518701D2*
Y1515701D1*
Y1512701D1*
Y1509701D1*
Y1506701D1*
Y1503701D1*
Y1500701D1*
Y1497701D1*
X905701Y1518701D2*
X908111Y1515701D1*
X909866Y1512701D1*
X910847Y1509701D1*
X911376Y1506701D1*
X910824Y1503701D1*
X908533Y1500701D1*
X905701Y1497701D1*
X920701Y1518701D2*
X922086Y1515701D1*
X922947Y1512701D1*
X923372Y1509701D1*
X923451Y1506701D1*
X923066Y1503701D1*
X922070Y1500701D1*
X920701Y1497701D1*
X935701Y1518701D2*
X930076Y1515701D1*
X923701Y1512701D1*
X930076Y1509701D1*
X935701Y1506701D1*
X923701Y1503701D1*
X930076Y1500701D1*
X935701Y1497701D1*
X944701Y1518701D2*
Y1515701D1*
Y1512701D1*
Y1509701D1*
Y1506701D1*
Y1503701D1*
Y1500701D1*
Y1497701D1*
X959701Y1518701D2*
X961086Y1515701D1*
X961947Y1512701D1*
X962395Y1509701D1*
X962703Y1506701D1*
X963245Y1503701D1*
X964301Y1500701D1*
X965701Y1497701D1*
X980701Y1518701D2*
X978291Y1515701D1*
X976524Y1512701D1*
X975414Y1509701D1*
X974542Y1506701D1*
X973588Y1503701D1*
X972608Y1500701D1*
X971701Y1497701D1*
X983701Y1518701D2*
X984853Y1515701D1*
X986235Y1512701D1*
X987906Y1509701D1*
X989688Y1506701D1*
X991123Y1503701D1*
X992041Y1500701D1*
X992701Y1497701D1*
X1001701Y1518701D2*
Y1515701D1*
Y1512701D1*
Y1509701D1*
Y1506701D1*
Y1503701D1*
Y1500701D1*
Y1497701D1*
X1004701Y1518701D2*
Y1515701D1*
Y1512701D1*
Y1509701D1*
Y1506701D1*
Y1503701D1*
Y1500701D1*
X1013701D1*
Y1497701D1*
X653701Y1515701D2*
Y1512701D1*
Y1509701D1*
X662701Y1515701D2*
Y1512701D1*
Y1509701D1*
X677701Y1515701D2*
X682528Y1512701D1*
X687383Y1509701D1*
X691292Y1506701D1*
X694263Y1503701D1*
X692243Y1500701D1*
X689701Y1497701D1*
X725701Y1515701D2*
Y1512701D1*
Y1509701D1*
Y1506701D1*
Y1503701D1*
X731701Y1515701D2*
X734112Y1512701D1*
X735877Y1509701D1*
X736951Y1506701D1*
X737701Y1503701D1*
X782701Y1515701D2*
Y1512701D1*
Y1509701D1*
Y1506701D1*
Y1503701D1*
X788701Y1515701D2*
X791112Y1512701D1*
X792877Y1509701D1*
X793951Y1506701D1*
X794701Y1503701D1*
X893701Y1515701D2*
Y1512701D1*
Y1509701D1*
Y1506701D1*
Y1503701D1*
X902701Y1515701D2*
X905112Y1512701D1*
X906877Y1509701D1*
X907951Y1506701D1*
X908701Y1503701D1*
X950701Y1515701D2*
Y1512701D1*
Y1509701D1*
X959701Y1515701D2*
Y1512701D1*
Y1509701D1*
X551701D2*
Y1506701D1*
Y1503701D1*
Y1500701D1*
Y1497701D1*
X554701Y1509701D2*
X557235Y1506701D1*
X559466Y1503701D1*
X561566Y1500701D1*
X563701Y1497701D1*
X758701Y1509701D2*
X755701Y1506701D1*
X758701Y1509701D2*
X761701Y1506701D1*
X980701Y1509701D2*
X977701Y1506701D1*
X980701Y1509701D2*
X983701Y1506701D1*
X653701D2*
Y1503701D1*
Y1500701D1*
Y1497701D1*
X659701Y1506701D2*
X660474Y1503701D1*
X662827Y1500701D1*
X665701Y1497701D1*
X950701Y1503701D2*
Y1500701D1*
Y1497701D1*
Y1503701D2*
X956701Y1500701D1*
X962701Y1497701D1*
X755701Y1500701D2*
X752701Y1497701D1*
X764701Y1500701D2*
X767701Y1497701D1*
X977701Y1500701D2*
X974701Y1497701D1*
X986701Y1500701D2*
X989701Y1497701D1*
X560701Y1476701D2*
Y1473701D1*
Y1470701D1*
Y1467701D1*
Y1464701D1*
Y1461701D1*
Y1458701D1*
Y1455701D1*
X590701Y1476701D2*
Y1473701D1*
Y1470701D1*
Y1467701D1*
Y1464701D1*
Y1461701D1*
Y1458701D1*
Y1455701D1*
X605701Y1476701D2*
X632701D2*
X629619Y1473701D1*
X628337Y1470701D1*
X629022Y1467701D1*
X631301Y1464701D1*
X633595Y1461701D1*
X635701Y1458701D1*
X638701Y1476701D2*
X641701Y1473701D1*
X626701Y1470701D1*
X634280Y1467701D1*
X639606Y1464701D1*
X643441Y1461701D1*
X642349Y1458701D1*
X639277Y1455701D1*
X635701Y1452701D1*
X656701Y1476701D2*
X656226Y1473701D1*
X655376Y1470701D1*
X654206Y1467701D1*
X652847Y1464701D1*
X651327Y1461701D1*
X649600Y1458701D1*
X647701Y1455701D1*
X662701Y1476701D2*
X677701D2*
Y1473701D1*
Y1470701D1*
Y1467701D1*
Y1464701D1*
Y1461701D1*
Y1458701D1*
Y1455701D1*
X683701Y1476701D2*
X698701D2*
Y1473701D1*
Y1470701D1*
Y1467701D1*
X707701Y1476701D2*
Y1473701D1*
Y1470701D1*
X713701D1*
Y1467701D1*
Y1464701D1*
Y1461701D1*
Y1458701D1*
Y1455701D1*
X725701Y1476701D2*
X743701D2*
X740456Y1473701D1*
X737884Y1470701D1*
X735852Y1467701D1*
X734221Y1464701D1*
X733008Y1461701D1*
X732246Y1458701D1*
X731701Y1455701D1*
X779701Y1476701D2*
X775906Y1473701D1*
X772852Y1470701D1*
X771595Y1467701D1*
X771419Y1464701D1*
X772631Y1461701D1*
X774572Y1458701D1*
X777034Y1455701D1*
X779701Y1452701D1*
X788701Y1476701D2*
Y1473701D1*
Y1470701D1*
X776701D1*
X776824Y1467701D1*
X777290Y1464701D1*
X778316Y1461701D1*
X779701Y1458701D1*
X809701Y1476701D2*
X805894Y1473701D1*
X803172Y1470701D1*
X801349Y1467701D1*
X799950Y1464701D1*
X798884Y1461701D1*
X798198Y1458701D1*
X797701Y1455701D1*
X857701Y1476701D2*
X855853Y1473701D1*
X854235Y1470701D1*
X852917Y1467701D1*
X851814Y1464701D1*
X850712Y1461701D1*
X849656Y1458701D1*
X848701Y1455701D1*
X860701Y1476701D2*
X862561Y1473701D1*
X864272Y1470701D1*
X865879Y1467701D1*
X867431Y1464701D1*
X869029Y1461701D1*
X870786Y1458701D1*
X872701Y1455701D1*
X878701Y1476701D2*
Y1473701D1*
Y1470701D1*
Y1467701D1*
Y1464701D1*
Y1461701D1*
Y1458701D1*
Y1455701D1*
X923701Y1476701D2*
Y1473701D1*
Y1470701D1*
Y1467701D1*
Y1464701D1*
Y1461701D1*
Y1458701D1*
Y1455701D1*
X941701Y1476701D2*
Y1473701D1*
Y1470701D1*
X944701Y1476701D2*
Y1473701D1*
Y1470701D1*
Y1467701D1*
Y1464701D1*
Y1461701D1*
Y1458701D1*
Y1455701D1*
X962701Y1476701D2*
X960841Y1473701D1*
X959130Y1470701D1*
X957535Y1467701D1*
X956097Y1464701D1*
X954962Y1461701D1*
X954231Y1458701D1*
X953701Y1455701D1*
X965701Y1476701D2*
X967561Y1473701D1*
X969272Y1470701D1*
X970867Y1467701D1*
X972305Y1464701D1*
X973440Y1461701D1*
X974171Y1458701D1*
X974701Y1455701D1*
X578701Y1473701D2*
X580074Y1470701D1*
X580819Y1467701D1*
X581071Y1464701D1*
X579821Y1461701D1*
X577924Y1458701D1*
X575701Y1455701D1*
X605701Y1473701D2*
X593701Y1470701D1*
X605701Y1467701D1*
X599513Y1464701D1*
X593701Y1461701D1*
X600076Y1458701D1*
X605701Y1455701D1*
X665701Y1473701D2*
X665815Y1470701D1*
X666211Y1467701D1*
X667045Y1464701D1*
X668286Y1461701D1*
X669880Y1458701D1*
X671701Y1455701D1*
X686701Y1473701D2*
X688107Y1470701D1*
X689701Y1467701D1*
X725701Y1473701D2*
X721547Y1470701D1*
X718470Y1467701D1*
X717531Y1464701D1*
X717042Y1461701D1*
X716823Y1458701D1*
X716701Y1455701D1*
X746701Y1473701D2*
X747738Y1470701D1*
X748737Y1467701D1*
X749690Y1464701D1*
X750728Y1461701D1*
X751759Y1458701D1*
X752701Y1455701D1*
X809701Y1473701D2*
X811664Y1470701D1*
X813654Y1467701D1*
X815586Y1464701D1*
X817084Y1461701D1*
X818028Y1458701D1*
X818701Y1455701D1*
X821701Y1473701D2*
X825855Y1470701D1*
X828932Y1467701D1*
X829871Y1464701D1*
X830360Y1461701D1*
X830579Y1458701D1*
X830701Y1455701D1*
X842701Y1473701D2*
X838547Y1470701D1*
X835470Y1467701D1*
X834531Y1464701D1*
X834042Y1461701D1*
X833823Y1458701D1*
X833701Y1455701D1*
X896701Y1473701D2*
X895928Y1470701D1*
X893575Y1467701D1*
X890701Y1464701D1*
X893701Y1461701D1*
X896701Y1458701D1*
X902701Y1473701D2*
X905471Y1470701D1*
X907522Y1467701D1*
X908150Y1464701D1*
X908490Y1461701D1*
X908701Y1458701D1*
X917701Y1473701D2*
X914931Y1470701D1*
X912880Y1467701D1*
X912235Y1464701D1*
X912651Y1461701D1*
X914899Y1458701D1*
X917701Y1455701D1*
X932701Y1473701D2*
Y1470701D1*
X563701Y1473701D2*
Y1470701D1*
Y1467701D1*
Y1464701D1*
Y1461701D1*
Y1458701D1*
X575701Y1473701D2*
X575678Y1470701D1*
X575449Y1467701D1*
X574904Y1464701D1*
X572566Y1461701D1*
X569701Y1458701D1*
X881701Y1473701D2*
Y1470701D1*
Y1467701D1*
X893701Y1473701D2*
X890701Y1470701D1*
X887701Y1467701D1*
X656701D2*
Y1464701D1*
X659701Y1470701D2*
X662701Y1467701D1*
X665701Y1464701D1*
X680701Y1470701D2*
Y1467701D1*
Y1464701D1*
Y1461701D1*
Y1458701D1*
Y1455701D1*
X686701Y1467701D2*
X688316Y1464701D1*
X690451Y1461701D1*
X692993Y1458701D1*
X695701Y1455701D1*
X737701Y1467701D2*
Y1464701D1*
X740701Y1470701D2*
X743701Y1467701D1*
X746701Y1464701D1*
X803701Y1470701D2*
Y1467701D1*
Y1464701D1*
X809701Y1470701D2*
Y1467701D1*
Y1464701D1*
X698701D2*
Y1461701D1*
Y1458701D1*
Y1455701D1*
X857701Y1467701D2*
X854701Y1464701D1*
X860701Y1467701D2*
X863701Y1464701D1*
X926701Y1467701D2*
Y1464701D1*
Y1461701D1*
Y1458701D1*
Y1455701D1*
X929701Y1467701D2*
X932701Y1464701D1*
X935701Y1461701D1*
X938701Y1458701D1*
X941701Y1455701D1*
X962701Y1467701D2*
X959701Y1464701D1*
X965701Y1467701D2*
X968701Y1464701D1*
X881701D2*
Y1461701D1*
Y1458701D1*
Y1455701D1*
X884701Y1464701D2*
X887149Y1461701D1*
X889097Y1458701D1*
X890701Y1455701D1*
X626701Y1458701D2*
X629513Y1455701D1*
X632701Y1452701D1*
X653701Y1461701D2*
Y1458701D1*
Y1455701D1*
X665701Y1461701D2*
Y1458701D1*
Y1455701D1*
X740701Y1461701D2*
X737701Y1458701D1*
X734701Y1455701D1*
X749701Y1458701D2*
Y1455701D1*
X788701Y1458701D2*
X800701Y1461701D2*
Y1458701D1*
Y1455701D1*
X809701Y1461701D2*
X812701Y1458701D1*
X815701Y1455701D1*
X851701Y1458701D2*
Y1455701D1*
X866701Y1461701D2*
Y1458701D1*
Y1455701D1*
X956701Y1461701D2*
Y1458701D1*
Y1455701D1*
X971701Y1461701D2*
Y1458701D1*
Y1455701D1*
X788701D2*
X785701Y1452701D1*
X573840Y620895D2*
D49*
X517930D1*
Y530463D1*
X573840D1*
X517930Y577817D2*
X552351D1*
X601631Y620895D2*
Y530463D1*
X629421Y564884D2*
X681054D1*
Y573540D1*
X676776Y582195D1*
X672499Y586473D1*
X663843Y590751D1*
X650910D1*
X642355Y586473D1*
X633699Y577817D1*
X629421Y564884D1*
Y556329D1*
X633699Y543396D1*
X642355Y534840D1*
X650910Y530463D1*
X663843D1*
X672499Y534840D1*
X681054Y543396D1*
X721778Y620895D2*
Y547673D1*
X726056Y534840D1*
X734711Y530463D1*
X743267D1*
X708845Y590751D2*
X738989D1*
X771057D2*
Y530463D1*
Y564884D2*
X775435Y577817D1*
X783990Y586473D1*
X792646Y590751D1*
X805579D1*
X854858D2*
X846302Y586473D1*
X837647Y577817D1*
X833369Y564884D1*
Y556329D1*
X837647Y543396D1*
X846302Y534840D1*
X854858Y530463D1*
X867791D1*
X876446Y534840D1*
X885002Y543396D1*
X889380Y556329D1*
Y564884D1*
X885002Y577817D1*
X876446Y586473D1*
X867791Y590751D1*
X854858D1*
X917170D2*
Y530463D1*
Y573540D2*
X930103Y586473D1*
X938758Y590751D1*
X951592D1*
X960247Y586473D1*
X964525Y573540D1*
Y530463D1*
Y573540D2*
X977458Y586473D1*
X986113Y590751D1*
X998947D1*
X1007602Y586473D1*
X1011980Y573540D1*
Y530463D1*
X1039770Y620895D2*
X1044048Y616617D1*
X1048425Y620895D1*
X1044048Y625272D1*
X1039770Y620895D1*
X1044048Y590751D2*
Y530463D1*
X1097705Y590751D2*
X1089149Y586473D1*
X1080494Y577817D1*
X1076216Y564884D1*
Y556329D1*
X1080494Y543396D1*
X1089149Y534840D1*
X1097705Y530463D1*
X1110638D1*
X1119293Y534840D1*
X1127849Y543396D1*
X1132226Y556329D1*
Y564884D1*
X1127849Y577817D1*
X1119293Y586473D1*
X1110638Y590751D1*
X1097705D1*
X1211650Y586473D2*
Y517529D1*
X1207372Y504696D1*
X1203094Y500319D1*
X1194439Y496041D1*
X1181506D1*
X1172950Y500319D1*
X1211650Y573540D2*
X1203094Y582095D1*
X1194439Y586473D1*
X1181506D1*
X1172950Y582095D1*
X1164295Y573540D1*
X1160017Y560607D1*
Y551951D1*
X1164295Y539118D1*
X1172950Y530463D1*
X1181506Y526185D1*
X1194439D1*
X1203094Y530463D1*
X1211650Y539118D1*
X1239440Y590751D2*
Y530463D1*
Y564884D2*
X1243818Y577817D1*
X1252373Y586473D1*
X1261029Y590751D1*
X1273962D1*
X1353385D2*
Y530463D1*
Y577817D2*
X1344829Y586473D1*
X1336174Y590751D1*
X1323341D1*
X1314685Y586473D1*
X1306130Y577817D1*
X1301752Y564884D1*
Y556329D1*
X1306130Y543396D1*
X1314685Y534840D1*
X1323341Y530463D1*
X1336174D1*
X1344829Y534840D1*
X1353385Y543396D1*
X1381176Y590751D2*
Y530463D1*
Y573540D2*
X1394109Y586473D1*
X1402764Y590751D1*
X1415598D1*
X1424253Y586473D1*
X1428531Y573540D1*
Y530463D1*
Y573540D2*
X1441464Y586473D1*
X1450119Y590751D1*
X1462953D1*
X1471608Y586473D1*
X1475985Y573540D1*
Y530463D1*
X1555409Y590751D2*
Y530463D1*
Y577817D2*
X1546853Y586473D1*
X1538198Y590751D1*
X1525364D1*
X1516709Y586473D1*
X1508153Y577817D1*
X1503776Y564884D1*
Y556329D1*
X1508153Y543396D1*
X1516709Y534840D1*
X1525364Y530463D1*
X1538198D1*
X1546853Y534840D1*
X1555409Y543396D1*
X518701Y767503D2*
D50*
Y695763D1*
X523455Y681393D1*
X533072Y671886D1*
X547442Y667023D1*
X556948D1*
X571318Y671886D1*
X580935Y681393D1*
X585688Y695763D1*
Y767503D1*
X678800D2*
X616567D1*
Y667023D1*
Y719639D2*
X654813D1*
X776665Y753133D2*
X767159Y762750D1*
X752789Y767503D1*
X733666D1*
X719296Y762750D1*
X709679Y753133D1*
Y743626D1*
X714542Y734009D1*
X719296Y729256D1*
X728802Y724503D1*
X757542Y714886D1*
X767159Y710133D1*
X771912Y705269D1*
X776665Y695763D1*
Y681393D1*
X767159Y671886D1*
X752789Y667023D1*
X733666D1*
X719296Y671886D1*
X709679Y681393D1*
X879284Y743626D2*
X874530Y753133D1*
X864914Y762750D1*
X855407Y767503D1*
X836284D1*
X826667Y762750D1*
X817161Y753133D1*
X812297Y743626D1*
X807544Y729256D1*
Y705269D1*
X812297Y691010D1*
X817161Y681393D1*
X826667Y671886D1*
X836284Y667023D1*
X855407D1*
X864914Y671886D1*
X874530Y681393D1*
X879284Y691010D1*
X910162Y717208D2*
X965432D1*
X1001174Y743516D2*
Y748269D1*
X1005927Y757886D1*
X1010680Y762639D1*
X1020297Y767392D1*
X1039420D1*
X1048927Y762639D1*
X1053680Y757886D1*
X1058544Y748269D1*
Y738763D1*
X1053680Y729146D1*
X1044174Y714886D1*
X996310Y667023D1*
X1063297D1*
X1122915Y767392D2*
X1108545Y762639D1*
X1098929Y748269D1*
X1094175Y724393D1*
Y710022D1*
X1098929Y686146D1*
X1108545Y671776D1*
X1122915Y667023D1*
X1132422D1*
X1146792Y671776D1*
X1156298Y686146D1*
X1161162Y710022D1*
Y724393D1*
X1156298Y748269D1*
X1146792Y762639D1*
X1132422Y767392D1*
X1122915D1*
X1156298Y748269D2*
X1098929Y686146D1*
X1192040Y748269D2*
X1201657Y753133D1*
X1216027Y767392D1*
Y667023D1*
X1266029D2*
X1313893Y767392D1*
X1246906D1*
M02*
