G04 DipTrace 3.1.0.1*
G04 TopSilk.gbr*
%MOIN*%
G04 #@! TF.FileFunction,Legend,Top*
G04 #@! TF.Part,Single*
%ADD10C,0.009843*%
%ADD48C,0.00772*%
%FSLAX26Y26*%
G04*
G70*
G90*
G75*
G01*
G04 TopSilk*
%LPD*%
X1523621Y1133701D2*
D10*
X1963781D1*
X1523621Y1253701D2*
X1963781D1*
Y1133701D2*
G03X1963781Y1253701I-80J60000D01*
G01*
X1523621D2*
G03X1523621Y1133701I80J-60000D01*
G01*
X1648621Y808701D2*
X2088781D1*
X1648621Y928701D2*
X2088781D1*
Y808701D2*
G03X2088781Y928701I-80J60000D01*
G01*
X1648621D2*
G03X1648621Y808701I80J-60000D01*
G01*
X2813781Y653701D2*
X2373621D1*
X2813781Y533701D2*
X2373621D1*
Y653701D2*
G03X2373621Y533701I80J-60000D01*
G01*
X2813781D2*
G03X2813781Y653701I-80J60000D01*
G01*
Y1553701D2*
X2373621D1*
X2813781Y1433701D2*
X2373621D1*
Y1553701D2*
G03X2373621Y1433701I80J-60000D01*
G01*
X2813781D2*
G03X2813781Y1553701I-80J60000D01*
G01*
X2883701Y1513781D2*
Y1073621D1*
X3003701Y1513781D2*
Y1073621D1*
X2883701D2*
G03X3003701Y1073621I60000J80D01*
G01*
Y1513781D2*
G03X2883701Y1513781I-60000J-80D01*
G01*
X3808701Y1413781D2*
Y973621D1*
X3928701Y1413781D2*
Y973621D1*
X3808701D2*
G03X3928701Y973621I60000J80D01*
G01*
Y1413781D2*
G03X3808701Y1413781I-60000J-80D01*
G01*
X2713641Y1378701D2*
X2573761D1*
X2713641Y1258701D2*
X2573761D1*
Y1378701D2*
G03X2573761Y1258701I-60J-60000D01*
G01*
X2713641D2*
G03X2713641Y1378701I60J60000D01*
G01*
X3713641D2*
X3573761D1*
X3713641Y1258701D2*
X3573761D1*
Y1378701D2*
G03X3573761Y1258701I-60J-60000D01*
G01*
X3713641D2*
G03X3713641Y1378701I60J60000D01*
G01*
X2513641Y828701D2*
X2373761D1*
X2513641Y708701D2*
X2373761D1*
Y828701D2*
G03X2373761Y708701I-60J-60000D01*
G01*
X2513641D2*
G03X2513641Y828701I60J60000D01*
G01*
X3513641D2*
X3373761D1*
X3513641Y708701D2*
X3373761D1*
Y828701D2*
G03X3373761Y708701I-60J-60000D01*
G01*
X3513641D2*
G03X3513641Y828701I60J60000D01*
G01*
X1688641Y1428701D2*
X1548761D1*
X1688641Y1308701D2*
X1548761D1*
Y1428701D2*
G03X1548761Y1308701I-60J-60000D01*
G01*
X1688641D2*
G03X1688641Y1428701I60J60000D01*
G01*
X2593701Y1643701D2*
Y1743701D1*
X2393701Y1643701D2*
X2593701D1*
X2393701D2*
Y1743701D1*
X2593701D1*
X3293701Y1618701D2*
Y1718701D1*
X3093701Y1618701D2*
X3293701D1*
X3093701D2*
Y1718701D1*
X3293701D1*
X543701Y943701D2*
X643701D1*
X543701Y1343701D2*
Y943701D1*
X643701Y1343701D2*
Y943701D1*
X543701Y1343701D2*
X643701D1*
X1768881Y793701D2*
X1968521D1*
Y693701D2*
Y793701D1*
X1768881Y693701D2*
X1968521D1*
X1768881D2*
Y793701D1*
X2293701Y893521D2*
Y693881D1*
X2193701D2*
X2293701D1*
X2193701Y893521D2*
Y693881D1*
Y893521D2*
X2293701D1*
X2193701Y1293521D2*
Y1093881D1*
X2093701D2*
X2193701D1*
X2093701Y1293521D2*
Y1093881D1*
Y1293521D2*
X2193701D1*
X2743701Y1093881D2*
Y1293521D1*
X2843701D2*
X2743701D1*
X2843701Y1093881D2*
Y1293521D1*
Y1093881D2*
X2743701D1*
X3168701Y1393521D2*
Y1193881D1*
X3068701D2*
X3168701D1*
X3068701Y1393521D2*
Y1193881D1*
Y1393521D2*
X3168701D1*
X3193701Y693881D2*
Y893521D1*
X3293701D2*
X3193701D1*
X3293701Y693881D2*
Y893521D1*
Y693881D2*
X3193701D1*
X3068701D2*
Y893521D1*
X3168701D2*
X3068701D1*
X3168701Y693881D2*
Y893521D1*
Y693881D2*
X3068701D1*
X3193701Y1193881D2*
Y1393521D1*
X3293701D2*
X3193701D1*
X3293701Y1193881D2*
Y1393521D1*
Y1193881D2*
X3193701D1*
X3668521Y1618701D2*
X3468881D1*
Y1718701D2*
Y1618701D1*
X3668521Y1718701D2*
X3468881D1*
X3668521D2*
Y1618701D1*
X2646068Y1240551D2*
Y846851D1*
X2441334D2*
X2646068D1*
X2441334Y1240551D2*
Y846851D1*
Y1240551D2*
X2520075D1*
X2646068D2*
X2567327D1*
X2520075D2*
G03X2567327Y1240551I23626J4D01*
G01*
X3646068D2*
Y846851D1*
X3441334D2*
X3646068D1*
X3441334Y1240551D2*
Y846851D1*
Y1240551D2*
X3520075D1*
X3646068D2*
X3567327D1*
X3520075D2*
G03X3567327Y1240551I23626J4D01*
G01*
X1821068Y1840551D2*
Y1446851D1*
X1616334D2*
X1821068D1*
X1616334Y1840551D2*
Y1446851D1*
Y1840551D2*
X1695075D1*
X1821068D2*
X1742327D1*
X1695075D2*
G03X1742327Y1840551I23626J4D01*
G01*
X793701Y1343701D2*
X1293701D1*
Y943701D1*
X793701D1*
Y1343701D1*
X1303701Y1398761D2*
Y1538641D1*
X1183701Y1398761D2*
Y1538641D1*
X1303701D2*
G03X1183701Y1538641I-60000J60D01*
G01*
Y1398761D2*
G03X1303701Y1398761I60000J-60D01*
G01*
X1747920Y1214986D2*
D48*
X1745543Y1219739D1*
X1740735Y1224548D1*
X1735981Y1226924D1*
X1726420D1*
X1721611Y1224548D1*
X1716858Y1219739D1*
X1714426Y1214986D1*
X1712050Y1207801D1*
Y1195807D1*
X1714426Y1188678D1*
X1716858Y1183869D1*
X1721611Y1179116D1*
X1726420Y1176684D1*
X1735981D1*
X1740735Y1179116D1*
X1745543Y1183869D1*
X1747920Y1188678D1*
X1763359Y1217307D2*
X1768167Y1219739D1*
X1775352Y1226869D1*
Y1176684D1*
X1862170Y889986D2*
X1859793Y894739D1*
X1854985Y899548D1*
X1850231Y901924D1*
X1840670D1*
X1835861Y899548D1*
X1831108Y894739D1*
X1828676Y889986D1*
X1826300Y882801D1*
Y870807D1*
X1828676Y863678D1*
X1831108Y858869D1*
X1835861Y854116D1*
X1840670Y851684D1*
X1850231D1*
X1854985Y854116D1*
X1859793Y858869D1*
X1862170Y863678D1*
X1880041Y889931D2*
Y892307D1*
X1882417Y897116D1*
X1884794Y899492D1*
X1889602Y901869D1*
X1899164D1*
X1903917Y899492D1*
X1906294Y897116D1*
X1908726Y892307D1*
Y887554D1*
X1906294Y882746D1*
X1901541Y875616D1*
X1877609Y851684D1*
X1911102D1*
X2587170Y614986D2*
X2584793Y619739D1*
X2579985Y624548D1*
X2575231Y626924D1*
X2565670D1*
X2560861Y624548D1*
X2556108Y619739D1*
X2553676Y614986D1*
X2551300Y607801D1*
Y595807D1*
X2553676Y588678D1*
X2556108Y583869D1*
X2560861Y579116D1*
X2565670Y576684D1*
X2575231D1*
X2579985Y579116D1*
X2584793Y583869D1*
X2587170Y588678D1*
X2607417Y626869D2*
X2633670D1*
X2619356Y607746D1*
X2626541D1*
X2631294Y605369D1*
X2633670Y602992D1*
X2636102Y595807D1*
Y591054D1*
X2633670Y583869D1*
X2628917Y579061D1*
X2621732Y576684D1*
X2614547D1*
X2607417Y579061D1*
X2605041Y581493D1*
X2602609Y586246D1*
X2560981Y1514986D2*
X2558605Y1519739D1*
X2553796Y1524548D1*
X2549043Y1526924D1*
X2539482D1*
X2534673Y1524548D1*
X2529920Y1519739D1*
X2527488Y1514986D1*
X2525111Y1507801D1*
Y1495807D1*
X2527488Y1488678D1*
X2529920Y1483869D1*
X2534673Y1479116D1*
X2539482Y1476684D1*
X2549043D1*
X2553796Y1479116D1*
X2558605Y1483869D1*
X2560981Y1488678D1*
X2600352Y1476684D2*
Y1526869D1*
X2576421Y1493431D1*
X2612291D1*
X2937170Y1309986D2*
X2934793Y1314739D1*
X2929985Y1319547D1*
X2925231Y1321924D1*
X2915670D1*
X2910861Y1319547D1*
X2906108Y1314739D1*
X2903676Y1309986D1*
X2901300Y1302801D1*
Y1290807D1*
X2903676Y1283678D1*
X2906108Y1278869D1*
X2910861Y1274116D1*
X2915670Y1271684D1*
X2925231D1*
X2929985Y1274116D1*
X2934793Y1278869D1*
X2937170Y1283678D1*
X2981294Y1321869D2*
X2957417D1*
X2955041Y1300369D1*
X2957417Y1302746D1*
X2964602Y1305177D1*
X2971732D1*
X2978917Y1302746D1*
X2983726Y1297992D1*
X2986102Y1290807D1*
Y1286054D1*
X2983726Y1278869D1*
X2978917Y1274061D1*
X2971732Y1271684D1*
X2964602D1*
X2957417Y1274061D1*
X2955041Y1276493D1*
X2952609Y1281246D1*
X3863386Y1209986D2*
X3861009Y1214739D1*
X3856201Y1219547D1*
X3851447Y1221924D1*
X3841886D1*
X3837077Y1219547D1*
X3832324Y1214739D1*
X3829892Y1209986D1*
X3827516Y1202801D1*
Y1190807D1*
X3829892Y1183678D1*
X3832324Y1178869D1*
X3837077Y1174116D1*
X3841886Y1171684D1*
X3851447D1*
X3856201Y1174116D1*
X3861009Y1178869D1*
X3863386Y1183678D1*
X3907510Y1214739D2*
X3905133Y1219492D1*
X3897948Y1221869D1*
X3893195D1*
X3886010Y1219492D1*
X3881201Y1212307D1*
X3878825Y1200369D1*
Y1188431D1*
X3881201Y1178869D1*
X3886010Y1174061D1*
X3893195Y1171684D1*
X3895572D1*
X3902701Y1174061D1*
X3907510Y1178869D1*
X3909886Y1186054D1*
Y1188431D1*
X3907510Y1195616D1*
X3902701Y1200369D1*
X3895572Y1202746D1*
X3893195D1*
X3886010Y1200369D1*
X3881201Y1195616D1*
X3878825Y1188431D1*
X2423453Y1339986D2*
X2421077Y1344739D1*
X2416268Y1349548D1*
X2411515Y1351924D1*
X2401953D1*
X2397145Y1349548D1*
X2392392Y1344739D1*
X2389960Y1339986D1*
X2387583Y1332801D1*
Y1320807D1*
X2389960Y1313678D1*
X2392392Y1308869D1*
X2397145Y1304116D1*
X2401953Y1301684D1*
X2411515D1*
X2416268Y1304116D1*
X2421077Y1308869D1*
X2423453Y1313678D1*
X2438893Y1351924D2*
Y1301684D1*
X2455639D1*
X2462824Y1304116D1*
X2467633Y1308869D1*
X2470009Y1313678D1*
X2472386Y1320807D1*
Y1332801D1*
X2470009Y1339986D1*
X2467633Y1344739D1*
X2462824Y1349548D1*
X2455639Y1351924D1*
X2438893D1*
X2487825Y1342307D2*
X2492634Y1344739D1*
X2499819Y1351869D1*
Y1301684D1*
X3387703Y1339986D2*
X3385327Y1344739D1*
X3380518Y1349548D1*
X3375765Y1351924D1*
X3366204D1*
X3361395Y1349548D1*
X3356642Y1344739D1*
X3354210Y1339986D1*
X3351833Y1332801D1*
Y1320807D1*
X3354210Y1313678D1*
X3356642Y1308869D1*
X3361395Y1304116D1*
X3366204Y1301684D1*
X3375765D1*
X3380518Y1304116D1*
X3385327Y1308869D1*
X3387703Y1313678D1*
X3403143Y1351924D2*
Y1301684D1*
X3419889D1*
X3427074Y1304116D1*
X3431883Y1308869D1*
X3434259Y1313678D1*
X3436636Y1320807D1*
Y1332801D1*
X3434259Y1339986D1*
X3431883Y1344739D1*
X3427074Y1349548D1*
X3419889Y1351924D1*
X3403143D1*
X3454507Y1339931D2*
Y1342307D1*
X3456884Y1347116D1*
X3459260Y1349492D1*
X3464069Y1351869D1*
X3473630D1*
X3478384Y1349492D1*
X3480760Y1347116D1*
X3483192Y1342307D1*
Y1337554D1*
X3480760Y1332746D1*
X3476007Y1325616D1*
X3452075Y1301684D1*
X3485569D1*
X2637703Y789986D2*
X2635327Y794739D1*
X2630518Y799548D1*
X2625765Y801924D1*
X2616204D1*
X2611395Y799548D1*
X2606642Y794739D1*
X2604210Y789986D1*
X2601833Y782801D1*
Y770807D1*
X2604210Y763678D1*
X2606642Y758869D1*
X2611395Y754116D1*
X2616204Y751684D1*
X2625765D1*
X2630518Y754116D1*
X2635327Y758869D1*
X2637703Y763678D1*
X2653143Y801924D2*
Y751684D1*
X2669889D1*
X2677074Y754116D1*
X2681883Y758869D1*
X2684259Y763678D1*
X2686636Y770807D1*
Y782801D1*
X2684259Y789986D1*
X2681883Y794739D1*
X2677074Y799548D1*
X2669889Y801924D1*
X2653143D1*
X2706884Y801869D2*
X2733137D1*
X2718822Y782746D1*
X2726007D1*
X2730760Y780369D1*
X2733137Y777992D1*
X2735569Y770807D1*
Y766054D1*
X2733137Y758869D1*
X2728384Y754061D1*
X2721198Y751684D1*
X2714013D1*
X2706884Y754061D1*
X2704507Y756493D1*
X2702075Y761246D1*
X3636515Y789986D2*
X3634138Y794739D1*
X3629330Y799548D1*
X3624577Y801924D1*
X3615015D1*
X3610207Y799548D1*
X3605454Y794739D1*
X3603022Y789986D1*
X3600645Y782801D1*
Y770807D1*
X3603022Y763678D1*
X3605454Y758869D1*
X3610207Y754116D1*
X3615015Y751684D1*
X3624577D1*
X3629330Y754116D1*
X3634138Y758869D1*
X3636515Y763678D1*
X3651954Y801924D2*
Y751684D1*
X3668701D1*
X3675886Y754116D1*
X3680694Y758869D1*
X3683071Y763678D1*
X3685448Y770807D1*
Y782801D1*
X3683071Y789986D1*
X3680694Y794739D1*
X3675886Y799548D1*
X3668701Y801924D1*
X3651954D1*
X3724819Y751684D2*
Y801869D1*
X3700887Y768431D1*
X3736757D1*
X1812703Y1389986D2*
X1810327Y1394739D1*
X1805518Y1399548D1*
X1800765Y1401924D1*
X1791204D1*
X1786395Y1399548D1*
X1781642Y1394739D1*
X1779210Y1389986D1*
X1776833Y1382801D1*
Y1370807D1*
X1779210Y1363678D1*
X1781642Y1358869D1*
X1786395Y1354116D1*
X1791204Y1351684D1*
X1800765D1*
X1805518Y1354116D1*
X1810327Y1358869D1*
X1812703Y1363678D1*
X1828143Y1401924D2*
Y1351684D1*
X1844889D1*
X1852074Y1354116D1*
X1856883Y1358869D1*
X1859259Y1363678D1*
X1861636Y1370807D1*
Y1382801D1*
X1859259Y1389986D1*
X1856883Y1394739D1*
X1852074Y1399548D1*
X1844889Y1401924D1*
X1828143D1*
X1905760Y1401869D2*
X1881884D1*
X1879507Y1380369D1*
X1881884Y1382746D1*
X1889069Y1385177D1*
X1896198D1*
X1903384Y1382746D1*
X1908192Y1377992D1*
X1910569Y1370807D1*
Y1366054D1*
X1908192Y1358869D1*
X1903384Y1354061D1*
X1896198Y1351684D1*
X1889069D1*
X1881884Y1354061D1*
X1879507Y1356493D1*
X1877075Y1361246D1*
X2387462Y1790616D2*
X2409018D1*
X2416147Y1792992D1*
X2418579Y1795424D1*
X2420956Y1800177D1*
Y1807362D1*
X2418579Y1812116D1*
X2416147Y1814547D1*
X2409018Y1816924D1*
X2387462D1*
Y1766684D1*
X2448333Y1800177D2*
X2443580Y1797801D1*
X2438772Y1792992D1*
X2436395Y1785807D1*
Y1781054D1*
X2438772Y1773869D1*
X2443580Y1769116D1*
X2448333Y1766684D1*
X2455518D1*
X2460327Y1769116D1*
X2465080Y1773869D1*
X2467512Y1781054D1*
Y1785807D1*
X2465080Y1792992D1*
X2460327Y1797801D1*
X2455518Y1800177D1*
X2448333D1*
X2482951D2*
X2492513Y1766684D1*
X2502074Y1800177D1*
X2511636Y1766684D1*
X2521198Y1800177D1*
X2536637Y1785807D2*
X2565322D1*
Y1790616D1*
X2562945Y1795424D1*
X2560569Y1797801D1*
X2555760Y1800177D1*
X2548575D1*
X2543822Y1797801D1*
X2539013Y1792992D1*
X2536637Y1785807D1*
Y1781054D1*
X2539013Y1773869D1*
X2543822Y1769116D1*
X2548575Y1766684D1*
X2555760D1*
X2560569Y1769116D1*
X2565322Y1773869D1*
X2580761Y1800177D2*
Y1766684D1*
Y1785807D2*
X2583193Y1792992D1*
X2587946Y1797801D1*
X2592754Y1800177D1*
X2599940D1*
X3140015Y1791924D2*
X3135207Y1789547D1*
X3130454Y1784739D1*
X3128022Y1779986D1*
X3125645Y1772801D1*
Y1760807D1*
X3128022Y1753678D1*
X3130454Y1748869D1*
X3135207Y1744116D1*
X3140015Y1741684D1*
X3149577D1*
X3154330Y1744116D1*
X3159138Y1748869D1*
X3161515Y1753678D1*
X3163892Y1760807D1*
Y1772801D1*
X3161515Y1779986D1*
X3159138Y1784739D1*
X3154330Y1789547D1*
X3149577Y1791924D1*
X3140015D1*
X3179331D2*
Y1756054D1*
X3181708Y1748869D1*
X3186516Y1744116D1*
X3193701Y1741684D1*
X3198454D1*
X3205639Y1744116D1*
X3210448Y1748869D1*
X3212824Y1756054D1*
Y1791924D1*
X3245010D2*
Y1741684D1*
X3228264Y1791924D2*
X3261757D1*
X569235Y1416924D2*
Y1366684D1*
X618167Y1416924D2*
Y1366684D1*
X584674Y1416924D1*
Y1366684D1*
X1838238Y742992D2*
X1859738D1*
X1866923Y745424D1*
X1869355Y747801D1*
X1871731Y752554D1*
Y757362D1*
X1869355Y762116D1*
X1866923Y764547D1*
X1859738Y766924D1*
X1838238D1*
Y716684D1*
X1854985Y742992D2*
X1871731Y716684D1*
X1887171Y757307D2*
X1891979Y759739D1*
X1899164Y766869D1*
Y716684D1*
X2244410Y752488D2*
Y773988D1*
X2241978Y781173D1*
X2239601Y783605D1*
X2234848Y785981D1*
X2230040D1*
X2225286Y783605D1*
X2222855Y781173D1*
X2220478Y773988D1*
Y752488D1*
X2270718D1*
X2244410Y769235D2*
X2270718Y785981D1*
X2232471Y803853D2*
X2230095D1*
X2225286Y806229D1*
X2222910Y808606D1*
X2220533Y813414D1*
Y822976D1*
X2222910Y827729D1*
X2225286Y830106D1*
X2230095Y832537D1*
X2234848D1*
X2239657Y830106D1*
X2246786Y825352D1*
X2270718Y801421D1*
Y834914D1*
X2144410Y1151300D2*
Y1172800D1*
X2141978Y1179985D1*
X2139601Y1182417D1*
X2134848Y1184793D1*
X2130040D1*
X2125286Y1182417D1*
X2122855Y1179985D1*
X2120478Y1172800D1*
Y1151300D1*
X2170718D1*
X2144410Y1168047D2*
X2170718Y1184793D1*
Y1224164D2*
X2120533D1*
X2153971Y1200232D1*
Y1236102D1*
X2794410Y1152516D2*
Y1174016D1*
X2791978Y1181201D1*
X2789601Y1183633D1*
X2784848Y1186009D1*
X2780040D1*
X2775286Y1183633D1*
X2772855Y1181201D1*
X2770478Y1174016D1*
Y1152516D1*
X2820718D1*
X2794410Y1169262D2*
X2820718Y1186009D1*
X2770533Y1213387D2*
X2772910Y1206257D1*
X2777663Y1203825D1*
X2782471D1*
X2787225Y1206257D1*
X2789657Y1211010D1*
X2792033Y1220572D1*
X2794410Y1227757D1*
X2799218Y1232510D1*
X2803971Y1234886D1*
X2811156D1*
X2815910Y1232510D1*
X2818341Y1230133D1*
X2820718Y1222948D1*
Y1213386D1*
X2818341Y1206257D1*
X2815910Y1203825D1*
X2811156Y1201448D1*
X2803971D1*
X2799218Y1203825D1*
X2794410Y1208633D1*
X2792033Y1215763D1*
X2789657Y1225325D1*
X2787225Y1230133D1*
X2782471Y1232510D1*
X2777663D1*
X2772910Y1230133D1*
X2770533Y1222948D1*
Y1213387D1*
X3119410Y1253676D2*
Y1275176D1*
X3116978Y1282361D1*
X3114601Y1284793D1*
X3109848Y1287170D1*
X3105040D1*
X3100286Y1284793D1*
X3097855Y1282361D1*
X3095478Y1275176D1*
Y1253676D1*
X3145718D1*
X3119410Y1270423D2*
X3145718Y1287170D1*
X3112225Y1333726D2*
X3119410Y1331294D1*
X3124218Y1326541D1*
X3126595Y1319356D1*
Y1316979D1*
X3124218Y1309794D1*
X3119410Y1305041D1*
X3112225Y1302609D1*
X3109848D1*
X3102663Y1305041D1*
X3097910Y1309794D1*
X3095533Y1316979D1*
Y1319356D1*
X3097910Y1326541D1*
X3102663Y1331294D1*
X3112225Y1333726D1*
X3124218D1*
X3136156Y1331294D1*
X3143341Y1326541D1*
X3145718Y1319356D1*
Y1314602D1*
X3143341Y1307417D1*
X3138533Y1305041D1*
X3244410Y738772D2*
Y760272D1*
X3241978Y767457D1*
X3239601Y769889D1*
X3234848Y772265D1*
X3230040D1*
X3225286Y769889D1*
X3222855Y767457D1*
X3220478Y760272D1*
Y738772D1*
X3270718D1*
X3244410Y755518D2*
X3270718Y772265D1*
X3230095Y787704D2*
X3227663Y792513D1*
X3220533Y799698D1*
X3270718D1*
X3220533Y829507D2*
X3222910Y822322D1*
X3230095Y817514D1*
X3242033Y815137D1*
X3249218D1*
X3261156Y817514D1*
X3268341Y822322D1*
X3270718Y829507D1*
Y834260D1*
X3268341Y841445D1*
X3261156Y846198D1*
X3249218Y848630D1*
X3242033D1*
X3230095Y846198D1*
X3222910Y841445D1*
X3220533Y834260D1*
Y829507D1*
X3230095Y846198D2*
X3261156Y817514D1*
X3119410Y749522D2*
Y771022D1*
X3116978Y778207D1*
X3114601Y780638D1*
X3109848Y783015D1*
X3105040D1*
X3100286Y780638D1*
X3097855Y778207D1*
X3095478Y771022D1*
Y749522D1*
X3145718D1*
X3119410Y766268D2*
X3145718Y783015D1*
X3105095Y798454D2*
X3102663Y803263D1*
X3095533Y810448D1*
X3145718D1*
X3105095Y825887D2*
X3102663Y830695D1*
X3095533Y837880D1*
X3145718D1*
X3244410Y1238772D2*
Y1260272D1*
X3241978Y1267457D1*
X3239601Y1269889D1*
X3234848Y1272265D1*
X3230040D1*
X3225286Y1269889D1*
X3222855Y1267457D1*
X3220478Y1260272D1*
Y1238772D1*
X3270718D1*
X3244410Y1255518D2*
X3270718Y1272265D1*
X3230095Y1287704D2*
X3227663Y1292513D1*
X3220533Y1299698D1*
X3270718D1*
X3232471Y1317569D2*
X3230095D1*
X3225286Y1319945D1*
X3222910Y1322322D1*
X3220533Y1327131D1*
Y1336692D1*
X3222910Y1341445D1*
X3225286Y1343822D1*
X3230095Y1346254D1*
X3234848D1*
X3239657Y1343822D1*
X3246786Y1339069D1*
X3270718Y1315137D1*
Y1348630D1*
X3513799Y1667992D2*
X3535299D1*
X3542484Y1670424D1*
X3544916Y1672801D1*
X3547293Y1677554D1*
Y1682362D1*
X3544916Y1687116D1*
X3542484Y1689547D1*
X3535299Y1691924D1*
X3513799D1*
Y1641684D1*
X3530546Y1667992D2*
X3547293Y1641684D1*
X3562732Y1682307D2*
X3567540Y1684739D1*
X3574725Y1691869D1*
Y1641684D1*
X3602103Y1691869D2*
X3594973Y1689492D1*
X3592541Y1684739D1*
Y1679931D1*
X3594973Y1675177D1*
X3599726Y1672746D1*
X3609288Y1670369D1*
X3616473Y1667992D1*
X3621226Y1663184D1*
X3623603Y1658431D1*
Y1651246D1*
X3621226Y1646493D1*
X3618850Y1644061D1*
X3611664Y1641684D1*
X3602103D1*
X3594973Y1644061D1*
X3592541Y1646493D1*
X3590165Y1651246D1*
Y1658431D1*
X3592541Y1663184D1*
X3597350Y1667992D1*
X3604479Y1670369D1*
X3614041Y1672746D1*
X3618850Y1675177D1*
X3621226Y1679931D1*
Y1684739D1*
X3618850Y1689492D1*
X3611664Y1691869D1*
X3602103D1*
X2513238Y1188774D2*
Y1152905D1*
X2515615Y1145720D1*
X2520423Y1140966D1*
X2527608Y1138534D1*
X2532361D1*
X2539546Y1140966D1*
X2544355Y1145720D1*
X2546731Y1152905D1*
Y1188774D1*
X2562171Y1179158D2*
X2566979Y1181589D1*
X2574164Y1188719D1*
Y1138534D1*
X3502488Y1188774D2*
Y1152905D1*
X3504865Y1145720D1*
X3509673Y1140966D1*
X3516858Y1138534D1*
X3521611D1*
X3528796Y1140966D1*
X3533605Y1145720D1*
X3535981Y1152905D1*
Y1188774D1*
X3553852Y1176781D2*
Y1179158D1*
X3556229Y1183966D1*
X3558606Y1186343D1*
X3563414Y1188719D1*
X3572976D1*
X3577729Y1186343D1*
X3580106Y1183966D1*
X3582537Y1179158D1*
Y1174404D1*
X3580106Y1169596D1*
X3575352Y1162466D1*
X3551421Y1138534D1*
X3584914D1*
X1677488Y1913774D2*
Y1877905D1*
X1679865Y1870720D1*
X1684673Y1865966D1*
X1691858Y1863534D1*
X1696611D1*
X1703796Y1865966D1*
X1708605Y1870720D1*
X1710981Y1877905D1*
Y1913774D1*
X1731229Y1913719D2*
X1757482D1*
X1743167Y1894596D1*
X1750352D1*
X1755106Y1892219D1*
X1757482Y1889843D1*
X1759914Y1882658D1*
Y1877905D1*
X1757482Y1870720D1*
X1752729Y1865911D1*
X1745544Y1863534D1*
X1738359D1*
X1731229Y1865911D1*
X1728852Y1868343D1*
X1726421Y1873096D1*
X1001300Y1316924D2*
Y1281054D1*
X1003676Y1273869D1*
X1008485Y1269116D1*
X1015670Y1266684D1*
X1020423D1*
X1027608Y1269116D1*
X1032416Y1273869D1*
X1034793Y1281054D1*
Y1316924D1*
X1074164Y1266684D2*
Y1316869D1*
X1050232Y1283431D1*
X1086102D1*
X1122416Y1438919D2*
X1117663Y1436543D1*
X1112855Y1431734D1*
X1110478Y1426981D1*
Y1417420D1*
X1112855Y1412611D1*
X1117663Y1407858D1*
X1122416Y1405426D1*
X1129601Y1403050D1*
X1141595D1*
X1148724Y1405426D1*
X1153533Y1407858D1*
X1158286Y1412611D1*
X1160718Y1417420D1*
Y1426981D1*
X1158286Y1431734D1*
X1153533Y1436543D1*
X1148724Y1438919D1*
X1110478Y1454359D2*
X1160718D1*
Y1471105D1*
X1158286Y1478290D1*
X1153533Y1483099D1*
X1148724Y1485475D1*
X1141595Y1487852D1*
X1129601D1*
X1122416Y1485475D1*
X1117663Y1483099D1*
X1112855Y1478290D1*
X1110478Y1471105D1*
Y1454359D1*
X1117663Y1531976D2*
X1112910Y1529599D1*
X1110533Y1522414D1*
Y1517661D1*
X1112910Y1510476D1*
X1120095Y1505668D1*
X1132033Y1503291D1*
X1143971D1*
X1153533Y1505668D1*
X1158341Y1510476D1*
X1160718Y1517661D1*
Y1520038D1*
X1158341Y1527168D1*
X1153533Y1531976D1*
X1146348Y1534353D1*
X1143971D1*
X1136786Y1531976D1*
X1132033Y1527168D1*
X1129656Y1520038D1*
Y1517661D1*
X1132033Y1510476D1*
X1136786Y1505668D1*
X1143971Y1503291D1*
M02*
